{
  "accessors": [
    {
      "bufferView": 0,
      "byteOffset": 0,
      "componentType": 5126,
      "count": 240,
      "type": "VEC3",
      "min": [
        -77.14447077619843,
        -42.96283542830497,
        -67.52034310717136
      ],
      "max": [
        77.76364028593525,
        46.61669829953462,
        72.33625365514308
      ]
    },
    {
      "bufferView": 1,
      "byteOffset": 0,
      "componentType": 5126,
      "count": 240,
      "type": "VEC3",
      "min": [
        -0.9686305452941167,
        -0.741541829732688,
        -0.76555693327586
      ],
      "max": [
        0.9686305452941167,
        0.741541829732688,
        0.76555693327586
      ]
    },
    {
      "bufferView": 2,
      "byteOffset": 0,
      "componentType": 5123,
      "count": 360,
      "type": "SCALAR",
      "min": [
        0
      ],
      "max": [
        239
      ]
    }
  ],
  "asset": {
    "copyright": "Upper Right Copyright",
    "generator": "3d-tiles-samples-generator",
    "version": "2.0"
  },
  "buffers": [
    {
      "name": "buffer",
      "byteLength": 6480,
      "uri": "data:application/octet-stream;base64,"
    }
  ],
  "bufferViews": [
    {
      "buffer": 0,
      "byteLength": 2880,
      "byteOffset": 0,
      "target": 34962,
      "byteStride": 12
    },
    {
      "buffer": 0,
      "byteLength": 2880,
      "byteOffset": 2880,
      "target": 34962,
      "byteStride": 12
    },
    {
      "buffer": 0,
      "byteLength": 720,
      "byteOffset": 5760,
      "target": 34963
    }
  ],
  "materials": [
    {
      "pbrMetallicRoughness": {
        "baseColorFactor": [
          1,
          1,
          1,
          1
        ],
        "roughnessFactor": 1,
        "metallicFactor": 0
      },
      "alphaMode": "OPAQUE",
      "doubleSided": false,
      "emissiveFactor": [
        0,
        0,
        0
      ]
    }
  ],
  "meshes": [
    {
      "primitives": [
        {
          "attributes": {
            "POSITION": 0,
            "NORMAL": 1
          },
          "indices": 2,
          "material": 0,
          "mode": 4
        }
      ]
    }
  ],
  "nodes": [
    {
      "name": "Z_UP_TO_Y_UP",
      "matrix": [
        1,
        0,
        0,
        0,
        0,
        0,
        -1,
        0,
        0,
        1,
        0,
        0,
        0,
        0,
        0,
        1
      ],
      "children": [
        1
      ]
    },
    {
      "name": "RTC_CENTER",
      "translation": [
        1215069.3569947367,
        -4736227.241794692,
        4081686.5536876773
      ],
      "mesh": 0
    }
  ],
  "scene": 0,
  "scenes": [
    {
      "nodes": [
        0
      ]
    }
  ]
}
