<svg xmlns="http://www.w3.org/2000/svg" width="512" height="512" viewBox="0 0 512 512">
    <circle cx="256" cy="256" r="256" fill="#fff"/>
    <path d="M256 32C132.288 32 32 132.286 32 256a224 224 0 0 0 7.41 56.564c.127.114.26.237.379.336 4.128 3.41 8.94 5.16 13.8 5.16 7.43 0 14.595-4.094 20.2-11.5l70.601-93.301c11.682-15.438 28.3-24.299 45.5-24.299s33.74 8.895 45.5 24.299c10.428 13.659 45.073 59.665 67.799 89.701.932 1.232 1.947 2.4 2.92 3.6 6.16 7.594 12.7 11.5 20 11.5 7.591 0 13.505-3.656 20-11.5.993-1.2 2.038-2.36 2.98-3.6 22.922-30.159 57.355-75.935 67.801-89.701 11.703-15.422 28.3-24.299 45.5-24.299 2.437 0 4.878.3 7.287.62C440.608 95.952 354.034 32.107 256 32zm75.05 95.05a23.525 23.525 0 0 1 23.526 23.527 23.525 23.525 0 0 1-23.526 23.526 23.525 23.525 0 0 1-23.525-23.526 23.525 23.525 0 0 1 23.525-23.527z" fill="#6dabe4"/>
    <path d="M478.011 228.398c-4.666-4.399-10.09-6.538-16.158-6.538-9.114 0-15.027 4.79-20.953 11.64l-70.4 93.3c-11.698 15.502-28.2 24.299-45.4 24.299h-.268c-17.2 0-33.762-8.877-45.399-24.3l-70.4-93.3c-5.596-7.416-12.7-11.5-20.1-11.5-7.36 0-14.553 4.146-20.101 11.5l-70.399 93.3c-11.56 15.32-27.885 24.329-44.976 24.3C90.3 429.673 169.216 479.895 256 479.999c123.711 0 224-100.288 224-224a224.007 224.007 0 0 0-1.989-27.601z" fill="#709c49"/>
</svg>
