<!-- Created with Inkscape (http://www.inkscape.org/) -->
<svg xmlns:rdf="http://www.w3.org/1999/02/22-rdf-syntax-ns#" xmlns="http://www.w3.org/2000/svg" height="128" width="128" version="1.1" xmlns:cc="http://creativecommons.org/ns#" xmlns:dc="http://purl.org/dc/elements/1.1/">
 <metadata>
  <rdf:RDF>
   <cc:Work rdf:about="">
    <dc:format>image/svg+xml</dc:format>
    <dc:type rdf:resource="http://purl.org/dc/dcmitype/StillImage"/>
    <dc:title/>
   </cc:Work>
  </rdf:RDF>
 </metadata>
 <g stroke="#000" fill-rule="evenodd" transform="translate(0,96)" fill="#000">
  <path d="m84.026,14.373,26.213-0.02988-0.0178-26.266-7.2844-7.2784-0.0883,20.21-20.863-20.855-5.8306,5.8435,20.989,20.991-20.42,0.0811,7.3031,7.3031z" stroke-miterlimit="4" stroke-dasharray="none" stroke-width="0.07400000000000000"/>
  <path d="m44.014,14.24-26.213-0.02988,0.01775-26.266,7.2844-7.2784,0.08822,20.21,20.863-20.855,5.8306,5.8435-20.989,20.991,20.42,0.08111-7.3031,7.3031z" stroke-width="0.07437467000000000"/>
  <path d="m44.128-78.398-26.213,0.02988,0.01775,26.266,7.2844,7.2784,0.08822-20.21,20.863,20.855,5.8306-5.8435-20.989-20.991,20.42-0.08111-7.3031-7.3031z" stroke-width="0.07437467000000000"/>
  <path d="m83.969-78.422,26.213,0.02988-0.0178,26.266-7.2844,7.2784-0.0883-20.21-20.863,20.855-5.8306-5.8435,20.989-20.991-20.42-0.0811,7.3031-7.3031z" stroke-width="0.07437467000000000"/>
 </g>
</svg>
