<?xml version="1.0" encoding="UTF-8" standalone="no"?>
<!-- Created with Inkscape (http://www.inkscape.org/) -->

<svg
   xmlns:dc="http://purl.org/dc/elements/1.1/"
   xmlns:cc="http://creativecommons.org/ns#"
   xmlns:rdf="http://www.w3.org/1999/02/22-rdf-syntax-ns#"
   xmlns:svg="http://www.w3.org/2000/svg"
   xmlns="http://www.w3.org/2000/svg"
   xmlns:xlink="http://www.w3.org/1999/xlink"
   xmlns:sodipodi="http://sodipodi.sourceforge.net/DTD/sodipodi-0.dtd"
   xmlns:inkscape="http://www.inkscape.org/namespaces/inkscape"
   width="192"
   height="64"
   id="svg3440"
   sodipodi:version="0.32"
   inkscape:version="0.48.4 r9939"
   sodipodi:docname="sceneMode3D.svg"
   version="1.1"
   inkscape:export-filename="C:\Users\mamato\Desktop\3D.png"
   inkscape:export-xdpi="53.459999"
   inkscape:export-ydpi="53.459999">
  <defs
     id="defs3">
    <linearGradient
       inkscape:collect="always"
       id="linearGradient6001">
      <stop
         style="stop-color:#ffffff;stop-opacity:1;"
         offset="0"
         id="stop6003" />
      <stop
         style="stop-color:#ffffff;stop-opacity:0;"
         offset="1"
         id="stop6005" />
    </linearGradient>
    <linearGradient
       inkscape:collect="always"
       id="linearGradient4825">
      <stop
         style="stop-color:#ffffff;stop-opacity:1;"
         offset="0"
         id="stop4827" />
      <stop
         style="stop-color:#ffffff;stop-opacity:0;"
         offset="1"
         id="stop4829" />
    </linearGradient>
    <linearGradient
       id="linearGradient4126">
      <stop
         style="stop-color:#ffffff;stop-opacity:1.0000000;"
         offset="0.0000000"
         id="stop4128" />
      <stop
         style="stop-color:#ffffff;stop-opacity:0.16494845;"
         offset="1.0000000"
         id="stop4130" />
    </linearGradient>
    <linearGradient
       id="linearGradient3962">
      <stop
         style="stop-color:#d3e9ff;stop-opacity:1.0000000;"
         offset="0.0000000"
         id="stop3964" />
      <stop
         style="stop-color:#d3e9ff;stop-opacity:1.0000000;"
         offset="0.15517241"
         id="stop4134" />
      <stop
         style="stop-color:#4074ae;stop-opacity:1.0000000;"
         offset="0.75000000"
         id="stop4346" />
      <stop
         style="stop-color:#36486c;stop-opacity:1.0000000;"
         offset="1.0000000"
         id="stop3966" />
    </linearGradient>
    <radialGradient
       inkscape:collect="always"
       xlink:href="#linearGradient4825"
       id="radialGradient5983"
       gradientUnits="userSpaceOnUse"
       cx="12.071323"
       cy="12.493138"
       fx="12.071323"
       fy="12.493138"
       r="6.7175145" />
    <radialGradient
       inkscape:collect="always"
       xlink:href="#linearGradient4825"
       id="radialGradient5985"
       gradientUnits="userSpaceOnUse"
       cx="12.071323"
       cy="12.493138"
       fx="12.071323"
       fy="12.493138"
       r="6.7175145" />
    <radialGradient
       inkscape:collect="always"
       xlink:href="#linearGradient4825"
       id="radialGradient5987"
       gradientUnits="userSpaceOnUse"
       cx="12.071323"
       cy="12.493138"
       fx="12.071323"
       fy="12.493138"
       r="6.7175145" />
    <radialGradient
       inkscape:collect="always"
       xlink:href="#linearGradient4825"
       id="radialGradient5989"
       gradientUnits="userSpaceOnUse"
       cx="12.071323"
       cy="12.493138"
       fx="12.071323"
       fy="12.493138"
       r="6.7175145" />
    <linearGradient
       inkscape:collect="always"
       xlink:href="#linearGradient6001"
       id="linearGradient6007"
       x1="-25.176178"
       y1="30.057165"
       x2="-22.252472"
       y2="21.041553"
       gradientUnits="userSpaceOnUse" />
    <linearGradient
       inkscape:collect="always"
       xlink:href="#linearGradient6001"
       id="linearGradient6011"
       gradientUnits="userSpaceOnUse"
       x1="-25.176178"
       y1="30.057165"
       x2="-22.113543"
       y2="22.661524" />
    <linearGradient
       inkscape:collect="always"
       xlink:href="#linearGradient6001"
       id="linearGradient6015"
       gradientUnits="userSpaceOnUse"
       x1="-22.822565"
       y1="28.337734"
       x2="-22.113543"
       y2="22.661524" />
    <linearGradient
       inkscape:collect="always"
       xlink:href="#linearGradient6001"
       id="linearGradient6019"
       gradientUnits="userSpaceOnUse"
       x1="-21.658581"
       y1="15.649428"
       x2="-21.962101"
       y2="21.336346" />
  </defs>
  <sodipodi:namedview
     id="base"
     pagecolor="#ffffff"
     bordercolor="#666666"
     borderopacity="0.17254902"
     inkscape:pageopacity="0"
     inkscape:pageshadow="2"
     inkscape:zoom="0.84066813"
     inkscape:cx="127.96534"
     inkscape:cy="-168.70694"
     inkscape:current-layer="layer1"
     showgrid="false"
     inkscape:grid-bbox="true"
     inkscape:document-units="px"
     inkscape:window-width="1920"
     inkscape:window-height="1028"
     inkscape:window-x="-8"
     inkscape:window-y="-8"
     inkscape:showpageshadow="false"
     inkscape:window-maximized="1" />
  <metadata
     id="metadata4">
    <rdf:RDF>
      <cc:Work
         rdf:about="">
        <dc:format>image/svg+xml</dc:format>
        <dc:type
           rdf:resource="http://purl.org/dc/dcmitype/StillImage" />
        <dc:title>Internet Category</dc:title>
        <dc:creator>
          <cc:Agent>
            <dc:title>Jakub Steiner</dc:title>
          </cc:Agent>
        </dc:creator>
        <dc:contributor>
          <cc:Agent>
            <dc:title>Tuomas Kuosmanen</dc:title>
          </cc:Agent>
        </dc:contributor>
        <cc:license
           rdf:resource="http://creativecommons.org/licenses/by-sa/2.0/" />
        <dc:source>http://jimmac.musichall.cz</dc:source>
        <dc:subject>
          <rdf:Bag>
            <rdf:li>internet</rdf:li>
            <rdf:li>tools</rdf:li>
            <rdf:li>applications</rdf:li>
            <rdf:li>category</rdf:li>
          </rdf:Bag>
        </dc:subject>
      </cc:Work>
      <cc:License
         rdf:about="http://creativecommons.org/licenses/by-sa/2.0/">
        <cc:permits
           rdf:resource="http://web.resource.org/cc/Reproduction" />
        <cc:permits
           rdf:resource="http://web.resource.org/cc/Distribution" />
        <cc:requires
           rdf:resource="http://web.resource.org/cc/Notice" />
        <cc:requires
           rdf:resource="http://web.resource.org/cc/Attribution" />
        <cc:permits
           rdf:resource="http://web.resource.org/cc/DerivativeWorks" />
        <cc:requires
           rdf:resource="http://web.resource.org/cc/ShareAlike" />
      </cc:License>
    </rdf:RDF>
  </metadata>
  <g
     id="layer1"
     inkscape:label="Layer 1"
     inkscape:groupmode="layer"
     transform="translate(0,16)">
    <path
       style="fill:#000080;fill-opacity:1;fill-rule:nonzero;stroke:#000000;stroke-width:2.33846164"
       d="m 170.83077,18.997341 c 0,41.329226 -33.50536,74.833428 -74.829834,74.833428 -41.328257,0 -74.831705,-33.504579 -74.831705,-74.833428 0,-41.327328 33.503448,-74.828111 74.831705,-74.828111 41.324474,0 74.829834,33.500783 74.829834,74.828111 l 0,0 z"
       id="path3214"
       inkscape:connector-curvature="0" />
    <path
       inkscape:connector-curvature="0"
       style="fill:#008000;fill-opacity:1;fill-rule:nonzero;stroke:none"
       id="path4144"
       d="m 168.72982,7.7931672 c 0,0.995896 0,0 0,0 l -2.06577,2.3398058 c -1.26622,-1.4921408 -2.68788,-2.7469628 -4.13153,-4.0575128 l -3.16898,0.466289 -2.89526,-3.272776 0,4.050314 2.48051,1.876928 1.65103,1.8697268 2.20641,-2.4952418 c 0.55542,1.040253 1.10321,2.0805038 1.65482,3.1207598 l 0,3.117347 -2.48429,2.806105 -4.5463,3.120757 -3.44308,3.435787 -2.20641,-2.502823 1.1032,-2.806104 -2.20298,-2.495242 -3.72059,-7.9523958 -3.16898,-3.583641 -0.82948,0.932965 1.24385,4.5241868 2.33985,2.650677 c 1.33638,3.85773 2.65833,7.544865 4.41324,11.232377 2.72124,0 5.28666,-0.288885 7.98934,-0.629305 l 0,2.184381 -3.30622,8.109726 -3.03211,3.428206 -2.48052,5.308929 c 0,2.909979 0,5.819955 0,8.729555 l 0.82951,3.435786 -1.37731,1.555077 -3.03593,1.873137 -3.16897,2.650672 2.62115,2.961917 -3.58372,3.124545 0.68848,2.021372 -5.37577,6.086462 -3.57993,0 -3.03212,1.873139 -1.9327,0 0,-2.495247 -0.82192,-4.998066 c -1.06645,-3.132128 -2.17684,-6.241894 -3.30621,-9.351659 0,-2.295454 0.13688,-4.568543 0.27407,-6.863618 l 1.3811,-3.117348 -1.9327,-3.74665 0.14064,-5.145921 -2.62116,-2.961909 1.31058,-4.287253 -2.1325,-2.419423 -3.72436,0 -1.24006,-1.403053 -3.72058,2.341709 -1.51417,-1.719604 -3.44687,2.963432 c -2.33984,-2.652572 -4.68349,-5.303237 -7.02676,-7.953913 L 98.046744,19.173776 100.52725,15.4347 99.149945,13.876216 102.17828,6.6975662 c 2.48809,-3.09498 5.08688,-6.06409782 7.71563,-9.044215 l 4.68694,-1.247617 5.2351,-0.622104 3.58375,0.9367591 5.09787,5.1421229 1.79204,-2.02515702 2.47675,-0.3108462 4.6869,1.55847982 3.58374,0 2.48051,-2.1843761 1.10321,-1.558486 -2.48431,-1.5584815 -4.13531,-0.3108831 c -1.14756,-1.5918424 -2.21399,-3.2651952 -3.57652,-4.6796179 l -1.3811,0.6221036 -0.5516,4.0575143 -2.4805,-2.8061036 -0.54781,-3.1245495 -2.75463,-2.176796 -1.107,0 2.75803,3.1173447 -1.1032,2.8061045 -2.20302,0.6221028 1.37731,-2.8061046 -2.48431,-1.2438254 -2.1992,-2.495244 -4.13913,0.932966 -0.5478,1.243829 -2.48051,1.5622744 -1.3773,3.432002 -3.44309,1.7139159 -1.51794,-1.7139159 -1.65102,0 0,-5.6159974 3.58371,-1.873139 2.75461,0 -0.55539,-2.180589 -2.19922,-2.18438 3.71718,-0.781327 2.06576,-2.336021 1.65101,-2.809893 3.03591,0 -0.82949,-2.180589 1.93271,-1.24762 0,2.49524 4.13153,0.932969 4.13154,-3.428209 0.2775,-1.562275 3.57994,-2.493347 c -1.29581,0.161115 -2.59159,0.279394 -3.85784,0.624002 l 0,-2.809511 1.37732,-3.11925 -1.37732,0 -3.0268,2.806107 -0.82947,1.560382 0.82947,2.186271 -1.38108,3.73907 -2.20302,-1.24762 -1.92511,-2.180588 -3.03592,2.180588 -1.1032,-4.988587 5.23513,-3.430108 0,-1.873133 3.30962,-2.182488 5.23513,-1.249517 3.58371,1.249517 6.61205,1.247631 -1.65101,1.869724 -3.58372,0 3.58372,3.742859 2.75458,-3.117345 0.83671,-1.371595 c 0,0 10.56617,9.469944 16.60462,19.828876 6.03846,10.3623429 8.87419,22.5758352 8.87419,25.0562902 z" />
    <path
       inkscape:connector-curvature="0"
       style="fill:#008000;fill-opacity:1;fill-rule:nonzero;stroke:none"
       id="path4152"
       d="m 100.48633,-35.720411 -0.27751,1.869724 1.9327,1.247621 3.30242,-2.182477 -1.65102,-1.87162 -2.20641,1.249515 -1.09942,-0.312763" />
    <path
       inkscape:connector-curvature="0"
       style="fill:#008000;fill-opacity:1;fill-rule:nonzero;stroke:none"
       id="path4160"
       d="m 103.51845,-48.507485 -7.167445,-2.80799 -8.263452,0.934856 -10.199555,2.806106 -1.92891,1.873134 6.338329,4.364976 0,2.495239 -2.480512,2.495239 3.309629,6.554655 2.19921,-1.251415 2.761809,-4.364963 c 4.257399,-1.316236 8.074654,-2.808001 12.121267,-4.679622 l 3.30963,-8.420596" />
    <path
       inkscape:connector-curvature="0"
       style="fill:#008000;fill-opacity:1;fill-rule:nonzero;stroke:none"
       id="path4168"
       d="m 110.95997,-22.30555 -1.1032,-2.809892 -1.93269,0.625515 0.5554,3.428209 2.48049,-1.243832" />
    <path
       inkscape:connector-curvature="0"
       style="fill:#008000;fill-opacity:1;fill-rule:nonzero;stroke:none"
       id="path4176"
       d="m 112.05941,-22.934853 -0.5516,3.746651 3.03209,-0.625515 2.20302,-2.180589 -1.92891,-1.873138 c -0.64788,-1.725287 -1.39208,-3.335708 -2.203,-4.990484 l -1.65104,0 0,1.869728 1.09944,1.24762 0,2.806105" />
    <path
       inkscape:connector-curvature="0"
       style="fill:#008000;fill-opacity:1;fill-rule:nonzero;stroke:none"
       id="path4184"
       d="m 70.261374,36.331119 -2.206413,-4.368382 -4.133437,-0.934864 -2.204519,-5.92345 -5.510729,0.622109 -4.683523,-3.42821 -4.962922,4.364971 0,0.688446 c -1.501272,-0.433316 -3.346778,-0.492454 -4.683516,-1.314347 l -1.103209,-3.117344 0,-3.432004 -3.306216,0.310885 c 0.275993,-2.184379 0.54971,-4.364966 0.827596,-6.548966 l -1.930804,0 -1.927013,2.49524 -1.930803,0.932967 -2.756508,-1.555072 -0.275993,-3.431998 0.551606,-3.7428648 4.135325,-3.117345 3.306214,0 0.549709,-1.8731368 4.133429,0.9329658 3.032124,3.746656 0.551604,-6.2418946 5.236638,-4.3649672 1.928903,-4.6796218 3.85782,-1.558485 2.204524,-3.1173456 4.959128,-0.940172 2.482411,-3.739071 c -2.480515,0 -4.961026,0 -7.441539,0 l 4.685036,-2.184379 3.304318,0 4.686929,-1.562274 0.551605,-1.865933 -1.654811,-1.562276 -1.928913,-0.625519 0.551603,-1.869723 -1.377301,-2.806105 -3.308109,1.243831 0.551603,-2.493348 -3.857819,-2.184375 -3.030222,5.29945 0.274075,1.873134 -3.030219,1.251412 -1.930804,4.053725 -0.825704,-3.742863 -5.236635,-2.184378 -0.827596,-2.806105 6.889935,-4.057519 3.032118,-2.806095 0.276001,-3.430106 -1.652916,-0.936765 -2.204524,-0.312751 -1.377301,3.431992 c 0,0 -2.304609,0.45151 -2.897155,0.597841 -7.567408,6.973184 -22.857651,22.026144 -26.409906,50.443919 0.140652,0.658881 2.574912,4.479458 2.574912,4.479458 l 5.786727,3.428213 5.786728,1.56227 2.482411,3.120763 3.855918,2.806102 2.204523,-0.310882 1.652917,0.744173 0,0.503445 -2.203006,5.925348 -1.654812,2.495239 0.551604,1.251415 -1.377303,4.67204 4.961026,9.048002 4.959132,4.368376 2.206417,3.117345 -0.277509,6.552757 1.65481,3.739076 -1.65481,7.174857 c 0,0 -0.129668,-0.04432 0.0815,0.673665 0.21308,0.718396 8.829839,5.501514 9.377653,5.094358 0.54592,-0.414735 1.012602,-0.777535 1.012602,-0.777535 l -0.549708,-1.555072 2.203008,-2.18438 0.827592,-2.184375 3.583722,-1.251416 2.754609,-6.863625 -0.825702,-1.865931 1.925118,-2.806106 4.135325,-0.94017 2.206419,-4.990484 -0.551603,-6.234313 3.306212,-4.67962 0.551605,-4.679623 C 79.238278,40.950464 74.751142,38.640222 70.26059,36.330362" />
    <path
       inkscape:connector-curvature="0"
       style="fill:#008000;fill-opacity:1;fill-rule:nonzero;stroke:none"
       id="path4192"
       d="m 65.211333,-34.474688 2.75461,1.871622 2.206418,0 0,-2.182477 -2.754609,-1.24762 -2.206419,1.558475" />
    <path
       inkscape:connector-curvature="0"
       style="fill:#008000;fill-opacity:1;fill-rule:nonzero;stroke:none"
       id="path4200"
       d="m 58.047681,-36.968031 -1.379201,3.430108 2.756507,0 1.379202,-3.11924 c 1.188505,-0.840473 2.371328,-1.686241 3.581822,-2.49525 l 2.756506,0.936764 c 1.83641,1.247618 3.672812,2.495238 5.510737,3.740961 l 2.758019,-2.493343 -3.034011,-1.247618 -1.379202,-2.808003 -5.235122,-0.624001 -0.27599,-1.560382 -2.480515,0.625526 -1.100931,2.182857 -1.379201,-2.808001 -0.549709,1.247619 0.275993,3.119251 -2.204904,1.872752" />
    <path
       inkscape:connector-curvature="0"
       style="opacity:0.75;fill:#000080;fill-opacity:0.71345029;fill-rule:nonzero;stroke:none"
       d=""
       id="path4206" />
    <path
       inkscape:connector-curvature="0"
       style="fill:#000080;fill-opacity:0.71345029;fill-rule:nonzero;stroke:none"
       d=""
       id="path4210" />
    <path
       inkscape:connector-curvature="0"
       style="opacity:0.75;fill:#000080;fill-opacity:0.71345029;fill-rule:nonzero;stroke:none"
       d=""
       id="path4216" />
    <path
       inkscape:connector-curvature="0"
       style="fill:#000080;fill-opacity:0.71345029;fill-rule:nonzero;stroke:none"
       d=""
       id="path4220" />
    <path
       inkscape:connector-curvature="0"
       style="fill:#008000;fill-opacity:1;fill-rule:nonzero;stroke:none"
       id="path4228"
       d="m 67.965943,-44.768407 1.379202,-1.245723 2.75651,-0.624001 c 1.887956,-0.918187 3.783508,-1.536501 5.786722,-2.184383 l -1.099417,-1.87162 -3.557941,0.511029 -1.680971,1.675239 -2.771294,0.401851 -2.463834,1.157017 -1.197606,0.579265 -0.731303,0.979222 3.579932,0.622104" />
    <path
       inkscape:connector-curvature="0"
       style="fill:#008000;fill-opacity:1;fill-rule:nonzero;stroke:none"
       id="path4236"
       d="m 72.652874,-15.134476 1.654812,-2.49524 -2.482408,-1.869728 0.827596,4.364968" />
  </g>
</svg>
