<?xml version="1.0" encoding="UTF-8" standalone="no"?>
<svg
   xmlns:dc="http://purl.org/dc/elements/1.1/"
   xmlns:cc="http://creativecommons.org/ns#"
   xmlns:rdf="http://www.w3.org/1999/02/22-rdf-syntax-ns#"
   xmlns:svg="http://www.w3.org/2000/svg"
   xmlns="http://www.w3.org/2000/svg"
   xmlns:xlink="http://www.w3.org/1999/xlink"
   xmlns:sodipodi="http://sodipodi.sourceforge.net/DTD/sodipodi-0.dtd"
   xmlns:inkscape="http://www.inkscape.org/namespaces/inkscape"
   width="192"
   height="64"
   viewBox="-105 -105 268.8 89.6"
   id="svg2"
   version="1.1"
   inkscape:version="0.48.4 r9939"
   sodipodi:docname="sceneModeMorphing.svg">
  <metadata
     id="metadata66">
    <rdf:RDF>
      <cc:Work
         rdf:about="">
        <dc:format>image/svg+xml</dc:format>
        <dc:type
           rdf:resource="http://purl.org/dc/dcmitype/StillImage" />
      </cc:Work>
    </rdf:RDF>
  </metadata>
  <sodipodi:namedview
     pagecolor="#ffffff"
     bordercolor="#666666"
     borderopacity="1"
     objecttolerance="10"
     gridtolerance="10"
     guidetolerance="10"
     inkscape:pageopacity="0"
     inkscape:pageshadow="2"
     inkscape:window-width="1920"
     inkscape:window-height="1028"
     id="namedview64"
     showgrid="false"
     inkscape:zoom="2.6457813"
     inkscape:cx="185.2084"
     inkscape:cy="-3.2174965"
     inkscape:window-x="-8"
     inkscape:window-y="-8"
     inkscape:window-maximized="1"
     inkscape:current-layer="svg2" />
  <defs
     id="defs4">
    <clipPath
       id="ball">
      <circle
         r="100"
         id="circle7"
         cx="0"
         cy="0"
         sodipodi:cx="0"
         sodipodi:cy="0"
         sodipodi:rx="100"
         sodipodi:ry="100"
         style="stroke-width:0" />
    </clipPath>
    <radialGradient
       id="shadow1"
       cx="-19.999998"
       cy="-39.999996"
       r="160"
       fx="-19.999998"
       fy="-39.999996"
       gradientUnits="userSpaceOnUse">
      <stop
         offset="0"
         stop-color="white"
         stop-opacity="1"
         id="stop10" />
      <stop
         offset=".4"
         stop-color="white"
         stop-opacity="1"
         id="stop12" />
      <stop
         offset=".8"
         stop-color="#EEEEEE"
         stop-opacity="1"
         id="stop14" />
    </radialGradient>
    <radialGradient
       id="shadow2"
       cx="0"
       cy="0"
       r="100"
       fx="0"
       fy="0"
       gradientUnits="userSpaceOnUse">
      <stop
         offset="0"
         stop-color="white"
         stop-opacity="0"
         id="stop17" />
      <stop
         offset=".8"
         stop-color="white"
         stop-opacity="0"
         id="stop19" />
      <stop
         offset=".99"
         stop-color="black"
         stop-opacity=".3"
         id="stop21" />
      <stop
         offset="1"
         stop-color="black"
         stop-opacity="1"
         id="stop23" />
    </radialGradient>
    <g
       id="black_stuff"
       clip-path="url(#ball)"
       style="stroke-linejoin:round">
      <g
         id="g26"
         style="fill:#000000">
        <path
           d="m 6,-32 q 20,4 40,13 11,-16 18,-28 -14,-21 -27,-29 -20,1 -36,8 3,17 5,36"
           id="path28"
           inkscape:connector-curvature="0" />
        <path
           d="m -26,-2 q -19,-6 -36,-9 -12,16 -14,33 7,18 26,32 18,-7 33,-15 -6,-24 -9,-41"
           id="path30"
           inkscape:connector-curvature="0" />
        <path
           d="m -95,22 q -7,-10 -7,-30 v 88 h 17 Q -95,45 -95,22"
           id="path32"
           inkscape:connector-curvature="0" />
        <path
           d="M 55,24 Q 41,41 24,52 28,65 31,79 55,78 68,67 78,50 80,35 65,28 55,24"
           id="path34"
           inkscape:connector-curvature="0" />
        <path
           d="M 0,120 -3,95 q -22,-2 -39,-13 -8,2 -18,-1"
           id="path36"
           inkscape:connector-curvature="0" />
        <path
           d="m -90,-48 q 10,-4 22,-1 16,-22 33,-28 0,-23 -5,-23 h -60"
           id="path38"
           inkscape:connector-curvature="0" />
        <path
           d="m 100,-55 -13,18 q 11,27 10,42 l 3,1"
           id="path40"
           inkscape:connector-curvature="0" />
      </g>
      <g
         id="g42"
         style="fill:none">
        <path
           d="m 6,-32 q -24,20 -32,30 m 72,-17 q 8,24 9,43 m 9,-71 q 13,3 23,10 M 37,-76 q 2,-14 -1,-24 M 1,-68 q -14,-9 -36,-9 m -27,66 q -5,-14 -6,-38 m -8,71 q -9,2 -19,0 m 45,32 q 1,16 8,28 m 25,-43 q 17,9 41,13 m 7,27 Q 20,92 -3,95 M 68,67 80,80 M 80,35 Q 90,25 97,5"
           id="path44"
           inkscape:connector-curvature="0" />
      </g>
    </g>
  </defs>
  <circle
     r="100"
     id="circle46"
     cx="0"
     cy="0"
     sodipodi:cx="0"
     sodipodi:cy="0"
     sodipodi:rx="100"
     sodipodi:ry="100"
     style="fill:#ffffff;stroke:none"
     transform="matrix(1.064,0,0,1.064,29.4,-56)" />
  <circle
     r="100"
     id="circle48"
     cx="0"
     cy="0"
     sodipodi:cx="0"
     sodipodi:cy="0"
     sodipodi:rx="100"
     sodipodi:ry="100"
     style="fill:url(#shadow1);stroke:none"
     transform="matrix(1.064,0,0,1.064,29.4,-56)" />
  <g
     id="g50"
     transform="matrix(1.064,0,0,1.064,29.4,-56)">
    <animateTransform
       attributeName="transform"
       attributeType="XML"
       type="rotate"
       from="0"
       to="360"
       begin="0s"
       dur="3s"
       repeatCount="indefinite"
       id="animateTransform52" />
    <use
       xlink:href="#black_stuff"
       id="use54"
       style="stroke:#eeeeee;stroke-width:7"
       x="0"
       y="0"
       width="210"
       height="210" />
    <use
       xlink:href="#black_stuff"
       id="use56"
       style="stroke:#dddddd;stroke-width:4"
       x="0"
       y="0"
       width="210"
       height="210" />
    <use
       xlink:href="#black_stuff"
       id="use58"
       style="stroke:#999999;stroke-width:2"
       x="0"
       y="0"
       width="210"
       height="210" />
    <use
       xlink:href="#black_stuff"
       id="use60"
       style="stroke:#000000;stroke-width:1"
       x="0"
       y="0"
       width="210"
       height="210" />
  </g>
  <circle
     r="100"
     id="circle62"
     cx="0"
     cy="0"
     sodipodi:cx="0"
     sodipodi:cy="0"
     sodipodi:rx="100"
     sodipodi:ry="100"
     style="fill:url(#shadow2);stroke:none"
     transform="matrix(1.064,0,0,1.064,29.4,-56)" />
</svg>
