<svg xmlns:rdf="http://www.w3.org/1999/02/22-rdf-syntax-ns#" xmlns="http://www.w3.org/2000/svg" height="64" width="192" version="1.1" xmlns:cc="http://creativecommons.org/ns#" xmlns:xlink="http://www.w3.org/1999/xlink" viewBox="0 0 192 64" xmlns:dc="http://purl.org/dc/elements/1.1/">
 <metadata>
  <rdf:RDF>
   <cc:Work rdf:about="">
    <dc:format>image/svg+xml</dc:format>
    <dc:type rdf:resource="http://purl.org/dc/dcmitype/StillImage"/>
    <dc:title/>
   </cc:Work>
  </rdf:RDF>
 </metadata>
 <style type="text/css">.cesium-sceneModePicker-rectButton {
    cursor: pointer;
    -moz-user-select: none;
    -webkit-user-select: none;
    user-select: none;
}
.cesium-sceneModePicker-rectButton .cesium-sceneModePicker-buttonGlow {
    fill: #fff;
    stroke: none;
    filter: url(#sceneMode_blurred);
    display: none;
}
.cesium-sceneModePicker-rectButton:hover .cesium-sceneModePicker-buttonGlow {
    display: block;
}
.cesium-sceneModePicker-rectButton .cesium-sceneModePicker-buttonPath {
    fill: #edffff;
}
.cesium-sceneModePicker-rectButton .cesium-sceneModePicker-buttonMain {
    fill: url(#sceneMode_buttonNormal);
    stroke: #444;
    stroke-width: 1.2;
}
.cesium-sceneModePicker-rectButton:hover .cesium-sceneModePicker-buttonMain {
    fill: url(#sceneMode_buttonHovered);
    stroke: #AEF;
}
.cesium-sceneModePicker-rectButton:active .cesium-sceneModePicker-buttonMain {
    fill: #ABD6FF;
}
.cesium-sceneModePicker-buttonDisabled {
    -moz-user-select: none;
    -webkit-user-select: none;
    user-select: none;
}
.cesium-sceneModePicker-buttonDisabled .cesium-sceneModePicker-buttonMain {
    fill: url(#sceneMode_buttonDisabled);
    stroke: #555;
}
.cesium-sceneModePicker-buttonDisabled .cesium-sceneModePicker-buttonPath {
    fill: #818181;
}
.cesium-sceneModePicker-buttonDisabled .cesium-sceneModePicker-buttonGlow {
    display: none;
}
.cesium-sceneModePicker-buttonToggled .cesium-sceneModePicker-buttonGlow {
    display: block;
    fill: #2E2;
}
.cesium-sceneModePicker-buttonToggled .cesium-sceneModePicker-buttonMain {
    stroke: #2E2;
}
.cesium-sceneModePicker-buttonToggled:hover .cesium-sceneModePicker-buttonGlow {
    fill: #fff;
}
.cesium-sceneModePicker-buttonToggled:hover .cesium-sceneModePicker-buttonMain {
    stroke: #2E2;
}</style>
 <rect rx="7.7108" ry="7.7106" height="61.687" width="61.687" stroke="#444" y="1.1566" x="65.157" stroke-width="2.3133" class="cesium-sceneModePicker-buttonMain" fill="url(#linearGradient4382)"/>
 <rect rx="7.7108" ry="7.7106" height="61.687" width="61.687" stroke="#444" y="1.1566" x="1.1566" stroke-width="2.3133" class="cesium-sceneModePicker-buttonMain" fill="url(#linearGradient4392)"/>
 <rect rx="7.7108" ry="7.7106" height="61.687" width="61.687" stroke="#444" y="1.1566" x="129.16" stroke-width="2.3133" class="cesium-sceneModePicker-buttonMain" fill="url(#linearGradient4387)"/>
 <defs>
  <linearGradient id="sceneMode_buttonNormal" x2="0.5" x1="0.5" y2="1">
   <stop stop-color="#747577" offset="0"/>
   <stop stop-color="#394452" offset="0.12"/>
   <stop stop-color="#2D3237" offset="0.46"/>
   <stop stop-color="#353535" offset="0.81"/>
  </linearGradient>
  <linearGradient id="sceneMode_buttonHovered" x2="0.5" x1="0.5" y2="1">
   <stop stop-color="#89B4CF" offset="0"/>
   <stop stop-color="#5494C1" offset="0.12"/>
   <stop stop-color="#4C8EB8" offset="0.46"/>
   <stop stop-color="#5492B7" offset="0.81"/>
  </linearGradient>
  <linearGradient id="sceneMode_buttonDisabled" x2="0.5" x1="0.5" y2="1">
   <stop stop-color="#696969" offset="0"/>
   <stop stop-color="#333" offset="0.75"/>
  </linearGradient>
  <filter id="sceneMode_blurred" width="2" y="-0.5" x="-0.5" height="2" color-interpolation-filters="sRGB">
   <feGaussianBlur stdDeviation="4" in="SourceGraphic"/>
  </filter>
  <linearGradient id="linearGradient4382" y2="32.6" xlink:href="#sceneMode_buttonNormal" gradientUnits="userSpaceOnUse" x2="16" gradientTransform="matrix(1.9277105,0,0,1.9276762,65.157094,1.156629)" y1="-0.6" x1="16"/>
  <linearGradient id="linearGradient4387" y2="32.6" xlink:href="#sceneMode_buttonNormal" gradientUnits="userSpaceOnUse" x2="16" gradientTransform="matrix(1.9277105,0,0,1.9276762,129.15709,1.156629)" y1="-0.6" x1="16"/>
  <linearGradient id="linearGradient4392" y2="32.6" xlink:href="#sceneMode_buttonNormal" gradientUnits="userSpaceOnUse" x2="16" gradientTransform="matrix(1.9277105,0,0,1.9276762,1.1566413,1.156629)" y1="-0.6" x1="16"/>
 </defs>
 <g stroke="#edffff" stroke-width="2.5" stroke-miterlimit="4" fill="none">
  <path d="m54.581,31.918a22.909,22.901,0,1,0,-45.818,0,22.909,22.901,0,1,0,45.818,0z"/>
  <path d="m30.998,9.2293s13.358,2.3421,13.224,22.641c-0.13358,20.298-12.556,23.031-12.556,23.031"/>
  <path d="m30.998,9.2293s-13.47,2.4335-13.603,22.732c-0.13358,20.298,14.271,22.94,14.271,22.94"/>
  <path d="m30.998,9.2293,0.26715,22.422,0.40073,23.602"/>
  <path d="m15.332,16.386s0.38062,4.5541,15.681,4.5541c15.301,0,18.189-4.2939,17.922-4.1638"/>
  <path d="m9.3653,28.877s2.9247,4.8144,22.09,4.8144,23.18-4.5541,23.18-4.5541"/>
  <path d="m10.545,39.937s2.7152,5.0746,20.708,5.0746,21.792-4.8144,21.792-4.8144"/>
 </g>
 <g stroke="#edffff" stroke-width="2.5" stroke-miterlimit="4" fill="none">
  <path d="m135.44,31.8,50,0"/>
  <rect y="19.742" width="50.258" x="135.25" height="24.008"/>
  <path d="m160.38,19.876,0,23.12"/>
  <path d="m173.57,20.001,0,23.12"/>
  <path d="m147.19,19.736,0,23.12"/>
 </g>
 <g transform="translate(-2.625,-50.75)" stroke="#edffff" stroke-miterlimit="4" stroke-width="2.5" fill="none">
  <path d="m79.307,82.682,39.25,0"/>
  <path d="m83.871,70.624,29.758,0,10.25,24.008-50.258,0z"/>
  <path d="m98.75,70.758,0,23.12"/>
  <path d="m106.19,70.883,5.75,23.12"/>
  <path d="m92.061,70.618-6.5,23.12"/>
 </g>
</svg>
