<svg xmlns:rdf="http://www.w3.org/1999/02/22-rdf-syntax-ns#" xmlns="http://www.w3.org/2000/svg" class="testSVG" height="28" width="28" version="1.1" xmlns:cc="http://creativecommons.org/ns#" xmlns:xlink="http://www.w3.org/1999/xlink" viewBox="0 0 28 28" xmlns:dc="http://purl.org/dc/elements/1.1/">
 <path fill-rule="evenodd" fill="#cceded" transform="scale(0.75)" d="M29.772,26.433l-7.126-7.126c0.96-1.583,1.523-3.435,1.524-5.421C24.169,8.093,19.478,3.401,13.688,3.399C7.897,3.401,3.204,8.093,3.204,13.885c0,5.789,4.693,10.481,10.484,10.481c1.987,0,3.839-0.563,5.422-1.523l7.128,7.127L29.772,26.433zM7.203,13.885c0.006-3.582,2.903-6.478,6.484-6.486c3.579,0.008,6.478,2.904,6.484,6.486c-0.007,3.58-2.905,6.476-6.484,6.484C10.106,20.361,7.209,17.465,7.203,13.885z"/>
</svg>
