<?xml version="1.0" encoding="iso-8859-1"?>
<!-- Generator: Adobe Illustrator 18.1.1, SVG Export Plug-In . SVG Version: 6.00 Build 0)  -->
<svg version="1.1" xmlns="http://www.w3.org/2000/svg" xmlns:xlink="http://www.w3.org/1999/xlink" x="0px" y="0px"
	 viewBox="0 0 640 140" style="enable-background:new 0 0 640 140;" xml:space="preserve">
<g id="Background" style="display:none;">
	<g id="MonoChrome_Black_Logo" style="display:inline;">
	</g>
	
		<rect id="MonoChrome_White_Logo" y="330" style="display:inline;fill:#030303;stroke:#000000;stroke-miterlimit:10;" width="1680" height="320"/>
	<rect y="180" style="display:inline;fill:#939598;stroke:#000000;stroke-miterlimit:10;" width="640" height="140"/>
	<rect style="display:inline;fill:#939598;stroke:#000000;stroke-miterlimit:10;" width="640" height="140"/>
	
		<rect id="MonoChrome_Black_Icon" x="-340" y="660" style="display:inline;fill:#FFFFFF;stroke:#000000;stroke-miterlimit:10;" width="320" height="320"/>
	
		<rect id="MonoChrome_White_Icon" x="-340" y="330" style="display:inline;fill:#030303;stroke:#000000;stroke-miterlimit:10;" width="320" height="320"/>
	
		<rect id="Color_Icon_1_" x="-340" style="display:inline;fill:#939598;stroke:#000000;stroke-miterlimit:10;" width="320" height="320"/>
</g>
<g id="MonoChrome_Black_logo">
	<g id="Text_3_">
		<path style="fill:#030303;" d="M1671.399,782.214c-0.765,1.74-1.802,3.264-3.113,4.577c-1.311,1.311-2.835,2.348-4.572,3.11
			c-1.743,0.765-3.619,1.144-5.63,1.144c-2.016,0-3.887-0.38-5.63-1.144c-1.738-0.762-3.262-1.8-4.572-3.11
			c-1.316-1.313-2.348-2.837-3.113-4.577c-0.765-1.738-1.142-3.614-1.142-5.627s0.377-3.887,1.142-5.627
			c0.765-1.738,1.797-3.262,3.113-4.575c1.311-1.311,2.835-2.348,4.572-3.11c1.743-0.762,3.614-1.144,5.63-1.144
			c2.011,0,3.887,0.382,5.63,1.144c1.738,0.762,3.262,1.8,4.572,3.11c1.311,1.313,2.348,2.837,3.113,4.575
			c0.76,1.74,1.142,3.614,1.142,5.627S1672.158,780.476,1671.399,782.214z M1646.004,781.713c0.67,1.586,1.604,2.974,2.79,4.163
			c1.192,1.189,2.577,2.12,4.165,2.79c1.584,0.673,3.292,1.008,5.123,1.008c1.832,0,3.535-0.335,5.124-1.008
			c1.589-0.67,2.974-1.601,4.165-2.79c1.187-1.189,2.12-2.577,2.79-4.163c0.67-1.586,1.008-3.294,1.008-5.126
			c0-1.829-0.338-3.537-1.008-5.124c-0.67-1.586-1.604-2.974-2.79-4.163c-1.192-1.192-2.577-2.12-4.165-2.793
			c-1.589-0.67-3.292-1.005-5.124-1.005c-1.832,0-3.54,0.335-5.123,1.005c-1.589,0.673-2.974,1.601-4.165,2.793
			c-1.187,1.189-2.12,2.577-2.79,4.163c-0.67,1.586-1.008,3.294-1.008,5.124C1644.997,778.418,1645.334,780.126,1646.004,781.713z
			 M1662.84,775.765c-0.854,0.73-1.981,1.097-3.386,1.097h-0.73l5.397,7.685h-1.643l-5.307-7.685h-2.84v7.685h-1.281v-16.654h6.404
			c1.405,0,2.532,0.427,3.386,1.281c0.854,0.856,1.281,1.921,1.281,3.205C1664.12,773.903,1663.693,775.033,1662.84,775.765z
			 M1662.02,770.135c-0.551-0.64-1.375-0.961-2.472-0.961h-5.218v6.407h5.218c2.194,0,3.292-1.067,3.292-3.202
			C1662.84,771.525,1662.567,770.775,1662.02,770.135z"/>
		<path style="fill:#030303;" d="M1409.325,762.107l70.865,126.609l73.358-126.609h61.681v171.956h-41.385v-126.38l-71.342,126.38
			h-44.593l-71.153-126.38v126.38h-41.097V762.107H1409.325z"/>
		<path style="fill:#030303;" d="M1157.17,868.639c0,5.948,0.675,10.902,1.986,14.864c1.311,3.971,3.436,7.099,6.335,9.413
			c2.879,2.333,6.702,3.982,11.538,4.955c4.776,1.003,10.634,1.499,17.565,1.499h44.623c6.583,0,12.203-0.506,16.83-1.499
			c4.607-0.973,8.351-2.681,11.171-5.064c2.8-2.403,4.865-5.59,6.176-9.552c1.341-3.962,1.976-8.927,1.976-14.854V761.849h41.415
			v110.752c0,11.398-1.172,20.99-3.515,28.745c-2.294,7.764-6.176,14.05-11.618,18.826c-5.451,4.815-12.68,8.281-21.696,10.416
			c-8.996,2.135-20.107,3.217-33.313,3.217h-60.956c-12.74,0-23.463-1.142-32.231-3.336c-8.738-2.244-15.937-5.829-21.527-10.803
			c-5.64-4.945-9.691-11.29-12.143-19.055c-2.512-7.775-3.744-17.108-3.744-28.01V761.849h41.127V868.639L1157.17,868.639z"/>
		<path style="fill:#030303;" d="M1046.091,762.107h41.137v171.956h-41.137V762.107z"/>
		<path style="fill:#030303;" d="M953.282,762.107c21.636,0,37.662,3.952,48.048,11.885c10.416,7.924,15.609,20.147,15.609,36.679
			h-44.334c0-2.641-0.278-4.875-0.874-6.702c-0.586-1.807-1.638-3.297-3.207-4.458c-1.589-1.142-3.714-1.976-6.474-2.472
			c-2.711-0.487-6.226-0.755-10.505-0.755h-69.138c-5.779,0-10.585,1.033-14.348,3.108c-3.833,2.065-5.699,6.404-5.699,13.007
			c0,3.465,0.477,6.156,1.45,8.052c1.013,1.906,2.373,3.317,4.111,4.21c1.727,0.933,3.823,1.489,6.305,1.757
			c2.493,0.218,5.193,0.447,8.182,0.596l76.068,2.979c9.741,0.327,18.29,1.112,25.657,2.353c7.348,1.241,13.464,3.634,18.319,7.188
			c4.856,3.555,8.569,8.619,11.031,15.242c2.482,6.603,3.743,15.609,3.743,26.997c0,9.274-0.983,17.128-2.989,23.662
			c-1.986,6.524-5.253,11.945-9.8,16.224c-4.528,4.299-10.535,7.427-17.962,9.423c-7.427,1.986-16.522,2.979-27.246,2.979h-85.253
			c-10.893,0-20.077-0.993-27.504-2.979c-7.427-1.996-13.405-4.995-17.952-9.026c-4.558-4.051-7.765-9.135-9.661-15.262
			c-1.906-6.107-2.847-13.295-2.847-21.556h42.128c0,4.299,1.906,7.775,5.699,10.416c3.803,2.631,8.569,3.952,14.358,3.952h68.879
			c9.076,0,15.867-1.132,20.335-3.466c4.468-2.303,6.643-6.931,6.643-13.861c0-3.158-0.368-5.829-1.202-8.063
			c-0.834-2.234-2.264-4.12-4.329-5.709c-2.095-1.549-4.965-2.75-8.688-3.575c-3.714-0.824-8.539-1.41-14.487-1.747l-65.931-2.721
			c-11.726-0.496-21.586-1.32-29.569-2.472c-8.043-1.152-14.606-3.346-19.739-6.573c-5.084-3.207-8.768-7.933-11.002-14.11
			c-2.234-6.206-3.353-14.665-3.353-25.419c0-9.055,1.149-16.81,3.463-23.155c2.324-6.345,5.948-11.538,10.893-15.49
			c4.974-3.962,11.369-6.812,19.213-8.539c7.844-1.748,17.307-2.612,28.398-2.612h75.562V762.107z"/>
		<path style="fill:#030303;" d="M786.77,762.107v34.176h-134.79v31.734H782.54v34.435H651.979v37.155h134.79v34.454H610.833
			V762.107H786.77z"/>
		<path style="fill:#030303;" d="M420.428,931.084c-10.316-2.145-18.498-5.948-24.535-11.389
			c-6.017-5.471-10.257-12.858-12.729-22.172c-2.502-9.344-3.724-21.12-3.724-35.319V840.39c0-16.85,1.271-30.374,3.833-40.611
			c2.562-10.267,6.93-18.141,13.126-23.681c6.215-5.531,14.517-9.254,25.022-11.15c10.495-1.887,23.761-2.85,39.777-2.85h36.659
			c16.84,0,30.741,0.784,41.634,2.344c10.902,1.589,19.491,4.528,25.776,8.807c6.265,4.299,10.654,10.237,13.137,17.833
			c2.472,7.596,3.704,17.436,3.704,29.5h-42.617c0-3.326-0.447-6.245-1.371-8.797c-0.903-2.572-2.86-4.717-5.818-6.444
			c-2.969-1.748-7.348-3.019-13.126-3.843c-5.789-0.824-13.544-1.231-23.284-1.231h-31.704c-9.264,0-16.741,0.348-22.45,1.102
			c-5.699,0.745-10.059,2.443-13.127,5.074c-3.058,2.651-5.084,6.613-6.057,11.895c-0.993,5.302-1.499,12.481-1.499,21.577v18.806
			c0,8.44,0.506,15.142,1.499,20.077c0.973,4.965,2.969,8.817,5.948,11.518c2.959,2.741,7.169,4.518,12.63,5.342
			c5.451,0.824,12.62,1.241,21.547,1.241h33.7c9.095,0,16.463-0.258,22.172-0.755c5.699-0.487,10.108-1.569,13.246-3.227
			c3.147-1.628,5.272-3.961,6.325-6.921c1.082-2.989,1.639-6.871,1.639-11.667h42.597c0,11.409-0.953,20.951-2.849,28.626
			c-1.887,7.675-5.859,13.831-11.896,18.438c-6.017,4.657-14.675,7.954-25.895,9.949c-11.24,1.966-25.995,2.959-44.334,2.959
			h-37.662C443.841,934.311,430.755,933.219,420.428,931.084z"/>
	</g>
	<g id="Icon_7_">
		<path style="fill:#FFFFFF;" d="M218.219,762.316c-9.125,0-16.483-7.387-16.483-16.513c0-9.105,7.357-16.502,16.483-16.502
			c9.145,0,16.522,7.397,16.522,16.502C234.742,754.928,227.364,762.316,218.219,762.316z"/>
		<path style="fill:#FFFFFF;" d="M7.867,820.203c0-87.15,70.627-157.796,157.767-157.796c87.159,0,157.806,70.647,157.806,157.796
			S252.793,978,165.633,978C78.494,978,7.867,907.353,7.867,820.203z"/>
		<g>
			<path d="M310.651,796.512c-5.213,0-10.247,2.889-14.219,8.112l-49.696,65.772c-8.231,10.872-19.928,17.118-32.072,17.118
				c-0.029,0-0.059,0-0.089,0c-0.05,0-0.07,0-0.089,0c-12.164,0-23.85-6.245-32.072-17.118l-49.716-65.772
				c-3.942-5.223-8.986-8.112-14.219-8.112c-5.193,0-10.257,2.889-14.199,8.112l-49.716,65.772
				c-8.182,10.793-19.76,17.019-31.794,17.118C48.1,940.944,102.394,978,165.465,978c87.229,0,157.975-70.746,157.975-157.995
				c0-6.186-0.437-12.243-1.132-18.191C318.842,798.409,314.811,796.512,310.651,796.512z"/>
		</g>
		<path d="M165.465,662C78.206,662,7.46,732.736,7.46,820.005c0,13.881,1.966,27.265,5.332,40.114
			c2.988,2.293,6.305,3.634,9.701,3.634c5.233,0,10.287-2.879,14.229-8.082l49.716-65.762c8.211-10.902,19.908-17.158,32.042-17.158
			c12.144,0,23.83,6.236,32.072,17.158l47.82,63.24l2.065,2.522c3.932,5.193,8.966,8.033,14.129,8.082
			c5.163-0.049,10.187-2.889,14.129-8.082l2.095-2.522l47.82-63.24c8.211-10.902,19.908-17.158,32.042-17.158
			c1.926,0,3.853,0.208,5.749,0.526C296.482,708.817,236.439,662,165.465,662z M218.219,762.316
			c-9.125,0-16.483-7.387-16.483-16.513c0-9.105,7.357-16.502,16.483-16.502c9.145,0,16.522,7.397,16.522,16.502
			C234.742,754.928,227.364,762.316,218.219,762.316z"/>
	</g>
</g>
<g id="MonoChrome_While_Logo">
	<g id="Text_1_">
		<path style="fill:#F1F0F0;" d="M1672.633,450.214c-0.765,1.74-1.802,3.264-3.113,4.577c-1.311,1.311-2.835,2.348-4.572,3.11
			c-1.743,0.765-3.619,1.144-5.63,1.144c-2.016,0-3.887-0.38-5.63-1.144c-1.738-0.762-3.262-1.8-4.572-3.11
			c-1.316-1.313-2.348-2.837-3.113-4.577c-0.765-1.738-1.142-3.614-1.142-5.627c0-2.013,0.377-3.887,1.142-5.627
			c0.765-1.738,1.797-3.262,3.113-4.575c1.311-1.311,2.835-2.348,4.572-3.11c1.743-0.762,3.614-1.144,5.63-1.144
			c2.011,0,3.887,0.382,5.63,1.144c1.738,0.762,3.262,1.8,4.572,3.11c1.311,1.313,2.348,2.837,3.113,4.575
			c0.76,1.74,1.142,3.614,1.142,5.627C1673.775,446.6,1673.392,448.476,1672.633,450.214z M1647.239,449.712
			c0.67,1.586,1.604,2.974,2.79,4.163c1.192,1.189,2.577,2.12,4.165,2.79c1.584,0.673,3.292,1.008,5.124,1.008
			c1.832,0,3.535-0.335,5.124-1.008c1.589-0.67,2.974-1.601,4.165-2.79c1.187-1.189,2.12-2.577,2.79-4.163
			c0.67-1.586,1.008-3.294,1.008-5.126c0-1.829-0.338-3.537-1.008-5.124c-0.67-1.586-1.604-2.974-2.79-4.163
			c-1.192-1.192-2.577-2.12-4.165-2.793c-1.589-0.67-3.292-1.005-5.124-1.005c-1.832,0-3.54,0.335-5.124,1.005
			c-1.589,0.673-2.974,1.601-4.165,2.793c-1.187,1.189-2.12,2.577-2.79,4.163c-0.67,1.586-1.008,3.294-1.008,5.124
			C1646.231,446.418,1646.568,448.126,1647.239,449.712z M1664.074,443.765c-0.854,0.73-1.981,1.097-3.386,1.097h-0.73l5.397,7.685
			h-1.643l-5.307-7.685h-2.84v7.685h-1.281v-16.654h6.404c1.405,0,2.532,0.427,3.386,1.281c0.854,0.856,1.281,1.921,1.281,3.205
			C1665.355,441.903,1664.928,443.033,1664.074,443.765z M1663.255,438.135c-0.551-0.64-1.375-0.961-2.472-0.961h-5.218v6.407h5.218
			c2.194,0,3.292-1.067,3.292-3.202C1664.074,439.525,1663.801,438.775,1663.255,438.135z"/>
		<path style="fill:#F1F0F0;" d="M1410.559,429.859l70.865,126.609l73.358-126.609h61.681v171.956h-41.385v-126.38l-71.342,126.38
			h-44.593l-71.153-126.38v126.38h-41.097V429.859H1410.559z"/>
		<path style="fill:#F1F0F0;" d="M1158.404,536.39c0,5.948,0.675,10.902,1.986,14.864c1.311,3.971,3.436,7.1,6.335,9.413
			c2.879,2.333,6.702,3.982,11.538,4.955c4.776,1.003,10.634,1.499,17.565,1.499h44.623c6.583,0,12.203-0.506,16.83-1.499
			c4.607-0.973,8.351-2.681,11.171-5.064c2.8-2.403,4.865-5.59,6.176-9.552c1.341-3.962,1.976-8.927,1.976-14.854V429.601h41.415
			v110.752c0,11.398-1.172,20.991-3.515,28.745c-2.294,7.764-6.176,14.05-11.618,18.826c-5.451,4.815-12.679,8.281-21.696,10.416
			c-8.996,2.135-20.107,3.217-33.313,3.217h-60.956c-12.74,0-23.463-1.142-32.231-3.336c-8.738-2.244-15.937-5.829-21.527-10.803
			c-5.64-4.945-9.691-11.29-12.143-19.055c-2.512-7.775-3.744-17.108-3.744-28.01V429.601h41.127V536.39L1158.404,536.39z"/>
		<path style="fill:#F1F0F0;" d="M1047.325,429.859h41.137v171.956h-41.137V429.859z"/>
		<path style="fill:#F1F0F0;" d="M954.516,429.859c21.636,0,37.662,3.952,48.048,11.885c10.416,7.924,15.609,20.147,15.609,36.679
			h-44.334c0-2.641-0.278-4.875-0.874-6.702c-0.586-1.807-1.638-3.297-3.207-4.458c-1.589-1.142-3.714-1.976-6.474-2.472
			c-2.711-0.487-6.226-0.755-10.505-0.755h-69.138c-5.779,0-10.584,1.033-14.348,3.108c-3.833,2.065-5.699,6.404-5.699,13.007
			c0,3.465,0.477,6.156,1.45,8.052c1.013,1.906,2.373,3.317,4.111,4.21c1.727,0.933,3.823,1.489,6.305,1.757
			c2.493,0.218,5.193,0.447,8.182,0.596l76.068,2.979c9.741,0.327,18.29,1.112,25.657,2.353c7.348,1.241,13.464,3.634,18.319,7.189
			c4.856,3.555,8.569,8.619,11.031,15.242c2.482,6.603,3.743,15.609,3.743,26.998c0,9.274-0.983,17.128-2.989,23.662
			c-1.986,6.523-5.253,11.945-9.8,16.224c-4.528,4.299-10.535,7.427-17.962,9.423c-7.427,1.986-16.522,2.979-27.246,2.979h-85.253
			c-10.893,0-20.077-0.993-27.504-2.979c-7.427-1.996-13.404-4.995-17.952-9.026c-4.558-4.051-7.764-9.135-9.661-15.262
			c-1.906-6.107-2.847-13.295-2.847-21.556h42.128c0,4.299,1.906,7.775,5.699,10.416c3.803,2.631,8.569,3.952,14.358,3.952h68.879
			c9.076,0,15.867-1.132,20.335-3.466c4.468-2.303,6.643-6.931,6.643-13.861c0-3.158-0.368-5.829-1.202-8.063
			c-0.834-2.234-2.264-4.12-4.329-5.709c-2.095-1.549-4.965-2.75-8.688-3.575c-3.714-0.824-8.539-1.41-14.487-1.747l-65.931-2.721
			c-11.726-0.496-21.586-1.32-29.569-2.472c-8.043-1.152-14.606-3.346-19.739-6.573c-5.084-3.207-8.768-7.933-11.002-14.11
			c-2.234-6.206-3.353-14.665-3.353-25.419c0-9.055,1.149-16.81,3.463-23.155c2.324-6.345,5.948-11.538,10.893-15.49
			c4.975-3.962,11.369-6.812,19.213-8.539c7.844-1.748,17.307-2.612,28.398-2.612h75.562V429.859z"/>
		<path style="fill:#F1F0F0;" d="M788.004,429.859v34.176h-134.79v31.734h130.561v34.435H653.214v37.155h134.79v34.454H612.067
			V429.859H788.004z"/>
		<path style="fill:#F1F0F0;" d="M421.662,598.836c-10.316-2.145-18.498-5.948-24.535-11.389
			c-6.017-5.471-10.257-12.858-12.729-22.172c-2.502-9.344-3.724-21.12-3.724-35.319v-21.815c0-16.85,1.271-30.374,3.833-40.611
			c2.562-10.267,6.93-18.141,13.126-23.681c6.215-5.531,14.517-9.254,25.022-11.15c10.495-1.887,23.761-2.85,39.777-2.85h36.659
			c16.84,0,30.741,0.784,41.634,2.344c10.902,1.589,19.491,4.528,25.776,8.807c6.265,4.299,10.654,10.237,13.137,17.833
			c2.472,7.596,3.704,17.436,3.704,29.5h-42.616c0-3.326-0.447-6.245-1.371-8.797c-0.903-2.572-2.86-4.717-5.818-6.444
			c-2.969-1.748-7.348-3.019-13.126-3.843c-5.789-0.824-13.544-1.231-23.284-1.231h-31.704c-9.264,0-16.741,0.348-22.45,1.102
			c-5.699,0.745-10.059,2.443-13.127,5.074c-3.058,2.651-5.084,6.613-6.057,11.895c-0.993,5.302-1.499,12.481-1.499,21.577v18.806
			c0,8.44,0.506,15.142,1.499,20.077c0.973,4.965,2.969,8.817,5.948,11.518c2.959,2.741,7.169,4.518,12.63,5.342
			c5.451,0.824,12.62,1.242,21.547,1.242h33.7c9.095,0,16.463-0.258,22.172-0.755c5.699-0.487,10.108-1.569,13.246-3.227
			c3.147-1.628,5.272-3.961,6.325-6.921c1.082-2.989,1.638-6.871,1.638-11.667h42.597c0,11.409-0.953,20.951-2.849,28.626
			c-1.887,7.675-5.859,13.831-11.896,18.438c-6.017,4.657-14.675,7.954-25.895,9.949c-11.24,1.966-25.995,2.959-44.334,2.959
			h-37.662C445.076,602.062,431.989,600.97,421.662,598.836z"/>
	</g>
	<g id="Icon_1_">
		<path d="M219.453,430.316c-9.125,0-16.483-7.387-16.483-16.513c0-9.105,7.357-16.502,16.483-16.502
			c9.145,0,16.522,7.397,16.522,16.502C235.975,422.928,228.597,430.316,219.453,430.316z"/>
		<path d="M9.1,488.203c0-87.15,70.627-157.796,157.767-157.796c87.159,0,157.806,70.647,157.806,157.796S254.026,646,166.867,646
			C79.727,646,9.1,575.353,9.1,488.203z"/>
		<g>
			<path style="fill:#FFFFFF;" d="M311.884,464.512c-5.213,0-10.247,2.889-14.219,8.112l-49.696,65.772
				c-8.231,10.872-19.928,17.118-32.072,17.118c-0.029,0-0.059,0-0.089,0c-0.05,0-0.07,0-0.089,0
				c-12.164,0-23.85-6.245-32.072-17.118l-49.716-65.772c-3.942-5.223-8.986-8.112-14.219-8.112c-5.193,0-10.257,2.889-14.199,8.112
				l-49.716,65.772c-8.182,10.793-19.76,17.019-31.794,17.118C49.334,608.944,103.627,646,166.698,646
				c87.229,0,157.975-70.746,157.975-157.995c0-6.186-0.437-12.243-1.132-18.191C320.076,466.409,316.045,464.512,311.884,464.512z"
				/>
		</g>
		<path style="fill:#FFFFFF;" d="M166.698,330C79.439,330,8.693,400.736,8.693,488.005c0,13.881,1.966,27.265,5.332,40.114
			c2.988,2.293,6.305,3.634,9.701,3.634c5.233,0,10.287-2.879,14.229-8.082l49.716-65.762c8.211-10.902,19.908-17.158,32.042-17.158
			c12.144,0,23.83,6.236,32.072,17.158l47.82,63.24l2.065,2.522c3.932,5.193,8.966,8.033,14.129,8.082
			c5.163-0.049,10.187-2.889,14.129-8.082l2.095-2.522l47.82-63.24c8.211-10.902,19.908-17.158,32.042-17.158
			c1.926,0,3.853,0.208,5.749,0.526C297.715,376.817,237.672,330,166.698,330z M219.453,430.316
			c-9.125,0-16.483-7.387-16.483-16.513c0-9.105,7.357-16.502,16.483-16.502c9.145,0,16.522,7.397,16.522,16.502
			C235.975,422.928,228.597,430.316,219.453,430.316z"/>
	</g>
</g>
<g id="Light_Background_Logo">
	<g id="Text_4_">
		<path style="fill:#030303;" d="M635.721,235.651c-0.29,0.661-0.684,1.24-1.182,1.738c-0.498,0.498-1.076,0.892-1.736,1.181
			c-0.662,0.29-1.374,0.435-2.138,0.435c-0.765,0-1.476-0.144-2.138-0.435c-0.66-0.289-1.239-0.683-1.736-1.181
			c-0.5-0.499-0.892-1.077-1.182-1.738c-0.29-0.66-0.434-1.373-0.434-2.137s0.143-1.476,0.434-2.137
			c0.29-0.66,0.682-1.239,1.182-1.737c0.498-0.498,1.077-0.892,1.736-1.181c0.662-0.289,1.372-0.435,2.138-0.435
			c0.764,0,1.476,0.145,2.138,0.435c0.66,0.289,1.239,0.683,1.736,1.181c0.498,0.499,0.892,1.077,1.182,1.737
			c0.288,0.661,0.434,1.372,0.434,2.137S636.009,234.991,635.721,235.651z M626.078,235.46c0.255,0.602,0.609,1.129,1.06,1.581
			c0.452,0.452,0.978,0.805,1.582,1.06c0.601,0.255,1.25,0.383,1.946,0.383s1.342-0.127,1.946-0.383
			c0.603-0.255,1.129-0.608,1.582-1.06c0.451-0.452,0.805-0.978,1.06-1.581c0.255-0.602,0.383-1.251,0.383-1.947
			c0-0.695-0.128-1.343-0.383-1.946s-0.609-1.129-1.06-1.581c-0.452-0.452-0.978-0.805-1.582-1.06
			c-0.603-0.255-1.25-0.382-1.946-0.382s-1.344,0.127-1.946,0.382c-0.603,0.255-1.129,0.608-1.582,1.06
			c-0.451,0.452-0.805,0.978-1.06,1.581s-0.383,1.251-0.383,1.946C625.695,234.21,625.823,234.858,626.078,235.46z M632.471,233.202
			c-0.324,0.277-0.752,0.417-1.286,0.417h-0.277l2.049,2.918h-0.624l-2.015-2.918h-1.078v2.918h-0.486v-6.324h2.432
			c0.534,0,0.961,0.162,1.286,0.486c0.324,0.325,0.486,0.73,0.486,1.217C632.957,232.495,632.795,232.924,632.471,233.202z
			 M632.16,231.064c-0.209-0.243-0.522-0.365-0.939-0.365h-1.981v2.433h1.981c0.833,0,1.25-0.405,1.25-1.216
			C632.471,231.592,632.367,231.307,632.16,231.064z"/>
		<path style="fill:#030303;" d="M536.199,228.015l26.911,48.079l27.857-48.079h23.423v65.3h-15.716v-47.993l-27.092,47.993h-16.934
			l-27.02-47.993v47.993h-15.606v-65.3H536.199z"/>
		<path style="fill:#030303;" d="M440.444,268.47c0,2.259,0.256,4.14,0.754,5.645c0.498,1.508,1.305,2.696,2.406,3.574
			c1.093,0.886,2.545,1.512,4.381,1.882c1.814,0.381,4.038,0.569,6.67,0.569h16.945c2.5,0,4.634-0.192,6.391-0.569
			c1.75-0.37,3.171-1.018,4.242-1.923c1.063-0.913,1.848-2.123,2.345-3.627c0.509-1.504,0.75-3.39,0.75-5.641v-40.463h15.727v42.058
			c0,4.328-0.445,7.971-1.335,10.916c-0.871,2.949-2.345,5.335-4.412,7.149c-2.07,1.829-4.815,3.145-8.239,3.955
			c-3.416,0.811-7.636,1.222-12.65,1.222h-23.148c-4.838,0-8.91-0.434-12.24-1.267c-3.318-0.852-6.052-2.213-8.175-4.102
			c-2.142-1.878-3.68-4.287-4.611-7.236c-0.954-2.952-1.422-6.497-1.422-10.637v-42.058h15.618V268.47L440.444,268.47z"/>
		<path style="fill:#030303;" d="M398.262,228.015h15.622v65.3h-15.622V228.015z"/>
		<path style="fill:#030303;" d="M363.018,228.015c8.216,0,14.302,1.501,18.246,4.513c3.955,3.009,5.927,7.651,5.927,13.929h-16.836
			c0-1.003-0.106-1.851-0.332-2.545c-0.222-0.686-0.622-1.252-1.218-1.693c-0.603-0.434-1.41-0.75-2.459-0.939
			c-1.029-0.185-2.364-0.287-3.989-0.287h-26.255c-2.194,0-4.019,0.392-5.449,1.18c-1.455,0.784-2.164,2.432-2.164,4.94
			c0,1.316,0.181,2.338,0.551,3.058c0.385,0.724,0.901,1.259,1.561,1.599c0.656,0.354,1.452,0.565,2.394,0.667
			c0.947,0.083,1.972,0.17,3.107,0.226l28.887,1.131c3.699,0.124,6.946,0.422,9.743,0.894c2.79,0.471,5.113,1.38,6.957,2.73
			c1.844,1.35,3.254,3.273,4.189,5.788c0.943,2.507,1.421,5.927,1.421,10.252c0,3.522-0.373,6.504-1.135,8.985
			c-0.754,2.477-1.995,4.536-3.722,6.161c-1.719,1.633-4.001,2.821-6.821,3.578c-2.82,0.754-6.274,1.131-10.347,1.131h-32.374
			c-4.136,0-7.624-0.377-10.445-1.131c-2.82-0.758-5.09-1.897-6.817-3.427c-1.731-1.538-2.949-3.469-3.669-5.796
			c-0.724-2.319-1.081-5.049-1.081-8.186h15.998c0,1.633,0.724,2.952,2.164,3.955c1.444,0.999,3.254,1.501,5.452,1.501h26.157
			c3.446,0,6.025-0.43,7.722-1.316c1.697-0.875,2.523-2.632,2.523-5.264c0-1.199-0.14-2.213-0.456-3.062
			c-0.317-0.848-0.86-1.565-1.644-2.168c-0.796-0.588-1.885-1.044-3.299-1.358c-1.41-0.313-3.243-0.535-5.501-0.664l-25.037-1.033
			c-4.453-0.188-8.197-0.501-11.229-0.939c-3.054-0.437-5.547-1.271-7.496-2.496c-1.931-1.218-3.329-3.013-4.178-5.358
			c-0.848-2.357-1.273-5.569-1.273-9.653c0-3.439,0.436-6.384,1.315-8.793c0.882-2.41,2.259-4.382,4.136-5.882
			c1.889-1.504,4.317-2.587,7.296-3.243c2.979-0.664,6.572-0.992,10.784-0.992h28.694V228.015z"/>
		<path style="fill:#030303;" d="M299.786,228.015v12.978H248.6v12.051h49.58v13.077H248.6v14.11h51.186v13.084h-66.812v-65.3
			H299.786z"/>
		<path style="fill:#030303;" d="M160.669,292.184c-3.917-0.814-7.025-2.259-9.317-4.325c-2.285-2.077-3.895-4.883-4.834-8.42
			c-0.95-3.548-1.414-8.02-1.414-13.412v-8.284c0-6.399,0.483-11.534,1.456-15.422c0.973-3.899,2.632-6.889,4.985-8.993
			c2.36-2.1,5.513-3.514,9.502-4.234c3.985-0.716,9.023-1.082,15.105-1.082h13.921c6.395,0,11.674,0.298,15.81,0.89
			c4.14,0.603,7.402,1.719,9.788,3.344c2.379,1.633,4.046,3.888,4.989,6.772c0.939,2.884,1.406,6.621,1.406,11.202h-16.183
			c0-1.263-0.17-2.372-0.52-3.341c-0.343-0.977-1.086-1.791-2.21-2.447c-1.127-0.664-2.79-1.146-4.985-1.459
			c-2.198-0.313-5.143-0.468-8.842-0.468h-12.04c-3.518,0-6.357,0.132-8.525,0.419c-2.164,0.283-3.82,0.928-4.985,1.927
			c-1.161,1.007-1.931,2.511-2.3,4.517c-0.377,2.014-0.569,4.74-0.569,8.194v7.142c0,3.205,0.192,5.75,0.569,7.624
			c0.37,1.885,1.127,3.348,2.259,4.374c1.124,1.041,2.722,1.716,4.796,2.029c2.07,0.313,4.792,0.471,8.182,0.471h12.797
			c3.454,0,6.252-0.098,8.42-0.287c2.164-0.185,3.839-0.596,5.03-1.225c1.195-0.618,2.002-1.504,2.402-2.628
			c0.411-1.135,0.622-2.609,0.622-4.43h16.176c0,4.332-0.362,7.956-1.082,10.871c-0.716,2.915-2.225,5.252-4.517,7.002
			c-2.285,1.768-5.573,3.02-9.834,3.778c-4.268,0.747-9.872,1.124-16.836,1.124h-14.302
			C169.56,293.409,164.59,292.994,160.669,292.184z"/>
	</g>
	<g id="Icon_8_">
		<path style="fill:#FFFFFF;" d="M83.881,228.095c-3.465,0-6.259-2.805-6.259-6.271c0-3.458,2.794-6.267,6.259-6.267
			c3.473,0,6.274,2.809,6.274,6.267C90.155,225.289,87.353,228.095,83.881,228.095z"/>
		<path style="fill:#FFFFFF;" d="M4,250.077c0-33.095,26.82-59.923,59.911-59.923c33.098,0,59.926,26.828,59.926,59.923
			S97.01,310,63.911,310C30.82,310,4,283.172,4,250.077z"/>
		<g>
			<path style="fill:#5D883C;" d="M118.981,241.081c-1.98,0-3.891,1.097-5.4,3.081L94.71,269.138c-3.126,4.129-7.568,6.5-12.179,6.5
				c-0.011,0-0.023,0-0.034,0c-0.019,0-0.026,0-0.034,0c-4.619,0-9.057-2.372-12.179-6.5l-18.88-24.977
				c-1.497-1.983-3.412-3.081-5.4-3.081c-1.972,0-3.895,1.097-5.392,3.081l-18.879,24.977c-3.107,4.099-7.504,6.463-12.074,6.5
				C19.279,295.928,39.896,310,63.847,310c33.125,0,59.991-26.866,59.991-59.998c0-2.349-0.166-4.649-0.43-6.908
				C122.092,241.801,120.561,241.081,118.981,241.081z"/>
		</g>
		<path style="fill:#6CACDE;" d="M63.847,190c-33.136,0-60.002,26.862-60.002,60.002c0,5.271,0.747,10.354,2.025,15.233
			c1.135,0.871,2.394,1.38,3.684,1.38c1.987,0,3.906-1.093,5.403-3.069l18.88-24.973c3.118-4.14,7.56-6.516,12.168-6.516
			c4.612,0,9.049,2.368,12.179,6.516l18.159,24.015l0.784,0.958c1.493,1.972,3.405,3.05,5.366,3.069
			c1.961-0.019,3.869-1.097,5.366-3.069l0.796-0.958l18.159-24.015c3.118-4.14,7.56-6.516,12.168-6.516
			c0.731,0,1.463,0.079,2.183,0.2C113.601,207.779,90.8,190,63.847,190z M83.881,228.095c-3.465,0-6.259-2.805-6.259-6.271
			c0-3.458,2.794-6.267,6.259-6.267c3.473,0,6.274,2.809,6.274,6.267C90.155,225.289,87.353,228.095,83.881,228.095z"/>
	</g>
</g>
<g id="Dark_Background_Logo">
	<g id="Text_2_">
		<path style="fill:#F1F0F0;" d="M635.721,55.651c-0.29,0.661-0.684,1.24-1.182,1.738c-0.498,0.498-1.076,0.892-1.736,1.181
			c-0.662,0.29-1.374,0.435-2.138,0.435c-0.765,0-1.476-0.144-2.138-0.435c-0.66-0.289-1.239-0.683-1.736-1.181
			c-0.5-0.499-0.892-1.077-1.182-1.738c-0.29-0.66-0.434-1.373-0.434-2.137c0-0.764,0.143-1.476,0.434-2.137
			c0.29-0.66,0.682-1.239,1.182-1.737c0.498-0.498,1.077-0.892,1.736-1.181c0.662-0.289,1.372-0.435,2.138-0.435
			c0.764,0,1.476,0.145,2.138,0.435c0.66,0.289,1.239,0.683,1.736,1.181c0.498,0.499,0.892,1.077,1.182,1.737
			c0.288,0.661,0.434,1.373,0.434,2.137C636.155,54.278,636.01,54.991,635.721,55.651z M626.078,55.46
			c0.255,0.602,0.609,1.129,1.06,1.581c0.453,0.452,0.979,0.805,1.582,1.06c0.601,0.255,1.25,0.383,1.946,0.383
			s1.342-0.127,1.946-0.383c0.603-0.255,1.129-0.608,1.582-1.06c0.451-0.452,0.805-0.978,1.06-1.581
			c0.255-0.602,0.383-1.251,0.383-1.947c0-0.695-0.128-1.343-0.383-1.946c-0.255-0.602-0.609-1.129-1.06-1.581
			c-0.452-0.452-0.978-0.805-1.582-1.06c-0.603-0.255-1.25-0.382-1.946-0.382s-1.344,0.127-1.946,0.382
			c-0.603,0.255-1.129,0.608-1.582,1.06c-0.451,0.452-0.805,0.978-1.06,1.581c-0.255,0.602-0.383,1.251-0.383,1.946
			C625.695,54.21,625.823,54.858,626.078,55.46z M632.471,53.202c-0.324,0.277-0.752,0.417-1.286,0.417h-0.277l2.049,2.918h-0.624
			l-2.015-2.918h-1.078v2.918h-0.486v-6.324h2.432c0.534,0,0.961,0.162,1.286,0.486c0.324,0.325,0.486,0.73,0.486,1.217
			C632.957,52.495,632.795,52.924,632.471,53.202z M632.16,51.064c-0.209-0.243-0.522-0.365-0.939-0.365h-1.981v2.433h1.981
			c0.833,0,1.25-0.405,1.25-1.216C632.471,51.592,632.367,51.307,632.16,51.064z"/>
		<path style="fill:#F1F0F0;" d="M536.199,47.921L563.11,96l27.857-48.079h23.423v65.3h-15.716V65.228l-27.092,47.993h-16.934
			l-27.02-47.993v47.993h-15.606v-65.3H536.199z"/>
		<path style="fill:#F1F0F0;" d="M440.445,88.376c0,2.259,0.256,4.14,0.754,5.645c0.498,1.508,1.305,2.696,2.406,3.574
			c1.093,0.886,2.545,1.512,4.381,1.882c1.814,0.381,4.038,0.569,6.67,0.569h16.945c2.5,0,4.634-0.192,6.391-0.569
			c1.75-0.37,3.171-1.018,4.242-1.923c1.063-0.913,1.848-2.123,2.345-3.627c0.509-1.504,0.75-3.39,0.75-5.641V47.823h15.727v42.058
			c0,4.329-0.445,7.971-1.335,10.916c-0.871,2.949-2.345,5.335-4.412,7.149c-2.07,1.829-4.815,3.145-8.239,3.955
			c-3.416,0.811-7.636,1.222-12.65,1.222h-23.148c-4.838,0-8.91-0.434-12.24-1.267c-3.318-0.852-6.052-2.213-8.175-4.102
			c-2.142-1.878-3.68-4.287-4.611-7.236c-0.954-2.952-1.422-6.497-1.422-10.637V47.823h15.618V88.376L440.445,88.376z"/>
		<path style="fill:#F1F0F0;" d="M398.263,47.921h15.622v65.3h-15.622V47.921z"/>
		<path style="fill:#F1F0F0;" d="M363.019,47.921c8.216,0,14.302,1.501,18.246,4.513c3.955,3.009,5.927,7.651,5.927,13.929h-16.836
			c0-1.003-0.106-1.851-0.332-2.545c-0.222-0.686-0.622-1.252-1.218-1.693c-0.603-0.434-1.41-0.75-2.459-0.939
			c-1.029-0.185-2.364-0.287-3.989-0.287h-26.255c-2.194,0-4.019,0.392-5.449,1.18c-1.455,0.784-2.164,2.432-2.164,4.94
			c0,1.316,0.181,2.338,0.551,3.058c0.385,0.724,0.901,1.259,1.561,1.599c0.656,0.354,1.452,0.565,2.394,0.667
			c0.947,0.083,1.972,0.17,3.107,0.226l28.887,1.131c3.699,0.124,6.946,0.422,9.743,0.894c2.79,0.471,5.113,1.38,6.957,2.73
			c1.844,1.35,3.254,3.273,4.189,5.788c0.943,2.507,1.421,5.927,1.421,10.252c0,3.522-0.373,6.504-1.135,8.985
			c-0.754,2.477-1.995,4.536-3.722,6.161c-1.719,1.633-4.001,2.821-6.821,3.578c-2.82,0.754-6.274,1.131-10.347,1.131h-32.374
			c-4.136,0-7.624-0.377-10.445-1.131c-2.82-0.758-5.09-1.897-6.817-3.428c-1.731-1.538-2.949-3.469-3.669-5.796
			c-0.724-2.319-1.081-5.049-1.081-8.186h15.998c0,1.633,0.724,2.952,2.164,3.955c1.444,0.999,3.254,1.501,5.452,1.501h26.157
			c3.446,0,6.025-0.43,7.722-1.316c1.697-0.875,2.523-2.632,2.523-5.264c0-1.199-0.14-2.213-0.456-3.062
			c-0.317-0.848-0.86-1.565-1.644-2.168c-0.796-0.588-1.885-1.044-3.299-1.358c-1.41-0.313-3.243-0.535-5.501-0.664l-25.037-1.033
			c-4.453-0.188-8.197-0.501-11.229-0.939c-3.054-0.437-5.547-1.271-7.496-2.496c-1.931-1.218-3.329-3.013-4.178-5.358
			c-0.848-2.357-1.273-5.569-1.273-9.653c0-3.439,0.436-6.384,1.315-8.793c0.882-2.41,2.259-4.382,4.136-5.882
			c1.889-1.504,4.317-2.587,7.296-3.243c2.979-0.664,6.572-0.992,10.784-0.992h28.694V47.921z"/>
		<path style="fill:#F1F0F0;" d="M299.786,47.921v12.978H248.6V72.95h49.58v13.077H248.6v14.11h51.186v13.084h-66.812v-65.3H299.786
			z"/>
		<path style="fill:#F1F0F0;" d="M160.669,112.09c-3.917-0.815-7.025-2.259-9.317-4.325c-2.285-2.077-3.895-4.883-4.834-8.42
			c-0.95-3.548-1.414-8.02-1.414-13.412v-8.284c0-6.399,0.483-11.534,1.456-15.422c0.973-3.899,2.632-6.889,4.985-8.993
			c2.36-2.1,5.513-3.514,9.502-4.234c3.985-0.716,9.023-1.082,15.105-1.082h13.921c6.395,0,11.674,0.298,15.81,0.89
			c4.14,0.603,7.402,1.719,9.788,3.344c2.379,1.633,4.046,3.888,4.989,6.772c0.939,2.884,1.406,6.621,1.406,11.202h-16.183
			c0-1.263-0.17-2.372-0.52-3.341c-0.343-0.977-1.086-1.791-2.21-2.447c-1.127-0.664-2.79-1.146-4.985-1.459
			c-2.198-0.313-5.143-0.468-8.842-0.468h-12.04c-3.518,0-6.357,0.132-8.525,0.419c-2.164,0.283-3.82,0.928-4.985,1.927
			c-1.161,1.007-1.931,2.511-2.3,4.517c-0.377,2.014-0.569,4.74-0.569,8.194v7.142c0,3.205,0.192,5.75,0.569,7.624
			c0.37,1.885,1.127,3.348,2.259,4.374c1.124,1.041,2.722,1.716,4.796,2.029c2.07,0.313,4.792,0.471,8.182,0.471h12.797
			c3.454,0,6.252-0.098,8.42-0.287c2.164-0.185,3.839-0.596,5.03-1.226c1.195-0.618,2.002-1.504,2.402-2.628
			c0.411-1.135,0.622-2.609,0.622-4.43h16.176c0,4.332-0.362,7.956-1.082,10.871c-0.716,2.915-2.225,5.252-4.517,7.002
			c-2.285,1.768-5.573,3.02-9.834,3.778c-4.268,0.747-9.872,1.124-16.836,1.124H175.59C169.56,113.315,164.591,112.9,160.669,112.09
			z"/>
	</g>
	<g id="Icon_6_">
		<path style="fill:#FFFFFF;" d="M83.881,48.095c-3.465,0-6.259-2.805-6.259-6.271c0-3.458,2.794-6.267,6.259-6.267
			c3.473,0,6.274,2.809,6.274,6.267C90.155,45.289,87.353,48.095,83.881,48.095z"/>
		<path style="fill:#FFFFFF;" d="M4,70.077c0-33.095,26.82-59.923,59.911-59.923c33.098,0,59.926,26.828,59.926,59.923
			S97.01,130,63.911,130C30.82,130,4,103.172,4,70.077z"/>
		<g>
			<path style="fill:#5D883C;" d="M118.981,61.081c-1.98,0-3.891,1.097-5.4,3.081L94.71,89.138c-3.126,4.129-7.568,6.5-12.179,6.5
				c-0.011,0-0.023,0-0.034,0c-0.019,0-0.026,0-0.034,0c-4.619,0-9.057-2.372-12.179-6.5l-18.88-24.977
				c-1.497-1.983-3.412-3.081-5.4-3.081c-1.972,0-3.895,1.097-5.392,3.081L21.733,89.138c-3.107,4.099-7.504,6.463-12.074,6.5
				C19.278,115.928,39.896,130,63.847,130c33.125,0,59.991-26.866,59.991-59.998c0-2.349-0.166-4.649-0.43-6.908
				C122.092,61.801,120.561,61.081,118.981,61.081z"/>
		</g>
		<path style="fill:#6CACDE;" d="M63.847,10C30.711,10,3.845,36.862,3.845,70.002c0,5.271,0.747,10.354,2.025,15.233
			c1.135,0.871,2.394,1.38,3.684,1.38c1.987,0,3.906-1.093,5.403-3.069l18.88-24.973c3.118-4.14,7.56-6.516,12.168-6.516
			c4.612,0,9.049,2.368,12.179,6.516l18.159,24.015l0.784,0.958c1.493,1.972,3.405,3.05,5.366,3.069
			c1.961-0.019,3.869-1.097,5.366-3.069l0.796-0.958l18.159-24.015c3.118-4.14,7.56-6.516,12.168-6.516
			c0.731,0,1.463,0.079,2.183,0.2C113.601,27.779,90.799,10,63.847,10z M83.881,48.095c-3.465,0-6.259-2.805-6.259-6.271
			c0-3.458,2.794-6.267,6.259-6.267c3.473,0,6.274,2.809,6.274,6.267C90.155,45.289,87.353,48.095,83.881,48.095z"/>
	</g>
</g>
<g id="MonoChrome_Black_Icon_1_">
	<g id="Icon_5_">
		<path style="fill:#FFFFFF;" d="M-127.227,762.316c-9.126,0-16.484-7.387-16.484-16.513c0-9.105,7.358-16.502,16.484-16.502
			c9.145,0,16.523,7.397,16.523,16.502C-110.704,754.928-118.082,762.316-127.227,762.316z"/>
		<path style="fill:#FFFFFF;" d="M-337.593,820.203c0-87.15,70.632-157.796,157.777-157.796C-92.651,662.407-22,733.054-22,820.203
			S-92.651,978-179.816,978C-266.961,978-337.593,907.353-337.593,820.203z"/>
		<g>
			<path d="M-34.79,796.512c-5.213,0-10.248,2.889-14.22,8.112l-49.699,65.772c-8.232,10.872-19.929,17.118-32.074,17.118
				c-0.029,0-0.059,0-0.089,0c-0.05,0-0.07,0-0.089,0c-12.164,0-23.852-6.245-32.074-17.118l-49.719-65.772
				c-3.942-5.223-8.987-8.112-14.22-8.112c-5.193,0-10.258,2.889-14.2,8.112l-49.719,65.772
				c-8.182,10.793-19.761,17.019-31.796,17.118C-297.356,940.944-243.06,978-179.985,978C-92.751,978-22,907.254-22,820.005
				c0-6.186-0.437-12.243-1.132-18.191C-26.598,798.409-30.629,796.512-34.79,796.512z"/>
		</g>
		<path d="M-179.985,662C-267.249,662-338,732.736-338,820.005c0,13.881,1.966,27.265,5.333,40.114
			c2.988,2.293,6.305,3.634,9.702,3.634c5.233,0,10.287-2.879,14.229-8.082l49.719-65.762c8.212-10.902,19.909-17.158,32.044-17.158
			c12.144,0,23.832,6.236,32.074,17.158l47.823,63.24l2.065,2.522c3.932,5.193,8.967,8.033,14.13,8.082
			c5.163-0.049,10.188-2.889,14.13-8.082l2.095-2.522l47.823-63.24c8.212-10.902,19.909-17.158,32.044-17.158
			c1.926,0,3.853,0.208,5.75,0.526C-48.96,708.817-109.006,662-179.985,662z M-127.227,762.316c-9.126,0-16.484-7.387-16.484-16.513
			c0-9.105,7.358-16.502,16.484-16.502c9.145,0,16.523,7.397,16.523,16.502C-110.704,754.928-118.082,762.316-127.227,762.316z"/>
	</g>
</g>
<g id="MonoChrome_White_Icon_1_">
	<g id="Icon_4_">
		<path style="fill:#FFFFFF;" d="M-127.227,432.316c-9.126,0-16.484-7.387-16.484-16.513c0-9.105,7.358-16.502,16.484-16.502
			c9.145,0,16.523,7.397,16.523,16.502C-110.704,424.928-118.082,432.316-127.227,432.316z"/>
		<path style="fill:#030303;" d="M-337.593,490.203c0-87.15,70.632-157.796,157.777-157.796C-92.651,332.407-22,403.054-22,490.203
			S-92.651,648-179.816,648C-266.961,648-337.593,577.353-337.593,490.203z"/>
		<g>
			<path style="fill:#FFFFFF;" d="M-34.79,466.512c-5.213,0-10.248,2.889-14.22,8.112l-49.699,65.772
				c-8.232,10.872-19.929,17.118-32.074,17.118c-0.029,0-0.059,0-0.089,0c-0.05,0-0.07,0-0.089,0
				c-12.164,0-23.852-6.245-32.074-17.118l-49.719-65.772c-3.942-5.223-8.987-8.112-14.22-8.112c-5.193,0-10.258,2.889-14.2,8.112
				l-49.719,65.772c-8.182,10.793-19.761,17.019-31.796,17.118C-297.357,610.944-243.06,648-179.985,648
				C-92.751,648-22,577.254-22,490.005c0-6.186-0.437-12.243-1.132-18.191C-26.598,468.409-30.629,466.512-34.79,466.512z"/>
		</g>
		<path style="fill:#FFFFFF;" d="M-179.985,332C-267.249,332-338,402.736-338,490.005c0,13.881,1.966,27.265,5.333,40.114
			c2.988,2.293,6.305,3.634,9.702,3.634c5.233,0,10.287-2.879,14.229-8.082l49.719-65.762c8.212-10.902,19.909-17.158,32.044-17.158
			c12.144,0,23.832,6.236,32.074,17.158l47.823,63.24l2.065,2.522c3.932,5.193,8.967,8.033,14.13,8.082
			c5.163-0.049,10.188-2.889,14.13-8.082l2.095-2.522l47.823-63.24c8.212-10.902,19.909-17.158,32.044-17.158
			c1.926,0,3.853,0.208,5.75,0.526C-48.96,378.817-109.006,332-179.985,332z M-127.227,432.316c-9.126,0-16.484-7.387-16.484-16.513
			c0-9.105,7.358-16.502,16.484-16.502c9.145,0,16.523,7.397,16.523,16.502C-110.704,424.928-118.082,432.316-127.227,432.316z"/>
	</g>
</g>
<g id="Icon_3_">
	<g id="Icon_2_">
		<path style="fill:#FFFFFF;" d="M-127.227,102.316c-9.126,0-16.484-7.387-16.484-16.513c0-9.105,7.358-16.502,16.484-16.502
			c9.145,0,16.523,7.397,16.523,16.502C-110.704,94.928-118.082,102.316-127.227,102.316z"/>
		<path style="fill:#FFFFFF;" d="M-337.593,160.203c0-87.15,70.632-157.796,157.777-157.796C-92.651,2.407-22,73.054-22,160.203
			S-92.651,318-179.816,318C-266.961,318-337.593,247.353-337.593,160.203z"/>
		<g>
			<path style="fill:#5D883C;" d="M-34.79,136.512c-5.213,0-10.248,2.889-14.22,8.112l-49.699,65.772
				c-8.232,10.872-19.929,17.118-32.074,17.118c-0.029,0-0.059,0-0.089,0c-0.05,0-0.07,0-0.089,0
				c-12.164,0-23.852-6.245-32.074-17.118l-49.719-65.772c-3.942-5.223-8.987-8.112-14.22-8.112c-5.193,0-10.258,2.889-14.2,8.112
				l-49.719,65.772c-8.182,10.793-19.761,17.019-31.796,17.118C-297.357,280.944-243.06,318-179.985,318
				C-92.751,318-22,247.254-22,160.005c0-6.186-0.437-12.243-1.132-18.191C-26.598,138.409-30.629,136.512-34.79,136.512z"/>
		</g>
		<path style="fill:#6CACDE;" d="M-179.985,2C-267.249,2-338,72.736-338,160.005c0,13.881,1.966,27.265,5.333,40.114
			c2.988,2.293,6.305,3.634,9.702,3.634c5.233,0,10.287-2.879,14.229-8.082l49.719-65.762c8.212-10.902,19.909-17.158,32.044-17.158
			c12.144,0,23.832,6.236,32.074,17.158l47.823,63.24l2.065,2.522c3.932,5.193,8.967,8.033,14.13,8.082
			c5.163-0.049,10.188-2.889,14.13-8.082l2.095-2.522l47.823-63.24c8.212-10.902,19.909-17.158,32.044-17.158
			c1.926,0,3.853,0.208,5.75,0.526C-48.96,48.817-109.006,2-179.985,2z M-127.227,102.316c-9.126,0-16.484-7.387-16.484-16.513
			c0-9.105,7.358-16.502,16.484-16.502c9.145,0,16.523,7.397,16.523,16.502C-110.704,94.928-118.082,102.316-127.227,102.316z"/>
	</g>
</g>
</svg>
