{
  "accessors": [
    {
      "bufferView": 0,
      "byteOffset": 0,
      "componentType": 5123,
      "count": 36,
      "type": "SCALAR",
      "name": "accessor_21"
    },
    {
      "bufferView": 1,
      "byteOffset": 0,
      "componentType": 5126,
      "count": 24,
      "max": [
        0.5,
        0.5,
        0.5
      ],
      "min": [
        -0.5,
        -0.5,
        -0.5
      ],
      "type": "VEC3",
      "name": "accessor_23"
    },
    {
      "bufferView": 1,
      "byteOffset": 288,
      "componentType": 5126,
      "count": 24,
      "max": [
        1,
        1,
        1
      ],
      "min": [
        -1,
        -1,
        -1
      ],
      "type": "VEC3",
      "name": "accessor_25"
    }
  ],
  "asset": {
    "generator": "collada2gltf@027f74366341d569dea42e9a68b7104cc3892054",
    "version": "2.0"
  },
  "bufferViews": [
    {
      "buffer": 0,
      "byteLength": 72,
      "byteOffset": 0,
      "target": 34963,
      "name": "bufferView_29"
    },
    {
      "buffer": 0,
      "byteLength": 576,
      "byteOffset": 72,
      "target": 34962,
      "name": "bufferView_30",
      "byteStride": 12
    },
    {
      "buffer": 0,
      "byteOffset": 648,
      "byteLength": 473
    },
    {
      "buffer": 0,
      "byteOffset": 1124,
      "byteLength": 355
    }
  ],
  "buffers": [
    {
      "name": "Box",
      "byteLength": 1480,
      "uri": "data:application/octet-stream;base64,"
    }
  ],
  "materials": [
    {
      "name": "Red",
      "extensions": {
        "KHR_techniques_webgl": {
          "technique": 0,
          "values": {
            "u_diffuse": [
              0.8,
              0,
              0,
              1
            ],
            "u_shininess": 256,
            "u_specular": [
              0.2,
              0.2,
              0.2,
              1
            ]
          }
        }
      },
      "emissiveFactor": [
        0,
        0,
        0
      ],
      "alphaMode": "OPAQUE",
      "doubleSided": false
    }
  ],
  "meshes": [
    {
      "name": "Mesh",
      "primitives": [
        {
          "attributes": {
            "NORMAL": 2,
            "POSITION": 1
          },
          "indices": 0,
          "material": 0,
          "mode": 4
        }
      ]
    }
  ],
  "nodes": [
    {
      "name": "Mesh",
      "mesh": 0
    },
    {
      "children": [
        0
      ],
      "matrix": [
        1,
        0,
        0,
        0,
        0,
        0,
        -1,
        0,
        0,
        1,
        0,
        0,
        0,
        0,
        0,
        1
      ],
      "name": "Y_UP_Transform"
    }
  ],
  "scene": 0,
  "scenes": [
    {
      "nodes": [
        1
      ],
      "name": "defaultScene"
    }
  ],
  "extensionsRequired": [
    "KHR_techniques_webgl"
  ],
  "extensions": {
    "KHR_techniques_webgl": {
      "programs": [
        {
          "name": "program_0",
          "fragmentShader": 0,
          "vertexShader": 1
        }
      ],
      "shaders": [
        {
          "type": 35632,
          "name": "Box0FS",
          "bufferView": 2
        },
        {
          "type": 35633,
          "name": "Box0VS",
          "bufferView": 3
        }
      ],
      "techniques": [
        {
          "name": "technique0",
          "program": 0,
          "attributes": {
            "a_normal": {
              "semantic": "NORMAL"
            },
            "a_position": {
              "semantic": "POSITION"
            }
          },
          "uniforms": {
            "u_diffuse": {
              "type": 35666
            },
            "u_modelViewMatrix": {
              "type": 35676,
              "semantic": "MODELVIEW"
            },
            "u_normalMatrix": {
              "type": 35675,
              "semantic": "MODELVIEWINVERSETRANSPOSE"
            },
            "u_projectionMatrix": {
              "type": 35676,
              "semantic": "PROJECTION"
            },
            "u_shininess": {
              "type": 5126
            },
            "u_specular": {
              "type": 35666
            }
          }
        }
      ]
    }
  },
  "extensionsUsed": [
    "KHR_techniques_webgl"
  ]
}
