{
    "asset": {
        "generator": "COLLADA2GLTF",
        "version": "2.0"
    },
    "scene": 0,
    "scenes": [
        {
            "nodes": [
                0
            ]
        }
    ],
    "nodes": [
        {
            "name": "Root",
            "children": [
                1
            ],
            "matrix": [
                1,
                0,
                0,
                0,
                0,
                0,
                -1,
                0,
                0,
                1,
                0,
                0,
                0,
                0,
                0,
                1
            ],
            "extensions": {
                "AGI_articulations": {
                    "articulationName": "SampleArticulation"
                }
            }
        },
        {
            "name": "Mesh",
            "mesh": 0
        }
    ],
    "meshes": [
        {
            "primitives": [
                {
                    "attributes": {
                        "NORMAL": 1,
                        "POSITION": 2
                    },
                    "indices": 0,
                    "mode": 4,
                    "material": 0
                }
            ],
            "name": "Mesh"
        }
    ],
    "accessors": [
        {
            "bufferView": 0,
            "byteOffset": 0,
            "componentType": 5123,
            "count": 36,
            "max": [
                23
            ],
            "min": [
                0
            ],
            "type": "SCALAR"
        },
        {
            "bufferView": 1,
            "byteOffset": 0,
            "componentType": 5126,
            "count": 24,
            "max": [
                1,
                1,
                1
            ],
            "min": [
                -1,
                -1,
                -1
            ],
            "type": "VEC3"
        },
        {
            "bufferView": 1,
            "byteOffset": 288,
            "componentType": 5126,
            "count": 24,
            "max": [
                0.5,
                0.5,
                0.5
            ],
            "min": [
                -0.5,
                -0.5,
                -0.5
            ],
            "type": "VEC3"
        }
    ],
    "materials": [
        {
            "pbrMetallicRoughness": {
                "baseColorFactor": [
                    0.800000011920929,
                    0,
                    0,
                    1
                ],
                "metallicFactor": 0,
                "roughnessFactor": 1
            },
            "name": "Red",
            "emissiveFactor": [
                0,
                0,
                0
            ],
            "alphaMode": "OPAQUE",
            "doubleSided": false
        }
    ],
    "bufferViews": [
        {
            "buffer": 0,
            "byteOffset": 0,
            "byteLength": 72,
            "target": 34963
        },
        {
            "buffer": 0,
            "byteOffset": 72,
            "byteLength": 576,
            "byteStride": 12,
            "target": 34962
        }
    ],
    "buffers": [
        {
            "name": "Box0",
            "byteLength": 648,
            "uri": "data:application/octet-stream;base64,"
        }
    ],
    "extensionsUsed": [
        "AGI_articulations"
    ],
    "extensions": {
        "AGI_articulations": {
            "articulations": [
                {
                    "name": "SampleArticulation",
                    "stages": [
                        {
                            "name": "MoveX",
                            "type": "xTranslate",
                            "minimumValue": -1000.0,
                            "maximumValue": 1000.0,
                            "initialValue": 0.0
                        },
                        {
                            "name": "MoveY",
                            "type": "yTranslate",
                            "minimumValue": -1000.0,
                            "maximumValue": 1000.0,
                            "initialValue": 0.0
                        },
                        {
                            "name": "MoveZ",
                            "type": "zTranslate",
                            "minimumValue": -1000.0,
                            "maximumValue": 1000.0,
                            "initialValue": 0.0
                        },
                        {
                            "name": "Yaw",
                            "type": "yRotate",
                            "minimumValue": -360.0,
                            "maximumValue": 360.0,
                            "initialValue": 0.0
                        },
                        {
                            "name": "Pitch",
                            "type": "xRotate",
                            "minimumValue": -360.0,
                            "maximumValue": 360.0,
                            "initialValue": 0.0
                        },
                        {
                            "name": "Roll",
                            "type": "zRotate",
                            "minimumValue": -360.0,
                            "maximumValue": 360.0,
                            "initialValue": 0.0
                        },
                        {
                            "name": "Size",
                            "type": "uniformScale",
                            "minimumValue": 0.0,
                            "maximumValue": 1.0,
                            "initialValue": 1.0
                        },
                        {
                            "name": "SizeX",
                            "type": "xScale",
                            "minimumValue": 0.0,
                            "maximumValue": 1.0,
                            "initialValue": 1.0
                        },
                        {
                            "name": "SizeY",
                            "type": "yScale",
                            "minimumValue": 0.0,
                            "maximumValue": 1.0,
                            "initialValue": 1.0
                        },
                        {
                            "name": "SizeZ",
                            "type": "zScale",
                            "minimumValue": 0.0,
                            "maximumValue": 1.0,
                            "initialValue": 1.0
                        }
                    ]
                }
            ]
        }
    }
}
