{
  "accessors": [
    {
      "bufferView": 0,
      "byteOffset": 0,
      "componentType": 5123,
      "count": 36,
      "type": "SCALAR"
    },
    {
      "bufferView": 1,
      "byteOffset": 0,
      "componentType": 5123,
      "count": 24,
      "type": "VEC3",
      "extensions": {
        "WEB3D_quantized_attributes": {
          "decodeMatrix": [
            0.000015259021896696422,
            0,
            0,
            0,
            0,
            0.000015259021896696422,
            0,
            0,
            0,
            0,
            0.000015259021896696422,
            0,
            -0.5,
            -0.5,
            -0.5,
            1
          ],
          "decodedMin": [
            -0.5,
            -0.5,
            -0.5
          ],
          "decodedMax": [
            0.5,
            0.5,
            0.5
          ]
        }
      },
      "min": [
        0,
        0,
        0
      ],
      "max": [
        65535,
        65535,
        65535
      ]
    },
    {
      "bufferView": 1,
      "byteOffset": 144,
      "componentType": 5123,
      "count": 24,
      "type": "VEC3",
      "extensions": {
        "WEB3D_quantized_attributes": {
          "decodeMatrix": [
            0.000030518043793392844,
            0,
            0,
            0,
            0,
            0.000030518043793392844,
            0,
            0,
            0,
            0,
            0.000030518043793392844,
            0,
            -1,
            -1,
            -1,
            1
          ]
        }
      }
    },
    {
      "bufferView": 2,
      "byteOffset": 288,
      "componentType": 5123,
      "count": 24,
      "max": [
        0
      ],
      "min": [
        0
      ],
      "type": "SCALAR",
      "extensions": {
        "WEB3D_quantized_attributes": {
          "decodedMin": [
            1
          ],
          "decodedMax": [
            1
          ],
          "decodeMatrix": [
            0,
            0,
            1,
            1
          ]
        }
      }
    }
  ],
  "asset": {
    "generator": "collada2gltf@027f74366341d569dea42e9a68b7104cc3892054",
    "version": "2.0"
  },
  "bufferViews": [
    {
      "buffer": 0,
      "byteLength": 72,
      "byteOffset": 0,
      "target": 34963
    },
    {
      "buffer": 0,
      "byteLength": 288,
      "byteOffset": 72,
      "target": 34962,
      "byteStride": 6
    },
    {
      "buffer": 0,
      "byteLength": 336,
      "byteOffset": 360,
      "target": 34962,
      "byteStride": 2
    }
  ],
  "buffers": [
    {
      "byteLength": 696,
      "uri": "data:application/octet-stream;base64,"
    }
  ],
  "extensionsUsed": [
    "WEB3D_quantized_attributes"
  ],
  "materials": [
    {
      "pbrMetallicRoughness": {
        "roughnessFactor": 1,
        "metallicFactor": 0,
        "baseColorFactor": [
          0.6038273388553378,
          0,
          0,
          1
        ]
      },
      "emissiveFactor": [
        0,
        0,
        0
      ],
      "alphaMode": "OPAQUE",
      "doubleSided": false
    }
  ],
  "meshes": [
    {
      "primitives": [
        {
          "attributes": {
            "NORMAL": 2,
            "POSITION": 1,
            "_SCALAR_TEST": 3
          },
          "indices": 0,
          "material": 0,
          "mode": 4
        }
      ]
    }
  ],
  "nodes": [
    {
      "mesh": 0
    }
  ],
  "scene": 0,
  "scenes": [
    {
      "nodes": [
        0
      ]
    }
  ],
  "extensionsRequired": [
    "WEB3D_quantized_attributes"
  ]
}
