{
  "accessors": {
    "accessor_position": {
      "bufferView": "bufferView_0",
      "byteOffset": 0,
      "byteStride": 0,
      "componentType": 5126,
      "count": 24,
      "type": "VEC3",
      "min": [
        1215011.25,
        -4736310,
        4081601.25
      ],
      "max": [
        1215012.625,
        -4736308.5,
        4081602.75
      ]
    },
    "accessor_normal": {
      "bufferView": "bufferView_0",
      "byteOffset": 288,
      "byteStride": 0,
      "componentType": 5126,
      "count": 24,
      "type": "VEC3",
      "min": [
        -0.968635618686676,
        -0.7415555715560913,
        -0.7655670642852783
      ],
      "max": [
        0.968635618686676,
        0.7415555715560913,
        0.7655670642852783
      ]
    },
    "accessor_uv": {
      "bufferView": "bufferView_0",
      "byteOffset": 576,
      "byteStride": 0,
      "componentType": 5126,
      "count": 24,
      "type": "VEC2",
      "min": [
        0,
        0
      ],
      "max": [
        1,
        1
      ]
    },
    "accessor_index_0": {
      "bufferView": "bufferView_1",
      "byteOffset": 0,
      "byteStride": 0,
      "componentType": 5123,
      "count": 36,
      "type": "SCALAR",
      "min": [
        0
      ],
      "max": [
        23
      ]
    }
  },
  "asset": {
    "generator": "3d-tiles-generator",
    "version": "1.1",
    "premultipliedAlpha": true,
    "profile": {
      "api": "WebGL",
      "version": "1.0.3"
    }
  },
  "buffers": {
    "bufferView_0_buffer": {
      "type": "arraybuffer",
      "byteLength": 840,
      "uri": "data:application/octet-stream;base64,"
    }
  },
  "bufferViews": {
    "bufferView_0": {
      "buffer": "bufferView_0_buffer",
      "byteLength": 768,
      "byteOffset": 0,
      "target": 34962
    },
    "bufferView_1": {
      "buffer": "bufferView_0_buffer",
      "byteLength": 72,
      "byteOffset": 768,
      "target": 34963
    }
  },
  "extensionsRequired": [
    "KHR_materials_common"
  ],
  "images": {},
  "materials": {
    "material_0": {
      "extensions": {},
      "technique": "technique0",
      "values": {
        "ambient": [
          0.1,
          0.1,
          0.1,
          1
        ],
        "diffuse": [
          1,
          1,
          1,
          1
        ],
        "emission": [
          0,
          0,
          0,
          1
        ],
        "specular": [
          0,
          0,
          0,
          1
        ],
        "shininess": 0,
        "transparency": 1
      }
    }
  },
  "meshes": {
    "mesh": {
      "primitives": [
        {
          "attributes": {
            "POSITION": "accessor_position",
            "NORMAL": "accessor_normal",
            "TEXCOORD_0": "accessor_uv"
          },
          "indices": "accessor_index_0",
          "material": "material_0",
          "mode": 4
        }
      ]
    }
  },
  "nodes": {
    "rootNode": {
      "children": [],
      "meshes": [
        "mesh"
      ],
      "matrix": [
        1,
        0,
        0,
        0,
        0,
        1,
        0,
        0,
        0,
        0,
        1,
        0,
        0,
        0,
        0,
        1
      ]
    },
    "node_transform": {
      "children": [
        "rootNode"
      ],
      "matrix": [
        1,
        0,
        0,
        0,
        0,
        0,
        -1,
        0,
        0,
        1,
        0,
        0,
        0,
        0,
        0,
        1
      ],
      "name": "Y_UP_Transform"
    }
  },
  "samplers": {},
  "scene": "scene",
  "scenes": {
    "scene": {
      "nodes": [
        "node_transform"
      ]
    }
  },
  "textures": {},
  "animations": {},
  "cameras": {},
  "programs": {
    "program0": {
      "attributes": [
        "a_position",
        "a_normal",
        "a_texcoord_0"
      ],
      "fragmentShader": "fragmentShader0",
      "vertexShader": "vertexShader0"
    }
  },
  "shaders": {
    "vertexShader0": {
      "type": 35633,
      "uri": "data:text/plain;base64,"
    },
    "fragmentShader0": {
      "type": 35632,
      "uri": "data:text/plain;base64,"
    }
  },
  "skins": {},
  "techniques": {
    "technique0": {
      "attributes": {
        "a_position": "position",
        "a_normal": "normal",
        "a_texcoord_0": "texcoord_0"
      },
      "parameters": {
        "modelViewMatrix": {
          "semantic": "MODELVIEW",
          "type": 35676
        },
        "projectionMatrix": {
          "semantic": "PROJECTION",
          "type": 35676
        },
        "normalMatrix": {
          "semantic": "MODELVIEWINVERSETRANSPOSE",
          "type": 35675
        },
        "ambient": {
          "type": 35666
        },
        "diffuse": {
          "type": 35666,
          "semantic": "_3DTILESDIFFUSE"
        },
        "emission": {
          "type": 35666
        },
        "specular": {
          "type": 35666
        },
        "shininess": {
          "type": 5126
        },
        "transparency": {
          "type": 5126
        },
        "position": {
          "semantic": "POSITION",
          "type": 35665
        },
        "normal": {
          "semantic": "NORMAL",
          "type": 35665
        },
        "texcoord_0": {
          "semantic": "TEXCOORD_0",
          "type": 5126
        }
      },
      "program": "program0",
      "states": {
        "enable": [
          2884,
          2929
        ]
      },
      "uniforms": {
        "u_modelViewMatrix": "modelViewMatrix",
        "u_projectionMatrix": "projectionMatrix",
        "u_normalMatrix": "normalMatrix",
        "u_ambient": "ambient",
        "u_diffuse": "diffuse",
        "u_emission": "emission",
        "u_specular": "specular",
        "u_shininess": "shininess",
        "u_transparency": "transparency"
      }
    }
  },
  "extensions": {},
  "extensionsUsed": []
}
