{
    "accessors": {
        "accessor_121": {
            "bufferView": "bufferView_135",
            "byteOffset": 0,
            "byteStride": 0,
            "componentType": 5123,
            "count": 2592,
            "type": "SCALAR"
        },
        "accessor_124": {
            "bufferView": "bufferView_135",
            "byteOffset": 5184,
            "byteStride": 0,
            "componentType": 5123,
            "count": 2592,
            "type": "SCALAR"
        },
        "accessor_127": {
            "bufferView": "bufferView_135",
            "byteOffset": 10368,
            "byteStride": 0,
            "componentType": 5123,
            "count": 2592,
            "type": "SCALAR"
        },
        "accessor_129": {
            "bufferView": "bufferView_136",
            "byteOffset": 0,
            "byteStride": 12,
            "componentType": 5126,
            "count": 520,
            "max": [
                0.5940000414848328,
                0.5940000414848328,
                0.4180000126361847
            ],
            "min": [
                -0.5940000414848328,
                -0.5940000414848328,
                -2.1000001430511475
            ],
            "type": "VEC3"
        },
        "accessor_131": {
            "bufferView": "bufferView_136",
            "byteOffset": 6240,
            "byteStride": 2,
            "componentType": 5120,
            "count": 520,
            "max": [
                127,
                127
            ],
            "min": [
                -127,
                -127
            ],
            "type": "VEC2"
        },
        "accessor_133": {
            "bufferView": "bufferView_136",
            "byteOffset": 7280,
            "byteStride": 6,
            "componentType": 5122,
            "count": 520,
            "max": [
                32270,
                16302,
                -32766
            ],
            "min": [
                0,
                92,
                -32766
            ],
            "type": "VEC3"
        },
        "accessor_33": {
            "bufferView": "bufferView_135",
            "byteOffset": 20736,
            "byteStride": 0,
            "componentType": 5123,
            "count": 13212,
            "type": "SCALAR"
        },
        "accessor_35": {
            "bufferView": "bufferView_136",
            "byteOffset": 20800,
            "byteStride": 12,
            "componentType": 5126,
            "count": 5638,
            "max": [
                3.676909923553467,
                2.634359836578369,
                1.2980000972747803
            ],
            "min": [
                -4.134000301361084,
                0.3503130078315735,
                -1.2980000972747803
            ],
            "type": "VEC3"
        },
        "accessor_37": {
            "bufferView": "bufferView_136",
            "byteOffset": 88456,
            "byteStride": 2,
            "componentType": 5120,
            "count": 5638,
            "max": [
                127,
                127
            ],
            "min": [
                -127,
                -127
            ],
            "type": "VEC2"
        },
        "accessor_39": {
            "bufferView": "bufferView_136",
            "byteOffset": 99732,
            "byteStride": 6,
            "componentType": 5122,
            "count": 5638,
            "max": [
                32735,
                32767,
                -32766
            ],
            "min": [
                113,
                16400,
                -32766
            ],
            "type": "VEC3"
        },
        "accessor_60": {
            "bufferView": "bufferView_135",
            "byteOffset": 15552,
            "byteStride": 0,
            "componentType": 5123,
            "count": 2592,
            "type": "SCALAR"
        },
        "accessor_62": {
            "bufferView": "bufferView_136",
            "byteOffset": 10400,
            "byteStride": 12,
            "componentType": 5126,
            "count": 520,
            "max": [
                0.4180000126361847,
                1.902229905128479,
                1.4099400043487549
            ],
            "min": [
                -0.7699999809265137,
                0.6697670221328735,
                -1.4099400043487549
            ],
            "type": "VEC3"
        },
        "accessor_64": {
            "bufferView": "bufferView_136",
            "byteOffset": 16640,
            "byteStride": 2,
            "componentType": 5120,
            "count": 520,
            "max": [
                127,
                127
            ],
            "min": [
                -127,
                -127
            ],
            "type": "VEC2"
        },
        "accessor_66": {
            "bufferView": "bufferView_136",
            "byteOffset": 17680,
            "byteStride": 6,
            "componentType": 5122,
            "count": 520,
            "max": [
                32270,
                16302,
                -32766
            ],
            "min": [
                0,
                92,
                -32766
            ],
            "type": "VEC3"
        },
        "animAccessor_0": {
            "bufferView": "bufferView_134",
            "byteOffset": 0,
            "componentType": 5126,
            "count": 8,
            "type": "SCALAR"
        },
        "animAccessor_1": {
            "bufferView": "bufferView_134",
            "byteOffset": 32,
            "componentType": 5126,
            "count": 8,
            "type": "VEC4"
        }
    },
    "animations": {
        "animation_0": {
            "channels": [
                {
                    "sampler": "animation_0_rotation_sampler",
                    "target": {
                        "id": "Geometry-mesh001Node",
                        "path": "rotation"
                    }
                }
            ],
            "parameters": {
                "TIME": "animAccessor_0",
                "rotation": "animAccessor_1"
            },
            "samplers": {
                "animation_0_rotation_sampler": {
                    "input": "TIME",
                    "interpolation": "LINEAR",
                    "output": "rotation"
                }
            }
        },
        "animation_1": {
            "channels": [
                {
                    "sampler": "animation_1_rotation_sampler",
                    "target": {
                        "id": "meshInst004Node",
                        "path": "rotation"
                    }
                }
            ],
            "parameters": {
                "TIME": "animAccessor_0",
                "rotation": "animAccessor_1"
            },
            "samplers": {
                "animation_1_rotation_sampler": {
                    "input": "TIME",
                    "interpolation": "LINEAR",
                    "output": "rotation"
                }
            }
        },
        "animation_2": {
            "channels": [
                {
                    "sampler": "animation_2_rotation_sampler",
                    "target": {
                        "id": "meshInst009Node",
                        "path": "rotation"
                    }
                }
            ],
            "parameters": {
                "TIME": "animAccessor_0",
                "rotation": "animAccessor_1"
            },
            "samplers": {
                "animation_2_rotation_sampler": {
                    "input": "TIME",
                    "interpolation": "LINEAR",
                    "output": "rotation"
                }
            }
        }
    },
    "asset": {
        "generator": "collada2gltf@",
        "premultipliedAlpha": true,
        "profile": {
            "api": "WebGL",
            "version": "1.0.2"
        },
        "version": "1.0"
    },
    "bufferViews": {
        "bufferView_134": {
            "buffer": "Cesium_Ground",
            "byteLength": 160,
            "byteOffset": 0
        },
        "bufferView_135": {
            "buffer": "Cesium_Ground",
            "byteLength": 47160,
            "byteOffset": 160,
            "target": 34963
        },
        "bufferView_136": {
            "buffer": "Cesium_Ground",
            "byteLength": 133560,
            "byteOffset": 47320,
            "target": 34962
        }
    },
    "buffers": {
        "Cesium_Ground": {
            "byteLength": 180880,
            "type": "arraybuffer",
            "uri": "data:application/octet-stream;base64,"
        }
    },
    "images": {
        "TextureAtlas0": {
            "name": "TextureAtlas0",
            "uri": "data:image/jpeg;base64,"
        }
    },
    "materials": {
        "Effect-cougar_body": {
            "name": "cougar_body",
            "technique": "technique0",
            "values": {
                "diffuse": "texture_TextureAtlas0",
                "shininess": 256,
                "specular": [
                    0.04999999701976776,
                    0.04999999701976776,
                    0.04999999701976776,
                    1
                ]
            }
        },
        "Effect-cougar_wheels": {
            "name": "cougar_wheels",
            "technique": "technique0",
            "values": {
                "diffuse": "texture_TextureAtlas0",
                "shininess": 128,
                "specular": [
                    0.07999999821186066,
                    0.07999999821186066,
                    0.07999999821186066,
                    1
                ]
            }
        }
    },
    "meshes": {
        "Geometry-mesh001": {
            "name": "wheels",
            "primitives": [
                {
                    "attributes": {
                        "NORMAL": "accessor_131",
                        "POSITION": "accessor_129",
                        "TEXCOORD_0": "accessor_133"
                    },
                    "indices": "accessor_121",
                    "material": "Effect-cougar_wheels",
                    "mode": 4
                },
                {
                    "attributes": {
                        "NORMAL": "accessor_131",
                        "POSITION": "accessor_129",
                        "TEXCOORD_0": "accessor_133"
                    },
                    "indices": "accessor_124",
                    "material": "Effect-cougar_wheels",
                    "mode": 4
                },
                {
                    "attributes": {
                        "NORMAL": "accessor_131",
                        "POSITION": "accessor_129",
                        "TEXCOORD_0": "accessor_133"
                    },
                    "indices": "accessor_127",
                    "material": "Effect-cougar_wheels",
                    "mode": 4
                }
            ]
        },
        "Geometry-mesh002": {
            "name": "Ground_Vehicle",
            "primitives": [
                {
                    "attributes": {
                        "NORMAL": "accessor_64",
                        "POSITION": "accessor_62",
                        "TEXCOORD_0": "accessor_66"
                    },
                    "indices": "accessor_60",
                    "material": "Effect-cougar_wheels",
                    "mode": 4
                }
            ]
        },
        "Geometry-mesh002-dup-0": {
            "name": "Geometry-mesh002-dup-0",
            "primitives": [
                {
                    "attributes": {
                        "NORMAL": "accessor_37",
                        "POSITION": "accessor_35",
                        "TEXCOORD_0": "accessor_39"
                    },
                    "indices": "accessor_33",
                    "material": "Effect-cougar_body",
                    "mode": 4
                }
            ]
        }
    },
    "nodes": {
        "Geometry-mesh001Node": {
            "children": [
                "node_4"
            ],
            "name": "wheels",
            "rotation": [
                0,
                0.0000000000000000000000033087256056557316,
                0,
                1
            ],
            "scale": [
                1,
                1,
                1
            ],
            "translation": [
                2.419999837875366,
                0.5799999833106995,
                0.8410000205039978
            ]
        },
        "meshInst004Node": {
            "children": [
                "node_6"
            ],
            "name": "wheels__2_",
            "rotation": [
                0,
                0.0000000000000000000000033087256056557316,
                0,
                1
            ],
            "scale": [
                1,
                1,
                1
            ],
            "translation": [
                -1.3350000381469727,
                0.5799999833106995,
                0.8410000205039978
            ]
        },
        "meshInst009Node": {
            "children": [
                "node_8"
            ],
            "name": "wheels__3_",
            "rotation": [
                0,
                0.0000000000000000000000033087256056557316,
                0,
                1
            ],
            "scale": [
                1,
                1,
                1
            ],
            "translation": [
                -2.6450002193450928,
                0.5799999833106995,
                0.8410000205039978
            ]
        },
        "node_1": {
            "children": [],
            "matrix": [
                1,
                0,
                0,
                0,
                0,
                1,
                0,
                0,
                0,
                0,
                1,
                0,
                0,
                0,
                0,
                1
            ],
            "meshes": [
                "Geometry-mesh002-dup-0"
            ],
            "name": ""
        },
        "node_2": {
            "children": [],
            "matrix": [
                1,
                0,
                0,
                0,
                0,
                1,
                0,
                0,
                0,
                0,
                1,
                0,
                0,
                0,
                0,
                1
            ],
            "meshes": [
                "Geometry-mesh002"
            ],
            "name": ""
        },
        "node_4": {
            "children": [],
            "matrix": [
                1,
                0,
                0,
                0,
                0,
                1,
                0,
                0,
                0,
                0,
                1,
                0,
                0,
                0,
                0,
                1
            ],
            "meshes": [
                "Geometry-mesh001"
            ],
            "name": ""
        },
        "node_6": {
            "children": [],
            "matrix": [
                1,
                0,
                0,
                0,
                0,
                1,
                0,
                0,
                0,
                0,
                1,
                0,
                0,
                0,
                0,
                1
            ],
            "meshes": [
                "Geometry-mesh001"
            ],
            "name": ""
        },
        "node_8": {
            "children": [],
            "matrix": [
                1,
                0,
                0,
                0,
                0,
                1,
                0,
                0,
                0,
                0,
                1,
                0,
                0,
                0,
                0,
                1
            ],
            "meshes": [
                "Geometry-mesh001"
            ],
            "name": ""
        },
        "polyRender085": {
            "children": [],
            "matrix": [
                1,
                0,
                0,
                0,
                0,
                1,
                0,
                0,
                0,
                0,
                1,
                0,
                0,
                0,
                0,
                1
            ],
            "name": "Render"
        }
    },
    "programs": {
        "program_0": {
            "attributes": [
                "a_normal",
                "a_position",
                "a_texcoord0"
            ],
            "fragmentShader": "Cesium_Ground0FS",
            "vertexShader": "Cesium_Ground0VS"
        }
    },
    "samplers": {
        "sampler_0": {
            "magFilter": 9729,
            "minFilter": 9987,
            "wrapS": 10497,
            "wrapT": 10497
        }
    },
    "scene": "defaultScene",
    "scenes": {
        "defaultScene": {
            "nodes": [
                "polyRender085",
                "node_1",
                "node_2",
                "Geometry-mesh001Node",
                "meshInst004Node",
                "meshInst009Node"
            ]
        }
    },
    "shaders": {
        "Cesium_Ground0FS": {
            "type": 35632,
            "uri": "data:text/plain;base64,"
        },
        "Cesium_Ground0VS": {
            "type": 35633,
            "uri": "data:text/plain;base64,"
        }
    },
    "skins": {},
    "techniques": {
        "technique0": {
            "attributes": {
                "a_normal": "normal",
                "a_position": "position",
                "a_texcoord0": "texcoord0"
            },
            "parameters": {
                "diffuse": {
                    "type": 35678
                },
                "modelViewMatrix": {
                    "semantic": "MODELVIEW",
                    "type": 35676
                },
                "normal": {
                    "semantic": "NORMAL",
                    "type": 35665
                },
                "normalMatrix": {
                    "semantic": "MODELVIEWINVERSETRANSPOSE",
                    "type": 35675
                },
                "position": {
                    "semantic": "POSITION",
                    "type": 35665
                },
                "projectionMatrix": {
                    "semantic": "PROJECTION",
                    "type": 35676
                },
                "shininess": {
                    "type": 5126
                },
                "specular": {
                    "type": 35666
                },
                "texcoord0": {
                    "semantic": "TEXCOORD_0",
                    "type": 35664
                }
            },
            "program": "program_0",
            "states": {
                "enable": [
                    2929,
                    2884
                ]
            },
            "uniforms": {
                "u_diffuse": "diffuse",
                "u_modelViewMatrix": "modelViewMatrix",
                "u_normalMatrix": "normalMatrix",
                "u_projectionMatrix": "projectionMatrix",
                "u_shininess": "shininess",
                "u_specular": "specular"
            }
        }
    },
    "textures": {
        "texture_TextureAtlas0": {
            "format": 6408,
            "internalFormat": 6408,
            "sampler": "sampler_0",
            "source": "TextureAtlas0",
            "target": 3553,
            "type": 5121
        }
    }
}