{
  "asset": {
    "version": "2.1"
  },
  "extensionsUsed": [
    "EXT_voxels",
    "EXT_structural_metadata"
  ],
  "extensionsRequired": [
    "EXT_voxels",
    "EXT_structural_metadata"
  ],
  "extensions": {
    "EXT_structural_metadata": {
      "schema": {
        "id": "voxel",
        "classes": {
          "voxel": {
            "properties": {
              "a": {
                "type": "VEC4",
                "componentType": "FLOAT32"
              }
            }
          }
        }
      },
      "propertyAttributes": [
        {
          "class": "voxel",
          "properties": {
            "a": {
              "attribute": "_DATA"
            }
          }
        }
      ]
    }
  },
  "scene": 0,
  "scenes": [
    {
      "nodes": [
        0
      ]
    }
  ],
  "shapes": [
    {
      "type": "box",
      "box": {
        "size": [12756274.0, 12756274.0, 12756274.0]
      }
    }
  ],
  "nodes": [
    {
      "extensions": {
        "EXT_voxels": {
          "dimensions": [2, 4, 3],
          "attributes": {
            "_DATA": 0
          },
          "extensions": {
            "EXT_structural_metadata": {
              "propertyAttributes": [0]
            }
          }
        }
      },
      "boundingVolume": {
        "shape": 0
      }
    }
  ],
  "accessors": [
    {
      "bufferView": 0,
      "byteOffset": 0,
      "componentType": 5126,
      "count": 24,
      "max": [
        1.0, 1.0, 1.0, 1.0
      ],
      "min": [
        0.0, 0.0, 0.0, 1.0
      ],
      "type": "VEC4"
    }
  ],
  "bufferViews": [
    {
      "buffer": 0,
      "byteOffset": 0,
      "byteLength": 384
    }
  ],
  "buffers": [
    {
      "uri": "a.bin",
      "byteLength": 384
    }
  ]
}
