{
  "accessors": {
    "accessor_100": {
      "bufferView": "bufferView_105",
      "byteOffset": 4688,
      "byteStride": 6,
      "componentType": 5123,
      "count": 586,
      "max": [
        0.999039,
        0.999038,
        1
      ],
      "min": [
        -0.999038,
        -0.999038,
        -1
      ],
      "type": "VEC3",
      "extensions": {
        "WEB3D_quantized_attributes": {
          "decodeMatrix": [
            0.000030488700318083645,
            0,
            0,
            0,
            0,
            0.000030488684856437786,
            0,
            0,
            0,
            0,
            0.000030518043793392844,
            0,
            -0.9990379810333252,
            -0.9990379810333252,
            -1,
            1
          ]
        }
      }
    },
    "accessor_102": {
      "bufferView": "bufferView_105",
      "byteOffset": 8204,
      "byteStride": 8,
      "componentType": 5126,
      "count": 586,
      "max": [
        0.993657,
        0.989576
      ],
      "min": [
        0.605093,
        0.00905001
      ],
      "type": "VEC2"
    },
    "accessor_63": {
      "bufferView": "bufferView_104",
      "byteOffset": 4608,
      "byteStride": 0,
      "componentType": 5123,
      "count": 5232,
      "type": "SCALAR"
    },
    "accessor_66": {
      "bufferView": "bufferView_104",
      "byteOffset": 15072,
      "byteStride": 0,
      "componentType": 5123,
      "count": 168,
      "type": "SCALAR"
    },
    "accessor_69": {
      "bufferView": "bufferView_104",
      "byteOffset": 15408,
      "byteStride": 0,
      "componentType": 5123,
      "count": 864,
      "type": "SCALAR"
    },
    "accessor_71": {
      "bufferView": "bufferView_105",
      "byteOffset": 12892,
      "byteStride": 16,
      "componentType": 5126,
      "count": 2392,
      "max": [
        2.438,
        2.58437,
        1.396,
        1
      ],
      "min": [
        -2.43091,
        0.2668,
        -1.396,
        1
      ],
      "type": "VEC4"
    },
    "accessor_73": {
      "bufferView": "bufferView_105",
      "byteOffset": 51164,
      "byteStride": 12,
      "componentType": 5126,
      "count": 2392,
      "max": [
        1,
        1,
        1
      ],
      "min": [
        -1,
        -1,
        -1
      ],
      "type": "VEC3"
    },
    "accessor_75": {
      "bufferView": "bufferView_105",
      "byteOffset": 79868,
      "byteStride": 4,
      "componentType": 5123,
      "count": 2392,
      "max": [
        0.896458,
        0.997245
      ],
      "min": [
        0.00295639,
        0.015672
      ],
      "type": "VEC2",
      "extensions": {
        "WEB3D_quantized_attributes": {
          "decodeMatrix": [
            0.000013633960177419187,
            0,
            0,
            0,
            0.000014977846409751175,
            0,
            0.0029563899151980877,
            0.015672028064727783,
            1
          ]
        }
      }
    },
    "accessor_96": {
      "bufferView": "bufferView_104",
      "byteOffset": 0,
      "byteStride": 0,
      "componentType": 5123,
      "count": 2304,
      "type": "SCALAR"
    },
    "accessor_98": {
      "bufferView": "bufferView_105",
      "byteOffset": 0,
      "byteStride": 8,
      "componentType": 5123,
      "count": 586,
      "max": [
        0.4278,
        0.4278,
        1.058,
        1
      ],
      "min": [
        -0.4278,
        -0.4278,
        -1.058,
        1
      ],
      "type": "VEC4",
      "extensions": {
        "WEB3D_quantized_attributes": {
          "decodedMin": [
            -0.4277999997138977,
            -0.4277999997138977,
            -1.058000087738037,
            1
          ],
          "decodedMax": [
            0.4277999997138977,
            0.4277999997138977,
            1.058000087738037,
            1
          ],
          "decodeMatrix": [
            0.000013055619126082177,
            0,
            0,
            0,
            0,
            0,
            0.000013055619126082177,
            0,
            0,
            0,
            0,
            0,
            0.000032288093011002884,
            0,
            0,
            0,
            0,
            0,
            0,
            0,
            -0.4277999997138977,
            -0.4277999997138977,
            -1.058000087738037,
            1,
            1
          ]
        }
      }
    },
    "animAccessor_0": {
      "bufferView": "bufferView_103",
      "byteOffset": 0,
      "componentType": 5126,
      "count": 31,
      "type": "SCALAR"
    },
    "animAccessor_1": {
      "bufferView": "bufferView_103",
      "byteOffset": 124,
      "componentType": 5126,
      "count": 31,
      "type": "VEC4"
    }
  },
  "animations": {
    "animation_0": {
      "channels": [
        {
          "sampler": "animation_0_rotation_sampler",
          "target": {
            "id": "Geometry-mesh001Node",
            "path": "rotation"
          }
        }
      ],
      "parameters": {
        "TIME": "animAccessor_0",
        "rotation": "animAccessor_1"
      },
      "samplers": {
        "animation_0_rotation_sampler": {
          "input": "TIME",
          "interpolation": "LINEAR",
          "output": "rotation"
        }
      }
    },
    "animation_1": {
      "channels": [
        {
          "sampler": "animation_1_rotation_sampler",
          "target": {
            "id": "meshInst962Node",
            "path": "rotation"
          }
        }
      ],
      "parameters": {
        "TIME": "animAccessor_0",
        "rotation": "animAccessor_1"
      },
      "samplers": {
        "animation_1_rotation_sampler": {
          "input": "TIME",
          "interpolation": "LINEAR",
          "output": "rotation"
        }
      }
    }
  },
  "asset": {
    "generator": "collada2gltf@027f74366341d569dea42e9a68b7104cc3892054",
    "premultipliedAlpha": true,
    "profile": {
      "api": "WebGL",
      "version": "1.0.2"
    },
    "version": "1.0"
  },
  "bufferViews": {
    "bufferView_103": {
      "buffer": "CesiumMilkTruck",
      "byteLength": 620,
      "byteOffset": 0
    },
    "bufferView_104": {
      "buffer": "CesiumMilkTruck",
      "byteLength": 17136,
      "byteOffset": 620,
      "target": 34963
    },
    "bufferView_105": {
      "buffer": "CesiumMilkTruck",
      "byteLength": 89436,
      "byteOffset": 17756,
      "target": 34962
    }
  },
  "buffers": {
    "CesiumMilkTruck": {
      "type": "arraybuffer",
      "byteLength": 107192,
      "uri": "data:application/octet-stream;base64,"
    }
  },
  "images": {
    "Image0001": {
      "name": "Image0001",
      "uri": "data:image/png;base64,"
    }
  },
  "materials": {
    "Effect-glass": {
      "name": "glass",
      "technique": "technique0",
      "values": {
        "diffuse": [
          0,
          0.0405063,
          0.0212407,
          1
        ],
        "shininess": 256,
        "specular": [
          0.65,
          0.65,
          0.65,
          1
        ]
      }
    },
    "Effect-truck": {
      "name": "truck",
      "technique": "technique1",
      "values": {
        "diffuse": "texture_Image0001",
        "shininess": 256,
        "specular": [
          0.04,
          0.04,
          0.04,
          1
        ]
      }
    },
    "Effect-wheels": {
      "name": "wheels",
      "technique": "technique1",
      "values": {
        "diffuse": "texture_Image0001",
        "shininess": 256,
        "specular": [
          0.04,
          0.04,
          0.04,
          1
        ]
      }
    },
    "Effect-window_trim": {
      "name": "window_trim",
      "technique": "technique0",
      "values": {
        "diffuse": [
          0.064,
          0.064,
          0.064,
          1
        ],
        "shininess": 256,
        "specular": [
          0.04,
          0.04,
          0.04,
          1
        ]
      }
    }
  },
  "meshes": {
    "Geometry-mesh001": {
      "name": "Wheels",
      "primitives": [
        {
          "attributes": {
            "NORMAL": "accessor_100",
            "POSITION": "accessor_98",
            "TEXCOORD_0": "accessor_102"
          },
          "indices": "accessor_96",
          "material": "Effect-wheels",
          "mode": 4
        }
      ]
    },
    "Geometry-mesh002": {
      "name": "Cesium_Milk_Truck",
      "primitives": [
        {
          "attributes": {
            "NORMAL": "accessor_73",
            "POSITION": "accessor_71",
            "TEXCOORD_0": "accessor_75"
          },
          "indices": "accessor_63",
          "material": "Effect-truck",
          "mode": 4
        },
        {
          "attributes": {
            "NORMAL": "accessor_73",
            "POSITION": "accessor_71"
          },
          "indices": "accessor_66",
          "material": "Effect-glass",
          "mode": 4
        },
        {
          "attributes": {
            "NORMAL": "accessor_73",
            "POSITION": "accessor_71"
          },
          "indices": "accessor_69",
          "material": "Effect-window_trim",
          "mode": 4
        }
      ]
    }
  },
  "nodes": {
    "Geometry-mesh001Node": {
      "children": [],
      "meshes": [
        "Geometry-mesh001"
      ],
      "name": "Wheels",
      "rotation": [
        0,
        0,
        -0.0884856,
        0.996077
      ],
      "scale": [
        1,
        1,
        1
      ],
      "translation": [
        1.43267,
        0.427722,
        -2.98023e-8
      ]
    },
    "Geometry-mesh002Node": {
      "children": [
        "Geometry-mesh001Node",
        "meshInst962Node"
      ],
      "matrix": [
        1,
        0,
        0,
        0,
        0,
        1,
        0,
        0,
        0,
        0,
        1,
        0,
        0,
        0,
        0,
        1
      ],
      "meshes": [
        "Geometry-mesh002"
      ],
      "name": "Cesium_Milk_Truck"
    },
    "groupLocator006Node": {
      "children": [
        "txtrLocator003Node",
        "txtrLocator013Node"
      ],
      "matrix": [
        1,
        0,
        0,
        0,
        0,
        1,
        0,
        0,
        0,
        0,
        1,
        0,
        0,
        0,
        0,
        1
      ],
      "name": "Texture_Group"
    },
    "meshInst962Node": {
      "children": [],
      "meshes": [
        "Geometry-mesh001"
      ],
      "name": "Wheels__2_",
      "rotation": [
        0,
        0,
        -0.0884856,
        0.996077
      ],
      "scale": [
        1,
        1,
        1
      ],
      "translation": [
        -1.35233,
        0.427722,
        -2.98023e-8
      ]
    },
    "polyRender006": {
      "children": [],
      "matrix": [
        1,
        0,
        0,
        0,
        0,
        1,
        0,
        0,
        0,
        0,
        1,
        0,
        0,
        0,
        0,
        1
      ],
      "name": "Render"
    },
    "txtrLocator003Node": {
      "children": [],
      "matrix": [
        1,
        0,
        0,
        0,
        0,
        1,
        0,
        0,
        0,
        0,
        1,
        0,
        0,
        0,
        0,
        1
      ],
      "name": "Cesium_Milk_Truck__2___Image___Texture_"
    },
    "txtrLocator013Node": {
      "children": [],
      "matrix": [
        1,
        0,
        0,
        0,
        0,
        1,
        0,
        0,
        0,
        0,
        1,
        0,
        0,
        0,
        0,
        1
      ],
      "name": "Cesium_Milk_Truck__2___Image___2___Texture_"
    }
  },
  "programs": {
    "program_0": {
      "attributes": [
        "a_normal",
        "a_position"
      ],
      "fragmentShader": "CesiumMilkTruck0FS",
      "vertexShader": "CesiumMilkTruck0VS"
    },
    "program_1": {
      "attributes": [
        "a_normal",
        "a_position",
        "a_texcoord0"
      ],
      "fragmentShader": "CesiumMilkTruck1FS",
      "vertexShader": "CesiumMilkTruck1VS"
    }
  },
  "samplers": {
    "sampler_0": {
      "magFilter": 9729,
      "minFilter": 9987,
      "wrapS": 10497,
      "wrapT": 10497
    }
  },
  "scene": "defaultScene",
  "scenes": {
    "defaultScene": {
      "nodes": [
        "polyRender006",
        "Geometry-mesh002Node",
        "groupLocator006Node"
      ]
    }
  },
  "shaders": {
    "CesiumMilkTruck0FS": {
      "type": 35632,
      "uri": "data:text/plain;base64,"
    },
    "CesiumMilkTruck0VS": {
      "type": 35633,
      "uri": "data:text/plain;base64,"
    },
    "CesiumMilkTruck1FS": {
      "type": 35632,
      "uri": "data:text/plain;base64,"
    },
    "CesiumMilkTruck1VS": {
      "type": 35633,
      "uri": "data:text/plain;base64,"
    }
  },
  "skins": {},
  "techniques": {
    "technique0": {
      "attributes": {
        "a_normal": "normal",
        "a_position": "position"
      },
      "parameters": {
        "diffuse": {
          "type": 35666
        },
        "modelViewMatrix": {
          "semantic": "MODELVIEW",
          "type": 35676
        },
        "normal": {
          "semantic": "NORMAL",
          "type": 35665
        },
        "normalMatrix": {
          "semantic": "MODELVIEWINVERSETRANSPOSE",
          "type": 35675
        },
        "position": {
          "semantic": "POSITION",
          "type": 35666
        },
        "projectionMatrix": {
          "semantic": "PROJECTION",
          "type": 35676
        },
        "shininess": {
          "type": 5126
        },
        "specular": {
          "type": 35666
        }
      },
      "program": "program_0",
      "states": {
        "enable": [
          2929,
          2884
        ]
      },
      "uniforms": {
        "u_diffuse": "diffuse",
        "u_modelViewMatrix": "modelViewMatrix",
        "u_normalMatrix": "normalMatrix",
        "u_projectionMatrix": "projectionMatrix",
        "u_shininess": "shininess",
        "u_specular": "specular"
      }
    },
    "technique1": {
      "attributes": {
        "a_normal": "normal",
        "a_position": "position",
        "a_texcoord0": "texcoord0"
      },
      "parameters": {
        "diffuse": {
          "type": 35678
        },
        "modelViewMatrix": {
          "semantic": "MODELVIEW",
          "type": 35676
        },
        "normal": {
          "semantic": "NORMAL",
          "type": 35665
        },
        "normalMatrix": {
          "semantic": "MODELVIEWINVERSETRANSPOSE",
          "type": 35675
        },
        "position": {
          "semantic": "POSITION",
          "type": 35666
        },
        "projectionMatrix": {
          "semantic": "PROJECTION",
          "type": 35676
        },
        "shininess": {
          "type": 5126
        },
        "specular": {
          "type": 35666
        },
        "texcoord0": {
          "semantic": "TEXCOORD_0",
          "type": 35664
        }
      },
      "program": "program_1",
      "states": {
        "enable": [
          2929,
          2884
        ]
      },
      "uniforms": {
        "u_diffuse": "diffuse",
        "u_modelViewMatrix": "modelViewMatrix",
        "u_normalMatrix": "normalMatrix",
        "u_projectionMatrix": "projectionMatrix",
        "u_shininess": "shininess",
        "u_specular": "specular"
      }
    }
  },
  "textures": {
    "texture_Image0001": {
      "format": 6408,
      "internalFormat": 6408,
      "sampler": "sampler_0",
      "source": "Image0001",
      "target": 3553,
      "type": 5121
    }
  },
  "extensionsUsed": [
    "WEB3D_quantized_attributes"
  ]
}