{
    "accessors": {
        "accessor_21": {
            "bufferView": "bufferView_29",
            "byteOffset": 0,
            "byteStride": 0,
            "componentType": 5123,
            "count": 36,
            "type": "SCALAR"
        },
        "accessor_23": {
            "bufferView": "bufferView_30",
            "byteOffset": 0,
            "byteStride": 12,
            "componentType": 5126,
            "count": 24,
            "max": [
                0.5,
                0.5,
                0.5
            ],
            "min": [
                -0.5,
                -0.5,
                -0.5
            ],
            "type": "VEC3"
        },
        "accessor_25": {
            "bufferView": "bufferView_30",
            "byteOffset": 288,
            "byteStride": 12,
            "componentType": 5126,
            "count": 24,
            "max": [
                1,
                1,
                1
            ],
            "min": [
                -1,
                -1,
                -1
            ],
            "type": "VEC3"
        },
        "accessor_27": {
            "bufferView": "bufferView_30",
            "byteOffset": 576,
            "byteStride": 8,
            "componentType": 5126,
            "count": 24,
            "max": [
                6,
                1
            ],
            "min": [
                0,
                0
            ],
            "type": "VEC2"
        }
    },
    "animations": {},
    "asset": {
        "generator": "collada2gltf@",
        "premultipliedAlpha": true,
        "profile": {
            "api": "WebGL",
            "version": "1.0.2"
        },
        "version": "1.0"
    },
    "bufferViews": {
        "bufferView_29": {
            "buffer": "BoxSpotLight",
            "byteLength": 72,
            "byteOffset": 0,
            "target": 34963
        },
        "bufferView_30": {
            "buffer": "BoxSpotLight",
            "byteLength": 768,
            "byteOffset": 72,
            "target": 34962
        }
    },
    "buffers": {
        "BoxSpotLight": {
            "byteLength": 840,
            "type": "arraybuffer",
            "uri": "data:application/octet-stream;base64,"
        }
    },
    "extensions": {
        "KHR_materials_common": {
            "lights": {
                "ambient_light": {
                    "ambient": {
                        "color": [
                            0,
                            0,
                            0
                        ]
                    },
                    "name": "ambient_light",
                    "type": "ambient"
                },
                "spot_light": {
                    "name": "spot_light",
                    "spot": {
                        "color": [
                            1,
                            1,
                            1
                        ],
                        "constantAttenuation": 1,
                        "fallOffAngle": 0.3490658402442932,
                        "fallOffExponent": 0,
                        "linearAttenuation": 0,
                        "quadraticAttenuation": 0
                    },
                    "type": "spot"
                }
            }
        }
    },
    "extensionsUsed": [
        "KHR_materials_common"
    ],
    "images": {
        "Image0001": {
            "name": "Image0001",
            "uri": "data:image/jpeg;base64,"
        }
    },
    "materials": {
        "Effect-Texture": {
            "extensions": {
                "KHR_materials_common": {
                    "doubleSided": true,
                    "jointCount": 0,
                    "technique": "BLINN",
                    "transparent": false,
                    "values": {
                        "diffuse": "texture_Image0001",
                        "shininess": 256,
                        "specular": [
                            0.20000000298023224,
                            0.20000000298023224,
                            0.20000000298023224,
                            1
                        ]
                    }
                }
            },
            "name": "Texture"
        }
    },
    "meshes": {
        "Geometry-mesh002": {
            "name": "Mesh",
            "primitives": [
                {
                    "attributes": {
                        "NORMAL": "accessor_25",
                        "POSITION": "accessor_23",
                        "TEXCOORD_0": "accessor_27"
                    },
                    "indices": "accessor_21",
                    "material": "Effect-Texture",
                    "mode": 4
                }
            ]
        }
    },
    "nodes": {
        "node_0": {
            "children": [],
            "extensions": {
                "KHR_materials_common": {
                    "light": "spot_light"
                }
            },
            "matrix": [
                1,
                0,
                0,
                0,
                0,
                0.00000000004489664195972409,
                1,
                0,
                0,
                -1,
                0.00000000004489664195972409,
                0,
                0,
                -2,
                0.00000000008979328391944819,
                1
            ],
            "name": ""
        },
        "node_1": {
            "children": [],
            "extensions": {
                "KHR_materials_common": {
                    "light": "ambient_light"
                }
            },
            "matrix": [
                1,
                0,
                0,
                0,
                0,
                1,
                0,
                0,
                0,
                0,
                1,
                0,
                0,
                0,
                0,
                1
            ],
            "name": ""
        },
        "node_2": {
            "children": [],
            "matrix": [
                1,
                0,
                0,
                0,
                0,
                1,
                0,
                0,
                0,
                0,
                1,
                0,
                0,
                0,
                0,
                1
            ],
            "meshes": [
                "Geometry-mesh002"
            ],
            "name": ""
        },
        "node_3": {
            "children": [
                "node_0",
                "node_1",
                "node_2"
            ],
            "matrix": [
                1,
                0,
                0,
                0,
                0,
                0,
                -1,
                0,
                0,
                1,
                0,
                0,
                0,
                0,
                0,
                1
            ],
            "name": "Y_UP_Transform"
        }
    },
    "samplers": {
        "sampler_0": {
            "magFilter": 9729,
            "minFilter": 9987,
            "wrapS": 10497,
            "wrapT": 10497
        }
    },
    "scene": "defaultScene",
    "scenes": {
        "defaultScene": {
            "nodes": [
                "node_3"
            ]
        }
    },
    "skins": {},
    "textures": {
        "texture_Image0001": {
            "format": 6408,
            "internalFormat": 6408,
            "sampler": "sampler_0",
            "source": "Image0001",
            "target": 3553,
            "type": 5121
        }
    }
}