{
  "extensionsUsed": [
    "EXT_textureInfo_constant_lod"
  ],
  "accessors" : [ {
    "bufferView" : 0,
    "byteOffset" : 0,
    "componentType" : 5123,
    "count" : 6,
    "type" : "SCALAR",
    "max" : [ 3 ],
    "min" : [ 0 ]
  }, {
    "bufferView" : 1,
    "byteOffset" : 0,
    "componentType" : 5126,
    "count" : 4,
    "type" : "VEC3",
    "max" : [ 1.0, 1.0, 0.0 ],
    "min" : [ 0.0, 0.0, 0.0 ]
  }, {
    "bufferView" : 1,
    "byteOffset" : 48,
    "componentType" : 5126,
    "count" : 4,
    "type" : "VEC3",
    "max" : [ 0.0, 0.0, 1.0 ],
    "min" : [ 0.0, 0.0, 1.0 ]
  }, {
    "bufferView" : 1,
    "byteOffset" : 96,
    "componentType" : 5126,
    "count" : 4,
    "type" : "VEC2",
    "max" : [ 1.0, 1.0 ],
    "min" : [ 0.0, 0.0 ]
  } ],
  "asset" : {
    "generator" : "JglTF from https://github.com/javagl/JglTF",
    "version" : "2.0"
  },
  "buffers" : [ {
    "uri" : "data:application/gltf-buffer;base64,",
    "byteLength" : 156
  } ],
  "bufferViews" : [ {
    "buffer" : 0,
    "byteOffset" : 0,
    "byteLength" : 12,
    "target" : 34963
  }, {
    "buffer" : 0,
    "byteOffset" : 12,
    "byteLength" : 144,
    "byteStride" : 12,
    "target" : 34962
  } ],
  "images" : [ {
    "uri" : "checker_texture.png",
    "mimeType" : "image/png"
  } ],
  "materials" : [ {
    "pbrMetallicRoughness" : {
      "baseColorTexture" : {
        "index" : 0,
        "extensions": {
          "EXT_textureInfo_constant_lod": {
            "repetitions": 3.0,
            "offset": [
              0.5,
              0.5
            ],
            "minClampDistance": 0.0,
            "maxClampDistance": 100.0
          }
        }
      },
      "metallicFactor" : 0.0,
      "roughnessFactor" : 1.0
    },
    "doubleSided" : false
  } ],
  "meshes" : [ {
    "primitives" : [ {
      "attributes" : {
        "POSITION" : 1,
        "NORMAL" : 2,
        "TEXCOORD_0" : 3
      },
      "indices" : 0,
      "material" : 0,
      "mode" : 4
    } ]
  } ],
  "nodes" : [ {
    "children" : [ 1, 2, 4 ],
    "rotation" : [ 0.0, 0.7071067811865475, 0.0, -0.7071067811865476 ]
  }, {
    "mesh" : 0
  }, {
    "children" : [ 3 ],
    "translation" : [ -2.0, 0.0, 0.0 ]
  }, {
    "mesh" : 0,
    "rotation" : [ 0.0, 0.0, 0.707, 0.707 ]
  }, {
    "children" : [ 5 ],
    "translation" : [ 2.0, 0.0, 0.0 ]
  }, {
    "mesh" : 0,
    "scale" : [ 1.0, 5.0, 1.0 ]
  } ],
  "scene" : 0,
  "scenes" : [ {
    "nodes" : [ 0 ]
  } ],
  "textures" : [ {
    "source" : 0
  } ]
}