{
  "asset": {
    "version": "2.0",
    "generator": "EXT_textureInfo_constant_lod example"
  },
  "extensionsUsed": [
    "EXT_textureInfo_constant_lod",
    "KHR_texture_transform"
  ],
  "scene": 0,
  "scenes": [
    {
      "nodes": [
        0
      ]
    }
  ],
  "nodes": [
    {
      "mesh": 0
    }
  ],
  "meshes": [
    {
      "primitives": [
        {
          "attributes": {
            "POSITION": 0,
            "NORMAL": 1,
            "TEXCOORD_0": 3
          },
          "indices": 2,
          "material": 0
        }
      ]
    }
  ],
  "materials": [
    {
      "pbrMetallicRoughness": {
        "baseColorTexture": {
          "index": 0,
          "texCoord": 0,
          "extensions": {
            "KHR_texture_transform": {
              "offset": [0.1, 0.1],
              "scale": [2.0, 2.0],
              "rotation": 0.75
            },
            "EXT_textureInfo_constant_lod": {
              "repetitions": 3.0,
              "offset": [
                0.5,
                0.5
              ],
              "minClampDistance": 0.0,
              "maxClampDistance": 100.0
            }
          }
        },
        "metallicFactor": 0.0,
        "roughnessFactor": 1.0
      },
      "normalTexture": {
        "index": 1,
        "texCoord": 0,
        "extensions": {
          "KHR_texture_transform": {
            "offset": [0.1, 0.1],
            "scale": [2.0, 2.0],
            "rotation": 0.75
          },
          "EXT_textureInfo_constant_lod": {
            "repetitions": 3.0,
            "offset": [
              0.5,
              0.5
            ],
            "minClampDistance": 0.0,
            "maxClampDistance": 100.0
          }
        }
      }
    }
  ],
  "textures": [
    {
      "source": 0
    },
    {
      "source": 1
    }
  ],
  "images": [
    {
      "uri": "checker_texture.png",
      "mimeType": "image/png"
    },
    {
      "uri": "checker_texture_normal.png",
      "mimeType": "image/png"
    }
  ],
  "accessors": [
    {
      "bufferView": 0,
      "componentType": 5126,
      "count": 4,
      "type": "VEC3",
      "max": [
        5.0,
        0.0,
        5.0
      ],
      "min": [
        -5.0,
        0.0,
        -5.0
      ]
    },
    {
      "bufferView": 1,
      "componentType": 5126,
      "count": 4,
      "type": "VEC3",
      "max": [
        0.0,
        1.0,
        0.0
      ],
      "min": [
        0.0,
        1.0,
        0.0
      ]
    },
    {
      "bufferView": 2,
      "componentType": 5123,
      "count": 6,
      "type": "SCALAR",
      "max": [
        3
      ],
      "min": [
        0
      ]
    },
    {
      "bufferView": 3,
      "componentType": 5126,
      "count": 4,
      "type": "VEC2",
      "max": [
        1.0,
        1.0
      ],
      "min": [
        0.0,
        0.0
      ]
    }
  ],
  "bufferViews": [
    {
      "buffer": 0,
      "byteOffset": 0,
      "byteLength": 48,
      "target": 34962
    },
    {
      "buffer": 0,
      "byteOffset": 48,
      "byteLength": 48,
      "target": 34962
    },
    {
      "buffer": 0,
      "byteOffset": 96,
      "byteLength": 12,
      "target": 34963
    },
    {
      "buffer": 0,
      "byteOffset": 108,
      "byteLength": 32,
      "target": 34962
    }
  ],
  "buffers": [
    {
      "uri": "data:application/octet-stream;base64,",
      "byteLength": 140
    }
  ]
}