{
    "accessors": {
        "accessor_21": {
            "bufferView": "bufferView_29",
            "byteOffset": 0,
            "byteStride": 0,
            "componentType": 5123,
            "count": 9,
            "type": "SCALAR"
        },
        "accessor_23": {
            "bufferView": "bufferView_30",
            "byteOffset": 0,
            "byteStride": 12,
            "componentType": 5126,
            "count": 9,
            "max": [
                -1.5781300067901611,
                -1.4049999713897705,
                0.154948994517
            ],
            "min": [
                -1.59375,
                -1.4206299781799316,
                0.13541799783706665
            ],
            "type": "VEC3"
        },
        "accessor_25": {
            "bufferView": "bufferView_30",
            "byteOffset": 108,
            "byteStride": 12,
            "componentType": 5126,
            "count": 9,
            "max": [
                0,
                1,
                0
            ],
            "min": [
                -0.5144960284233093,
                0.40824800729751587,
                -0.8164969682693481
            ],
            "type": "VEC3"
        },
        "accessor_27": {
            "bufferView": "bufferView_30",
            "byteOffset": 216,
            "byteStride": 8,
            "componentType": 5126,
            "count": 9,
            "max": [
                0.007992000319063663,
                0.9994999766349792
            ],
            "min": [
                0.0004999999655410647,
                0.9945799708366394
            ],
            "type": "VEC2"
        }
    },
    "animations": {},
    "asset": {
        "generator": "collada2gltf@",
        "premultipliedAlpha": true,
        "profile": {
            "api": "WebGL",
            "version": "1.0.2"
        },
        "version": 1
    },
    "bufferViews": {
        "bufferView_29": {
            "buffer": "test-shader-optimize",
            "byteLength": 20,
            "byteOffset": 0,
            "target": 34963
        },
        "bufferView_30": {
            "buffer": "test-shader-optimize",
            "byteLength": 288,
            "byteOffset": 20,
            "target": 34962
        }
    },
    "buffers": {
        "test-shader-optimize": {
            "byteLength": 308,
            "type": "arraybuffer",
            "uri": "data:application/octet-stream;base64,"
        }
    },
    "images": {
        "file2": {
            "name": "file2",
            "uri": "data:image/jpeg;base64,"
        }
    },
    "materials": {
        "terrain_detail-fx": {
            "name": "terrain_detail",
            "technique": "technique0",
            "values": {
                "emission": "texture_file2",
                "transparency": 0
            }
        }
    },
    "meshes": {
        "Plane001Shape": {
            "name": "Plane001Shape",
            "primitives": [
                {
                    "attributes": {
                        "NORMAL": "accessor_25",
                        "POSITION": "accessor_23",
                        "TEXCOORD_0": "accessor_27"
                    },
                    "indices": "accessor_21",
                    "material": "terrain_detail-fx",
                    "mode": 4
                }
            ]
        }
    },
    "nodes": {
        "Teimnan_montain_01_Plane001": {
            "children": [],
            "matrix": [
                1,
                0,
                0,
                0,
                0,
                1,
                0,
                0,
                0,
                0,
                1,
                0,
                -0.12109699100255966,
                0.8401089310646057,
                0,
                1
            ],
            "meshes": [
                "Plane001Shape"
            ],
            "name": "Plane001"
        },
        "node_1": {
            "children": [
                "Teimnan_montain_01_Plane001"
            ],
            "matrix": [
                1,
                0,
                0,
                0,
                0,
                0,
                -1,
                0,
                0,
                1,
                0,
                0,
                0,
                0,
                0,
                1
            ],
            "name": "Y_UP_Transform"
        }
    },
    "programs": {
        "program_0": {
            "attributes": [
                "a_normal",
                "a_position",
                "a_texcoord0"
            ],
            "fragmentShader": "test-shader-optimize0FS",
            "vertexShader": "test-shader-optimize0VS"
        }
    },
    "samplers": {
        "sampler_0": {
            "magFilter": 9729,
            "minFilter": 9729,
            "wrapS": 10497,
            "wrapT": 10497
        }
    },
    "scene": "defaultScene",
    "scenes": {
        "defaultScene": {
            "nodes": [
                "node_1"
            ]
        }
    },
    "shaders": {
        "test-shader-optimize0FS": {
            "type": 35632,
            "uri": "data:text/plain;base64,"
        },
        "test-shader-optimize0VS": {
            "type": 35633,
            "uri": "data:text/plain;base64,"
        }
    },
    "skins": {},
    "techniques": {
        "technique0": {
            "attributes": {
                "a_normal": "normal",
                "a_position": "position",
                "a_texcoord0": "texcoord0"
            },
            "parameters": {
                "emission": {
                    "type": 35678
                },
                "modelViewMatrix": {
                    "semantic": "MODELVIEW",
                    "type": 35676
                },
                "normal": {
                    "semantic": "NORMAL",
                    "type": 35665
                },
                "normalMatrix": {
                    "semantic": "MODELVIEWINVERSETRANSPOSE",
                    "type": 35675
                },
                "position": {
                    "semantic": "POSITION",
                    "type": 35665
                },
                "projectionMatrix": {
                    "semantic": "PROJECTION",
                    "type": 35676
                },
                "texcoord0": {
                    "semantic": "TEXCOORD_0",
                    "type": 35664
                },
                "transparency": {
                    "type": 5126
                }
            },
            "program": "program_0",
            "states": {
                "enable": [
                    2929,
                    3042
                ],
                "functions": {
                    "blendEquationSeparate": [
                        32774,
                        32774
                    ],
                    "blendFuncSeparate": [
                        1,
                        771,
                        1,
                        771
                    ],
                    "depthMask": false
                }
            },
            "uniforms": {
                "u_emission": "emission",
                "u_modelViewMatrix": "modelViewMatrix",
                "u_normalMatrix": "normalMatrix",
                "u_projectionMatrix": "projectionMatrix",
                "u_transparency": "transparency"
            }
        }
    },
    "textures": {
        "texture_file2": {
            "format": 6408,
            "internalFormat": 6408,
            "sampler": "sampler_0",
            "source": "file2",
            "target": 3553,
            "type": 5121
        }
    }
}