{
  "asset": {
    "version": "2.0"
  },
  "extensionsUsed": [
    "EXT_mesh_gpu_instancing"
  ],
  "extensionsRequired": [
    "EXT_mesh_gpu_instancing"
  ],
  "scene": 0,
  "scenes": [
    {
      "nodes": [
        0
      ]
    }
  ],
  "nodes": [
    {
      "children": [1],
      "matrix": [
        1.0, 0.0,  0.0, 0.0,
        0.0, 0.0, -1.0, 0.0,
        0.0, 1.0,  0.0, 0.0,
        0.0, 0.0,  0.0, 1.0
        ]
    },
    {
      "children": [2],
      "translation": [
        1215019.2111447915, -4736339.477299974, 4081627.957020979
      ]
    },
    {
      "mesh": 0,
      "extensions": {
        "EXT_mesh_gpu_instancing": {
          "attributes": {
            "TRANSLATION": 3,
            "ROTATION": 4,
            "SCALE": 5,
            "_FEATURE_ID_0": 6
          }
        }
      }
    }
  ],
  "meshes": [
    {
      "primitives": [
        {
          "attributes": {
            "POSITION": 0,
            "NORMAL": 1
          },
          "indices": 2,
          "mode": 4
        }
      ]
    }
  ],
  "accessors": [
    {
      "name": "Positions",
      "bufferView": 0,
      "byteOffset": 0,
      "componentType": 5126,
      "count": 24,
      "max": [
        0.5,
        0.5,
        0.5
      ],
      "min": [
        -0.5,
        -0.5,
        -0.5
      ],
      "type": "VEC3"
    },
    {
      "name": "Normals",
      "bufferView": 1,
      "byteOffset": 0,
      "componentType": 5126,
      "count": 24,
      "type": "VEC3"
    },
    {
      "name": "Indices",
      "bufferView": 2,
      "byteOffset": 0,
      "componentType": 5123,
      "count": 36,
      "type": "SCALAR"
    },
    {
      "name": "Instance Translations",
      "bufferView": 3,
      "byteOffset": 0,
      "componentType": 5126,
      "count": 4,
      "type": "VEC3"
    },
    {
      "name": "Instance Rotations",
      "bufferView": 4,
      "byteOffset": 0,
      "componentType": 5126,
      "count": 4,
      "type": "VEC4"
    },
    {
      "name": "Instance Scales",
      "bufferView": 5,
      "byteOffset": 0,
      "componentType": 5126,
      "count": 4,
      "type": "VEC3"
    },
    {
      "name": "Instance Feature IDs",
      "bufferView": 6,
      "byteOffset": 0,
      "componentType": 5126,
      "count": 4,
      "type": "SCALAR"
    }
  ],
  "bufferViews": [
    {
      "name": "Positions",
      "buffer": 0,
      "byteLength": 288,
      "byteOffset": 0
    },
    {
      "name": "Normals",
      "buffer": 0,
      "byteLength": 288,
      "byteOffset": 288
    },
    {
      "name": "Indices",
      "buffer": 0,
      "byteLength": 72,
      "byteOffset": 576
    },
    {
      "name": "Instance Translations",
      "buffer": 1,
      "byteLength": 48,
      "byteOffset": 0
    },
    {
      "name": "Instance Rotations",
      "buffer": 1,
      "byteLength": 64,
      "byteOffset": 48
    },
    {
      "name": "Instance Scales",
      "buffer": 1,
      "byteLength": 48,
      "byteOffset": 112
    },
    {
      "name": "Instance Feature IDs",
      "buffer": 1,
      "byteLength": 16,
      "byteOffset": 160
    }
  ],
  "buffers": [
    {
      "name": "Geometry Buffer",
      "byteLength": 648,
      "uri": "geometry.bin"
    },
    {
      "name": "Instances Buffer",
      "byteLength": 176,
      "uri": "instances.bin"
    }
  ]
}
