{
  "accessors": [
    {
      "bufferView": 2,
      "componentType": 5126,
      "count": 65532,
      "max": [
        0.3952176868915558,
        0.6624611020088196,
        0.31037211418151855
      ],
      "min": [
        -0.3770497441291809,
        -1.0217618942260742,
        -0.2928965091705322
      ],
      "type": "VEC3"
    },
    {
      "bufferView": 2,
      "byteOffset": 786384,
      "componentType": 5126,
      "count": 65532,
      "max": [
        0.9999952912330627,
        0.9999984502792358,
        0.9999937415122986
      ],
      "min": [
        -0.9999774694442749,
        -0.999981701374054,
        -0.9999980330467224
      ],
      "type": "VEC3"
    },
    {
      "bufferView": 1,
      "componentType": 5126,
      "count": 65532,
      "max": [
        0.9957098960876465,
        0.9957098960876465
      ],
      "min": [
        0.007149021606892347,
        0.00524061918258667
      ],
      "type": "VEC2"
    },
    {
      "bufferView": 0,
      "componentType": 5125,
      "count": 323859,
      "type": "SCALAR"
    },
    {
      "bufferView": 2,
      "byteOffset": 1572768,
      "componentType": 5126,
      "count": 58728,
      "max": [
        0.39509326219558716,
        0.6506738066673279,
        0.3865487575531006
      ],
      "min": [
        -0.376435786485672,
        -1.0217435359954834,
        -0.2506054639816284
      ],
      "type": "VEC3"
    },
    {
      "bufferView": 2,
      "byteOffset": 2277504,
      "componentType": 5126,
      "count": 58728,
      "max": [
        0.9999852776527405,
        0.9999013543128967,
        0.9999666213989258
      ],
      "min": [
        -0.9999868273735046,
        -0.9999974966049194,
        -0.9999334216117859
      ],
      "type": "VEC3"
    },
    {
      "bufferView": 1,
      "byteOffset": 524256,
      "componentType": 5126,
      "count": 58728,
      "max": [
        0.9955984354019165,
        0.9957098960876465
      ],
      "min": [
        0.004290133249014616,
        0.00492781400680542
      ],
      "type": "VEC2"
    },
    {
      "bufferView": 0,
      "byteOffset": 1295436,
      "componentType": 5125,
      "count": 277257,
      "type": "SCALAR"
    }
  ],
  "asset": {
    "extras": {
      "author": "CODAME (https://sketchfab.com/codame)",
      "license": "CC-BY-4.0 (http://creativecommons.org/licenses/by/4.0/)",
      "source": "https://sketchfab.com/3d-models/storm-trooper-55e0194bf96546cba173f655904aac39",
      "title": "Storm Trooper"
    },
    "generator": "Sketchfab-12.68.0",
    "version": "2.0"
  },
  "bufferViews": [
    {
      "buffer": 0,
      "byteLength": 2404464,
      "name": "floatBufferViews",
      "target": 34963
    },
    {
      "buffer": 0,
      "byteLength": 994080,
      "byteOffset": 2404464,
      "byteStride": 8,
      "name": "floatBufferViews",
      "target": 34962
    },
    {
      "buffer": 0,
      "byteLength": 2982240,
      "byteOffset": 3398544,
      "byteStride": 12,
      "name": "floatBufferViews",
      "target": 34962
    }
  ],
  "buffers": [
    {
      "byteLength": 6380784,
      "uri": "scene.bin"
    }
  ],
  "images": [
    {
      "uri": "textures/material_0_baseColor.jpeg"
    }
  ],
  "materials": [
    {
      "doubleSided": true,
      "name": "material_0",
      "pbrMetallicRoughness": {
        "baseColorTexture": {
          "index": 0
        },
        "metallicFactor": 0.0,
        "roughnessFactor": 0.6
      }
    }
  ],
  "meshes": [
    {
      "name": "Object_0",
      "primitives": [
        {
          "attributes": {
            "NORMAL": 1,
            "POSITION": 0,
            "TEXCOORD_0": 2
          },
          "indices": 3,
          "material": 0,
          "mode": 4
        }
      ]
    },
    {
      "name": "Object_1",
      "primitives": [
        {
          "attributes": {
            "NORMAL": 5,
            "POSITION": 4,
            "TEXCOORD_0": 6
          },
          "indices": 7,
          "material": 0,
          "mode": 4
        }
      ]
    }
  ],
  "nodes": [
    {
      "children": [
        1
      ],
      "matrix": [
        1.0,
        0.0,
        0.0,
        0.0,
        0.0,
        0.9999998211860657,
        0.000613090000115557,
        0.0,
        0.0,
        -0.000613090000115557,
        0.9999998211860657,
        0.0,
        0.0,
        0.22650152444839475,
        0.13293248414993292,
        1.0
      ],
      "name": "Sketchfab_model"
    },
    {
      "children": [
        2,
        3
      ],
      "name": "Geode"
    },
    {
      "mesh": 0,
      "name": "Object_2"
    },
    {
      "mesh": 1,
      "name": "Object_3"
    }
  ],
  "samplers": [
    {
      "magFilter": 9729,
      "minFilter": 9987,
      "wrapS": 33071,
      "wrapT": 33071
    }
  ],
  "scene": 0,
  "scenes": [
    {
      "name": "Sketchfab_Scene",
      "nodes": [
        0
      ]
    }
  ],
  "textures": [
    {
      "sampler": 0,
      "source": 0
    }
  ]
}
