{
  "extensionsUsed": ["KHR_mesh_quantization"],
  "extensionsRequired": ["KHR_mesh_quantization"],
  "accessors": [{
      "bufferView": 0,
      "byteOffset": 0,
      "componentType": 5121,
      "normalized": true,
      "count": 576,
      "type": "VEC3",
      "max": [127.0, 127.0, 127.0],
      "min": [0.0, 0.0, 0.0]
    }, {
      "bufferView": 1,
      "byteOffset": 0,
      "componentType": 5120,
      "normalized": true,
      "count": 576,
      "type": "VEC3"
    }, {
      "bufferView": 2,
      "byteOffset": 0,
      "componentType": 5123,
      "count": 3456,
      "type": "SCALAR"
    }],
  "asset": {
    "version": "2.0"
  },
  "buffers": [{
      "uri": "data:application/octet-stream;base64,",
      "byteLength": 11520
    }],
  "bufferViews": [{
      "buffer": 0,
      "byteOffset": 0,
      "byteLength": 2304,
      "byteStride": 4,
      "target": 34962
    }, {
      "buffer": 0,
      "byteOffset": 2304,
      "byteLength": 2304,
      "byteStride": 4,
      "target": 34962
    }, {
      "buffer": 0,
      "byteOffset": 4608,
      "byteLength": 6912,
      "target": 34963
    }],
  "materials": [{}],
  "meshes": [{
      "primitives": [{
          "attributes": {
            "NORMAL": 1,
            "POSITION": 0
          },
          "indices": 2,
          "material": 0
        }]
    }],
  "nodes": [{
      "matrix": [5.019685039370079, 0.0, 0.0, 0.0, 0.0, 0.0, -5.019685039370079, 0.0, 0.0, 1.0039370078740157, 0.0, 0.0, -1.25, -0.25, 1.25, 1.0],
      "mesh": 0
    }],
  "scene": 0,
  "scenes": [{
      "nodes": [0]
    }]
}