{
  "scene" : 0,
  "scenes":[
    {
      "nodes":[
        0
      ]
    }
  ],
  "nodes":[
    {
      "mesh":0
    }
  ],
  "meshes":[
    {
      "primitives":[
        {
          "attributes":{
            "POSITION":1
          },
          "targets":[
            {
              "POSITION":2
            },
            {
              "POSITION":3
            }
          ],
          "indices":0
        }
      ],
      "weights":[
        0.5,
        0.5
      ]
    }
  ],
  "animations":[
    {
      "samplers":[
        {
          "input":4,
          "interpolation":"LINEAR",
          "output":5
        }
      ],
      "channels":[
        {
          "sampler":0,
          "target":{
            "node":0,
            "path":"weights"
          }
        }
      ]
    }
  ],
  "buffers":[
    {
      "uri" : "simpleMorphGeometry.bin",
      "byteLength":116
    },
    {
      "uri" : "simpleMorphAnimation.bin",
      "byteLength":60
    }
  ],
  "bufferViews":[
    {
      "buffer":0,
      "byteOffset":0,
      "byteLength":6,
      "target":34963
    },
    {
      "buffer":0,
      "byteOffset":8,
      "byteLength":108,
      "byteStride":12,
      "target":34962
    },
    {
      "buffer":1,
      "byteOffset":0,
      "byteLength":20
    },
    {
      "buffer":1,
      "byteOffset":20,
      "byteLength":40
    }
  ],
  "accessors":[
    {
      "bufferView":0,
      "byteOffset":0,
      "componentType":5123,
      "count":3,
      "type":"SCALAR",
      "max":[
        2
      ],
      "min":[
        0
      ]
    },
    {
      "bufferView":1,
      "byteOffset":0,
      "componentType":5126,
      "count":3,
      "type":"VEC3",
      "max":[
        1.0,
        0.5,
        0.0
      ],
      "min":[
        0.0,
        0.0,
        0.0
      ]
    },
    {
      "bufferView":1,
      "byteOffset":36,
      "componentType":5126,
      "count":3,
      "type":"VEC3",
      "max":[
        0.0,
        1.0,
        0.0
      ],
      "min":[
        -1.0,
        0.0,
        0.0
      ]
    },
    {
      "bufferView":1,
      "byteOffset":72,
      "componentType":5126,
      "count":3,
      "type":"VEC3",
      "max":[
        1.0,
        1.0,
        0.0
      ],
      "min":[
        0.0,
        0.0,
        0.0
      ]
    },
    {
      "bufferView":2,
      "byteOffset":0,
      "componentType":5126,
      "count":5,
      "type":"SCALAR",
      "max":[
        4.0
      ],
      "min":[
        0.0
      ]
    },
    {
      "bufferView":3,
      "byteOffset":0,
      "componentType":5126,
      "count":10,
      "type":"SCALAR",
      "max":[
        1.0
      ],
      "min":[
        0.0
      ]
    }
  ],
  "asset":{
    "version":"2.0"
  }
}
