{
    "accessors": {
        "accessor_29": {
            "bufferView": "bufferView_64",
            "byteOffset": 0,
            "byteStride": 0,
            "componentType": 5123,
            "count": 384,
            "type": "SCALAR"
        },
        "accessor_31": {
            "bufferView": "bufferView_65",
            "byteOffset": 0,
            "byteStride": 12,
            "componentType": 5126,
            "count": 224,
            "max": [
                0.5,
                0.5,
                0.5
            ],
            "min": [
                -0.5,
                -0.5,
                -0.5
            ],
            "type": "VEC3"
        },
        "accessor_33": {
            "bufferView": "bufferView_65",
            "byteOffset": 2688,
            "byteStride": 12,
            "componentType": 5126,
            "count": 224,
            "max": [
                1,
                1,
                1
            ],
            "min": [
                -1,
                -1,
                -1
            ],
            "type": "VEC3"
        },
        "accessor_35": {
            "bufferView": "bufferView_65",
            "byteOffset": 5376,
            "byteStride": 8,
            "componentType": 5126,
            "count": 224,
            "max": [
                1.00077,
                1.00133
            ],
            "min": [
                -0.00075,
                0.00132602
            ],
            "type": "VEC2"
        },
        "accessor_56": {
            "bufferView": "bufferView_64",
            "byteOffset": 768,
            "byteStride": 0,
            "componentType": 5123,
            "count": 132,
            "type": "SCALAR"
        },
        "accessor_58": {
            "bufferView": "bufferView_65",
            "byteOffset": 7168,
            "byteStride": 12,
            "componentType": 5126,
            "count": 96,
            "max": [
                0.33504,
                0.5,
                0.33504
            ],
            "min": [
                -0.33504,
                -0.5,
                -0.33504
            ],
            "type": "VEC3"
        },
        "accessor_60": {
            "bufferView": "bufferView_65",
            "byteOffset": 8320,
            "byteStride": 12,
            "componentType": 5126,
            "count": 96,
            "max": [
                1,
                1,
                1
            ],
            "min": [
                -1,
                -1,
                -1
            ],
            "type": "VEC3"
        },
        "accessor_62": {
            "bufferView": "bufferView_65",
            "byteOffset": 9472,
            "byteStride": 8,
            "componentType": 5126,
            "count": 96,
            "max": [
                0.405625,
                0.905582
            ],
            "min": [
                0.344375,
                0.094418
            ],
            "type": "VEC2"
        },
        "animAccessor_0": {
            "bufferView": "bufferView_63",
            "byteOffset": 0,
            "componentType": 5126,
            "count": 2,
            "type": "SCALAR"
        },
        "animAccessor_1": {
            "bufferView": "bufferView_63",
            "byteOffset": 8,
            "componentType": 5126,
            "count": 2,
            "type": "VEC4"
        },
        "animAccessor_2": {
            "bufferView": "bufferView_63",
            "byteOffset": 40,
            "componentType": 5126,
            "count": 4,
            "type": "SCALAR"
        },
        "animAccessor_3": {
            "bufferView": "bufferView_63",
            "byteOffset": 56,
            "componentType": 5126,
            "count": 4,
            "type": "VEC3"
        }
    },
    "animations": {
        "animation_0": {
            "channels": [
                {
                    "sampler": "animation_0_rotation_sampler",
                    "target": {
                        "id": "Geometry-mesh020Node",
                        "path": "rotation"
                    }
                }
            ],
            "count": 2,
            "parameters": {
                "TIME": "animAccessor_0",
                "rotation": "animAccessor_1"
            },
            "samplers": {
                "animation_0_rotation_sampler": {
                    "input": "TIME",
                    "interpolation": "LINEAR",
                    "output": "rotation"
                }
            }
        },
        "animation_1": {
            "channels": [
                {
                    "sampler": "animation_1_translation_sampler",
                    "target": {
                        "id": "Geometry-mesh020Node",
                        "path": "translation"
                    }
                }
            ],
            "count": 4,
            "parameters": {
                "TIME": "animAccessor_2",
                "translation": "animAccessor_3"
            },
            "samplers": {
                "animation_1_translation_sampler": {
                    "input": "TIME",
                    "interpolation": "LINEAR",
                    "output": "translation"
                }
            }
        }
    },
    "asset": {
        "generator": "collada2gltf@df4892809111a8c6dbff4fab6c386a24745d344e",
        "premultipliedAlpha": true,
        "profile": "WebGL 1.0.2",
        "version": 0.8
    },
    "bufferViews": {
        "bufferView_63": {
            "buffer": "anim-test-1-boxes",
            "byteLength": 104,
            "byteOffset": 0
        },
        "bufferView_64": {
            "buffer": "anim-test-1-boxes",
            "byteLength": 1032,
            "byteOffset": 104,
            "target": 34963
        },
        "bufferView_65": {
            "buffer": "anim-test-1-boxes",
            "byteLength": 10240,
            "byteOffset": 1136,
            "target": 34962
        }
    },
    "buffers": {
        "anim-test-1-boxes": {
            "byteLength": 11376,
            "type": "arraybuffer",
            "uri": "data:application/octet-stream;base64,"
        }
    },
    "lights": {
        "Light-polyRender005": {
            "ambient": {
                "color": [
                    0,
                    0,
                    0
                ]
            },
            "type": "ambient"
        },
        "Light-sunLight011": {
            "directional": {
                "color": [
                    1,
                    1,
                    1
                ]
            },
            "type": "directional"
        }
    },
    "materials": {
        "Effect-inner": {
            "instanceTechnique": {
                "technique": "technique1",
                "values": {
                    "diffuse": [
                        0.8,
                        0.415942,
                        0.795292,
                        1
                    ],
                    "shininess": 256,
                    "specular": [
                        0.2,
                        0.2,
                        0.2,
                        1
                    ]
                }
            },
            "name": "inner"
        },
        "Effect-outer": {
            "instanceTechnique": {
                "technique": "technique1",
                "values": {
                    "diffuse": [
                        0.301604,
                        0.533542,
                        0.8,
                        1
                    ],
                    "shininess": 256,
                    "specular": [
                        0.2,
                        0.2,
                        0.2,
                        1
                    ]
                }
            },
            "name": "outer"
        }
    },
    "meshes": {
        "Geometry-mesh019": {
            "name": "outer_box",
            "primitives": [
                {
                    "attributes": {
                        "NORMAL": "accessor_33",
                        "POSITION": "accessor_31",
                        "TEXCOORD_0": "accessor_35"
                    },
                    "indices": "accessor_29",
                    "material": "Effect-outer",
                    "primitive": 4
                }
            ]
        },
        "Geometry-mesh020": {
            "name": "inner_box",
            "primitives": [
                {
                    "attributes": {
                        "NORMAL": "accessor_60",
                        "POSITION": "accessor_58",
                        "TEXCOORD_0": "accessor_62"
                    },
                    "indices": "accessor_56",
                    "material": "Effect-inner",
                    "primitive": 4
                }
            ]
        }
    },
    "nodes": {
        "Camera-camera002Node": {
            "camera": "camera_0",
            "children": [],
            "matrix": [
                1,
                0,
                0,
                0,
                0,
                0.996195,
                -0.0871557,
                0,
                0,
                0.0871557,
                0.996195,
                0,
                0,
                0.75,
                4,
                1
            ],
            "name": "Camera"
        },
        "Geometry-mesh019Node": {
            "children": [],
            "matrix": [
                1,
                0,
                0,
                0,
                0,
                1,
                0,
                0,
                0,
                0,
                1,
                0,
                0,
                0,
                0,
                1
            ],
            "meshes": [
                "Geometry-mesh019"
            ],
            "name": "outer_box"
        },
        "Geometry-mesh020Node": {
            "children": [],
            "meshes": [
                "Geometry-mesh020"
            ],
            "name": "inner_box",
            "rotation": [
                1,
                0,
                0,
                0
            ],
            "scale": [
                1,
                1,
                1
            ],
            "translation": [
                0,
                0,
                0
            ]
        },
        "Light-sunLight011Node": {
            "children": [],
            "light": "Light-sunLight011",
            "matrix": [
                0.707107,
                0,
                0.707107,
                0,
                0.353553,
                0.866025,
                -0.353553,
                0,
                -0.612372,
                0.5,
                0.612372,
                0,
                -2,
                2,
                2,
                1
            ],
            "name": "Directional_Light"
        },
        "polyRender005": {
            "children": [],
            "light": "Light-polyRender005",
            "matrix": [
                1,
                0,
                0,
                0,
                0,
                1,
                0,
                0,
                0,
                0,
                1,
                0,
                0,
                0,
                0,
                1
            ],
            "name": "Render"
        }
    },
    "programs": {
        "program_0": {
            "attributes": [
                "a_normal",
                "a_position"
            ],
            "fragmentShader": "anim-test-1-boxes0FS",
            "vertexShader": "anim-test-1-boxes0VS"
        }
    },
    "scene": "defaultScene",
    "scenes": {
        "defaultScene": {
            "nodes": [
                "polyRender005",
                "Geometry-mesh019Node",
                "Geometry-mesh020Node",
                "Camera-camera002Node",
                "Light-sunLight011Node"
            ]
        }
    },
    "shaders": {
        "anim-test-1-boxes0FS": {
            "type": 35632,
            "uri": "data:text/plain;base64,"
        },
        "anim-test-1-boxes0VS": {
            "type": 35633,
            "uri": "data:text/plain;base64,"
        }
    },
    "skins": {},
    "techniques": {
        "technique1": {
            "parameters": {
                "diffuse": {
                    "type": 35666
                },
                "light0Color": {
                    "type": 35665,
                    "value": [
                        0,
                        0,
                        0
                    ]
                },
                "light1Color": {
                    "type": 35665,
                    "value": [
                        1,
                        1,
                        1
                    ]
                },
                "light1Transform": {
                    "semantic": "MODELVIEW",
                    "source": "Light-sunLight011Node",
                    "type": 35676
                },
                "modelViewMatrix": {
                    "semantic": "MODELVIEW",
                    "type": 35676
                },
                "normal": {
                    "semantic": "NORMAL",
                    "type": 35665
                },
                "normalMatrix": {
                    "semantic": "MODELVIEWINVERSETRANSPOSE",
                    "type": 35675
                },
                "position": {
                    "semantic": "POSITION",
                    "type": 35665
                },
                "projectionMatrix": {
                    "semantic": "PROJECTION",
                    "type": 35676
                },
                "shininess": {
                    "type": 5126
                },
                "specular": {
                    "type": 35666
                }
            },
            "pass": "defaultPass",
            "passes": {
                "defaultPass": {
                    "details": {
                        "commonProfile": {
                            "extras": {
                                "doubleSided": false
                            },
                            "lightingModel": "Phong",
                            "parameters": [
                                "diffuse",
                                "light0Color",
                                "light1Color",
                                "light1Transform",
                                "modelViewMatrix",
                                "normalMatrix",
                                "projectionMatrix",
                                "shininess",
                                "specular"
                            ]
                        },
                        "type": "COLLADA-1.4.1/commonProfile"
                    },
                    "instanceProgram": {
                        "attributes": {
                            "a_normal": "normal",
                            "a_position": "position"
                        },
                        "program": "program_0",
                        "uniforms": {
                            "u_diffuse": "diffuse",
                            "u_light0Color": "light0Color",
                            "u_light1Color": "light1Color",
                            "u_light1Transform": "light1Transform",
                            "u_modelViewMatrix": "modelViewMatrix",
                            "u_normalMatrix": "normalMatrix",
                            "u_projectionMatrix": "projectionMatrix",
                            "u_shininess": "shininess",
                            "u_specular": "specular"
                        }
                    },
                    "states": {
                        "enable": [
                            2884,
                            2929
                        ]
                    }
                }
            }
        }
    }
}