{
  "accessors": [
    {
      "bufferView": 0,
      "byteOffset": 0,
      "componentType": 5126,
      "count": 240,
      "type": "VEC3",
      "min": [
        -69.262685040012,
        -63.42564369086176,
        -51.21932876482606
      ],
      "max": [
        84.98775890329853,
        61.14907375629991,
        46.49423664715141
      ]
    },
    {
      "bufferView": 1,
      "byteOffset": 0,
      "componentType": 5126,
      "count": 240,
      "type": "VEC3",
      "min": [
        -0.9686407230533828,
        -0.7415693003175017,
        -0.7655772493024053
      ],
      "max": [
        0.9686407230533828,
        0.7415693003175017,
        0.7655772493024053
      ]
    },
    {
      "bufferView": 2,
      "byteOffset": 0,
      "componentType": 5123,
      "count": 360,
      "type": "SCALAR",
      "min": [
        0
      ],
      "max": [
        239
      ]
    }
  ],
  "asset": {
    "copyright": "Most Frequent Copyright; Second Repeated Copyright; Unique Copyright",
    "generator": "3d-tiles-samples-generator",
    "version": "2.0"
  },
  "buffers": [
    {
      "name": "buffer",
      "byteLength": 6480,
      "uri": "data:application/octet-stream;base64,"
    }
  ],
  "bufferViews": [
    {
      "buffer": 0,
      "byteLength": 2880,
      "byteOffset": 0,
      "target": 34962,
      "byteStride": 12
    },
    {
      "buffer": 0,
      "byteLength": 2880,
      "byteOffset": 2880,
      "target": 34962,
      "byteStride": 12
    },
    {
      "buffer": 0,
      "byteLength": 720,
      "byteOffset": 5760,
      "target": 34963
    }
  ],
  "materials": [
    {
      "pbrMetallicRoughness": {
        "baseColorFactor": [
          1,
          1,
          1,
          1
        ],
        "roughnessFactor": 1,
        "metallicFactor": 0
      },
      "alphaMode": "OPAQUE",
      "doubleSided": false,
      "emissiveFactor": [
        0,
        0,
        0
      ]
    }
  ],
  "meshes": [
    {
      "primitives": [
        {
          "attributes": {
            "POSITION": 0,
            "NORMAL": 1
          },
          "indices": 2,
          "material": 0,
          "mode": 4
        }
      ]
    }
  ],
  "nodes": [
    {
      "name": "Z_UP_TO_Y_UP",
      "matrix": [
        1,
        0,
        0,
        0,
        0,
        0,
        -1,
        0,
        0,
        1,
        0,
        0,
        0,
        0,
        0,
        1
      ],
      "children": [
        1
      ]
    },
    {
      "name": "RTC_CENTER",
      "translation": [
        1214914.5525041146,
        -4736388.031625768,
        4081548.0407588882
      ],
      "mesh": 0
    }
  ],
  "scene": 0,
  "scenes": [
    {
      "nodes": [
        0
      ]
    }
  ]
}
