{
  "extensionsUsed": ["KHR_materials_unlit", "KHR_gaussian_splatting"],
  "accessors": [{
      "bufferView": 0,
      "componentType": 5126,
      "count": 5,
      "type": "VEC4"
    }, {
      "bufferView": 1,
      "componentType": 5126,
      "count": 5,
      "type": "VEC3"
    }, {
      "bufferView": 2,
      "componentType": 5126,
      "count": 5,
      "type": "VEC3",
      "max": [2.0, 2.0, 2.0],
      "min": [-2.0, -2.0, -2.0]
    }, {
      "bufferView": 3,
      "componentType": 5121,
      "normalized": true,
      "count": 5,
      "type": "VEC4"
    }],
  "asset": {
    "version": "2.0"
  },
  "buffers": [{
      "uri": "data:application/octet-stream;base64,",
      "byteLength": 220
    }],
  "bufferViews": [{
      "buffer": 0,
      "byteOffset": 140,
      "byteLength": 80
    }, {
      "buffer": 0,
      "byteOffset": 80,
      "byteLength": 60
    }, {
      "buffer": 0,
      "byteLength": 60
    }, {
      "buffer": 0,
      "byteOffset": 60,
      "byteLength": 20
    }],
  "materials": [{
      "extensions": {
        "KHR_materials_unlit": {}
      }
    }],
  "meshes": [{
      "primitives": [{
          "attributes": {
            "COLOR_0": 3,
            "POSITION": 2,
            "_SCALE": 1,
            "_ROTATION": 0
          },
          "material": 0,
          "mode": 0,
          "extensions": {
            "KHR_gaussian_splatting": {}
          }
        }]
    }],
  "nodes": [{
      "matrix": [1.0, 0.0, 0.0, 0.0, 0.0, 0.0, -1.0, 0.0, 0.0, 1.0, 0.0, 0.0, 2.0000000000000004, 12.000000000000002, -6.999999999999999, 1.0],
      "mesh": 0
    }],
  "scene": 0,
  "scenes": [{
      "nodes": [0]
    }]
}