<?xml version="1.0" encoding="utf-8"?>
<!-- Generator: Adobe Illustrator 23.0.3, SVG Export Plug-In . SVG Version: 6.00 Build 0)  -->
<svg version="1.1" id="Layer_1" xmlns="http://www.w3.org/2000/svg" xmlns:xlink="http://www.w3.org/1999/xlink" x="0px" y="0px"
	 viewBox="0 0 569.87 121.78" style="enable-background:new 0 0 569.87 121.78;" xml:space="preserve">
<style type="text/css">
	.st0{fill:#FFFFFF;}
	.st1{fill:#709C49;}
	.st2{fill:#6DABE4;}
</style>
<g>
	<path class="st0" d="M147.35,98.54c-3.51-0.73-6.28-2.01-8.33-3.86s-3.48-4.36-4.32-7.52c-0.85-3.17-1.27-7.17-1.27-11.99v-7.4
		c0-5.72,0.43-10.32,1.3-13.79c0.87-3.48,2.35-6.15,4.46-8.03c2.11-1.88,4.93-3.14,8.49-3.79c3.56-0.64,8.06-0.96,13.5-0.96h12.45
		c5.71,0,10.43,0.26,14.13,0.8c3.7,0.53,6.61,1.54,8.75,2.99c2.13,1.46,3.62,3.47,4.46,6.05c0.84,2.58,1.26,5.92,1.26,10.01h-14.46
		c0-1.12-0.15-2.12-0.47-2.99c-0.3-0.87-0.97-1.6-1.97-2.19c-1.01-0.59-2.49-1.02-4.45-1.3c-1.96-0.28-4.6-0.42-7.9-0.42h-10.76
		c-3.14,0-5.68,0.12-7.61,0.38c-1.94,0.25-3.42,0.83-4.45,1.72c-1.04,0.9-1.73,2.24-2.06,4.03c-0.34,1.8-0.51,4.24-0.51,7.32v6.38
		c0,2.86,0.17,5.13,0.51,6.81c0.33,1.68,1.01,2.99,2.02,3.9c1.01,0.93,2.43,1.53,4.28,1.81s4.29,0.42,7.32,0.42h11.44
		c3.08,0,5.59-0.09,7.52-0.25c1.93-0.17,3.43-0.53,4.5-1.09s1.79-1.35,2.14-2.35c0.37-1.01,0.55-2.33,0.55-3.95h14.46
		c0,3.87-0.32,7.11-0.97,9.71c-0.64,2.6-1.99,4.7-4.04,6.26c-2.04,1.57-4.97,2.69-8.78,3.36s-8.83,1.01-15.05,1.01h-12.78
		C155.29,99.63,150.85,99.27,147.35,98.54"/>
	<path class="st0" d="M271.67,41.19v11.6h-45.74v10.76h44.31v11.69h-44.31v12.61h45.74v11.69h-59.7V41.19H271.67z"/>
	<path class="st0" d="M328.17,41.19c7.35,0,12.79,1.34,16.31,4.03c3.53,2.69,5.3,6.84,5.3,12.45h-15.05c0-0.9-0.1-1.66-0.29-2.27
		c-0.2-0.62-0.56-1.12-1.09-1.51s-1.27-0.68-2.19-0.84c-0.92-0.17-2.12-0.26-3.57-0.26h-23.46c-1.96,0-3.59,0.35-4.87,1.05
		c-1.3,0.7-1.93,2.17-1.93,4.41c0,1.18,0.16,2.09,0.5,2.74s0.8,1.12,1.38,1.43c0.59,0.31,1.31,0.51,2.15,0.59s1.76,0.15,2.78,0.21
		l25.82,1.01c3.31,0.11,6.21,0.38,8.7,0.8c2.49,0.42,4.57,1.23,6.22,2.44s2.91,2.93,3.74,5.17c0.84,2.24,1.27,5.29,1.27,9.17
		c0,3.14-0.33,5.81-1.01,8.02c-0.68,2.21-1.78,4.05-3.33,5.51c-1.54,1.46-3.57,2.52-6.09,3.19c-2.52,0.68-5.61,1.01-9.25,1.01
		h-28.93c-3.7,0-6.81-0.33-9.34-1.01c-2.52-0.67-4.55-1.69-6.09-3.06c-1.54-1.37-2.64-3.1-3.29-5.18c-0.64-2.07-0.96-4.51-0.96-7.31
		h14.3c0,1.46,0.64,2.64,1.93,3.53c1.29,0.9,2.91,1.35,4.88,1.35h23.38c3.08,0,5.39-0.39,6.89-1.18c1.52-0.79,2.26-2.35,2.26-4.71
		c0-1.07-0.13-1.97-0.42-2.74c-0.29-0.75-0.76-1.39-1.47-1.93c-0.71-0.53-1.68-0.94-2.95-1.21c-1.26-0.28-2.9-0.48-4.92-0.59
		l-22.37-0.92c-3.98-0.17-7.33-0.45-10.04-0.84c-2.73-0.39-4.95-1.14-6.7-2.23c-1.73-1.09-2.98-2.69-3.74-4.79
		c-0.75-2.11-1.14-4.97-1.14-8.62c0-3.08,0.39-5.7,1.18-7.86c0.79-2.15,2.02-3.91,3.69-5.25c1.69-1.35,3.86-2.31,6.52-2.9
		s5.87-0.88,9.63-0.88h25.66V41.19z"/>
	<rect x="359.68" y="41.19" class="st0" width="13.97" height="58.35"/>
	<path class="st0" d="M397.38,77.35c0,2.02,0.22,3.7,0.67,5.05c0.44,1.35,1.16,2.41,2.15,3.2c0.98,0.79,2.28,1.35,3.91,1.68
		c1.62,0.34,3.61,0.51,5.96,0.51h15.14c2.24,0,4.14-0.17,5.72-0.51c1.56-0.33,2.82-0.91,3.78-1.72c0.95-0.81,1.65-1.9,2.1-3.24
		c0.45-1.35,0.67-3.03,0.67-5.05V41.11h14.05V78.7c0,3.87-0.4,7.12-1.18,9.75c-0.79,2.64-2.1,4.77-3.95,6.39
		c-1.85,1.63-4.3,2.8-7.36,3.54c-3.06,0.73-6.83,1.09-11.31,1.09h-20.69c-4.32,0-7.95-0.38-10.92-1.13
		c-2.97-0.76-5.42-1.98-7.32-3.66c-1.91-1.68-3.28-3.84-4.12-6.47c-0.85-2.64-1.27-5.8-1.27-9.5v-37.6h13.96L397.38,77.35
		L397.38,77.35z"/>
	<path class="st0" d="M482.95,41.19L507,84.16l24.89-42.97h20.93v58.35h-14.04V56.66l-24.21,42.89h-15.13L475.3,56.66v42.89h-13.95
		V41.19H482.95z"/>
	<path class="st0" d="M562.83,47.02h0.66c0.77,0,1.38-0.26,1.38-0.88c0-0.54-0.4-0.91-1.27-0.91c-0.37,0-0.62,0.04-0.77,0.07
		L562.83,47.02L562.83,47.02z M562.8,50.41h-1.38v-5.98c0.55-0.11,1.31-0.18,2.29-0.18c1.13,0,1.64,0.18,2.08,0.43
		c0.33,0.25,0.58,0.73,0.58,1.31c0,0.66-0.51,1.17-1.24,1.39v0.07c0.58,0.22,0.91,0.65,1.09,1.46c0.18,0.91,0.29,1.27,0.44,1.49
		h-1.49c-0.18-0.22-0.29-0.77-0.47-1.46c-0.11-0.66-0.47-0.95-1.24-0.95h-0.66L562.8,50.41L562.8,50.41z M559.12,47.28
		c0,2.66,1.97,4.77,4.67,4.77c2.62,0,4.55-2.11,4.55-4.74c0-2.66-1.93-4.81-4.59-4.81C561.08,42.5,559.12,44.65,559.12,47.28
		 M569.87,47.28c0,3.39-2.66,6.05-6.13,6.05c-3.42,0-6.16-2.66-6.16-6.05c0-3.32,2.74-5.98,6.16-5.98
		C567.21,41.3,569.87,43.96,569.87,47.28"/>
	<path class="st0" d="M0,60.89C0,27.26,27.26,0,60.89,0s60.89,27.26,60.89,60.89s-27.26,60.89-60.89,60.89S0,94.52,0,60.89"/>
	<path class="st1" d="M110.13,52.93c-1.77,0-3.47,0.98-4.82,2.75l-16.86,22.3c-2.79,3.69-6.75,5.81-10.87,5.81h-0.06
		c-4.12,0-8.09-2.11-10.87-5.81l-16.86-22.3c-1.34-1.77-3.05-2.75-4.82-2.75c-1.76,0-3.48,0.98-4.81,2.75L23.3,77.98
		c-2.77,3.66-6.7,5.78-10.78,5.81c8.59,18.12,27,30.68,48.38,30.68c29.59,0,53.58-23.99,53.58-53.57c0-2.1-0.15-4.16-0.38-6.17
		C112.91,53.57,111.54,52.93,110.13,52.93"/>
	<path class="st2" d="M78.79,41.33c-3.1,0-5.6-2.51-5.6-5.6s2.5-5.6,5.6-5.6c3.09,0,5.6,2.51,5.6,5.6
		C84.39,38.82,81.88,41.33,78.79,41.33 M60.89,7.32C31.3,7.32,7.31,31.3,7.31,60.9c0,4.7,0.67,9.24,1.81,13.6
		c1.01,0.78,2.14,1.23,3.29,1.23c1.78,0,3.49-0.98,4.83-2.74l16.86-22.3c2.78-3.7,6.75-5.81,10.87-5.81s8.08,2.11,10.87,5.81
		l16.22,21.45l0.7,0.86c1.34,1.76,3.04,2.73,4.79,2.74c1.75-0.01,3.46-0.98,4.79-2.74l0.71-0.86l16.22-21.45
		c2.79-3.7,6.75-5.81,10.86-5.81c0.65,0,1.31,0.07,1.95,0.17C105.32,23.19,84.96,7.32,60.89,7.32"/>
</g>
</svg>
