{
  "extensionsUsed": [
    "CESIUM_edge_indices",
    "EXT_meshopt_compression",
    "KHR_mesh_quantization"
  ],
  "extensionsRequired": ["EXT_meshopt_compression", "KHR_mesh_quantization"],
  "accessors": [
    {
      "bufferView": 0,
      "byteOffset": 0,
      "componentType": 5123,
      "normalized": true,
      "count": 275,
      "type": "VEC3",
      "max": [65535.0, 65535.0, 65535.0],
      "min": [0.0, 0.0, 0.0]
    },
    {
      "bufferView": 1,
      "byteOffset": 0,
      "componentType": 5120,
      "normalized": true,
      "count": 275,
      "type": "VEC3"
    },
    {
      "bufferView": 2,
      "byteOffset": 0,
      "componentType": 5123,
      "count": 1494,
      "type": "SCALAR"
    }
  ],
  "asset": { "version": "2.0" },
  "buffers": [{ "uri": "AlaskaMeshopt.bin", "byteLength": 2544 }, { "byteLength": 6400 }],
  "bufferViews": [
    {
      "buffer": 1,
      "byteOffset": 0,
      "byteLength": 2200,
      "byteStride": 8,
      "extensions": {
        "EXT_meshopt_compression": {
          "buffer": 0,
          "byteLength": 1634,
          "byteOffset": 0,
          "byteStride": 8,
          "count": 275,
          "mode": "ATTRIBUTES"
        }
      }
    },
    {
      "buffer": 1,
      "byteOffset": 2200,
      "byteLength": 1100,
      "byteStride": 4,
      "extensions": {
        "EXT_meshopt_compression": {
          "buffer": 0,
          "byteLength": 241,
          "byteOffset": 1636,
          "byteStride": 4,
          "count": 275,
          "filter": "OCTAHEDRAL",
          "mode": "ATTRIBUTES"
        }
      }
    },
    {
      "buffer": 1,
      "byteOffset": 3300,
      "byteLength": 2988,
      "extensions": {
        "EXT_meshopt_compression": {
          "buffer": 0,
          "byteLength": 584,
          "byteOffset": 1880,
          "byteStride": 2,
          "count": 1494,
          "mode": "TRIANGLES"
        }
      }
    }
  ],
  "meshes": [
    {
      "primitives": [
        { "attributes": { "NORMAL": 1, "POSITION": 0 }, "indices": 2 }
      ]
    }
  ],
  "nodes": [
    {
      "mesh": 0,
      "matrix": [
        -23986.483700423927, -243538.85601000626, 0.0, 0.0, 1242328.295605297,
        -122358.65726447998, 122950.6984835224, 0.0, -3063.145216447267,
        301.69347105467667, 31251.11797944853, 0.0, -1230277.085023845,
        244122.35349788969, 6233223.726029233, 1.0
      ]
    }
  ],
  "scenes": [{ "nodes": [0] }]
}
