<?xml version="1.0" encoding="UTF-8" standalone="no"?>
<!-- Generator: Adobe Illustrator 16.0.0, SVG Export Plug-In . SVG Version: 6.00 Build 0)  -->

<svg
   xmlns:dc="http://purl.org/dc/elements/1.1/"
   xmlns:cc="http://creativecommons.org/ns#"
   xmlns:rdf="http://www.w3.org/1999/02/22-rdf-syntax-ns#"
   xmlns:svg="http://www.w3.org/2000/svg"
   xmlns="http://www.w3.org/2000/svg"
   xmlns:sodipodi="http://sodipodi.sourceforge.net/DTD/sodipodi-0.dtd"
   xmlns:inkscape="http://www.inkscape.org/namespaces/inkscape"
   version="1.1"
   id="Capa_1"
   x="0px"
   y="0px"
   width="137.021px"
   height="103.175px"
   viewBox="0 0 137.021 103.175"
   style="enable-background:new 0 0 137.021 103.175;"
   xml:space="preserve"
   inkscape:version="0.48.4 r9939"
   sodipodi:docname="TouchRotate.svg"><metadata
   id="metadata47"><rdf:RDF><cc:Work
       rdf:about=""><dc:format>image/svg+xml</dc:format><dc:type
         rdf:resource="http://purl.org/dc/dcmitype/StillImage" /></cc:Work></rdf:RDF></metadata><defs
   id="defs45" /><sodipodi:namedview
   pagecolor="#ffffff"
   bordercolor="#666666"
   borderopacity="1"
   objecttolerance="10"
   gridtolerance="10"
   guidetolerance="10"
   inkscape:pageopacity="0"
   inkscape:pageshadow="2"
   inkscape:window-width="895"
   inkscape:window-height="555"
   id="namedview43"
   showgrid="false"
   inkscape:zoom="2.0872714"
   inkscape:cx="60.41172"
   inkscape:cy="65.577339"
   inkscape:window-x="150"
   inkscape:window-y="175"
   inkscape:window-maximized="0"
   inkscape:current-layer="Capa_1" />

<g
   id="g13">
</g>
<g
   id="g15">
</g>
<g
   id="g17">
</g>
<g
   id="g19">
</g>
<g
   id="g21">
</g>
<g
   id="g23">
</g>
<g
   id="g25">
</g>
<g
   id="g27">
</g>
<g
   id="g29">
</g>
<g
   id="g31">
</g>
<g
   id="g33">
</g>
<g
   id="g35">
</g>
<g
   id="g37">
</g>
<g
   id="g39">
</g>
<g
   id="g41">
</g>
<path
   inkscape:connector-curvature="0"
   style="fill:#ffffff;fill-opacity:1;fill-rule:evenodd"
   d="m 86.715714,28.539541 c -4.70631,0 -8.52056,3.814941 -8.52056,8.520434 0,4.705493 3.814998,8.520434 8.521308,8.520434 4.705563,0 8.520564,-3.814941 8.520564,-8.520434 -7.48e-4,-4.705493 -3.815748,-8.520434 -8.521312,-8.520434 z m 0,15.276215 c -3.730502,0 -6.756628,-3.025334 -6.756628,-6.756529 0,-3.730447 3.026126,-6.755781 6.756628,-6.755781 3.730503,0 6.755882,3.025334 6.755882,6.755781 0,3.731195 -3.024631,6.756529 -6.755882,6.756529 z"
   id="path3430-5-1" /><path
   inkscape:connector-curvature="0"
   style="fill:#ffffff;fill-opacity:1;fill-rule:evenodd"
   d="m 49.825439,1.7102546 c -4.706306,0 -8.520556,3.814941 -8.520556,8.5204344 0,4.705493 3.814998,8.520434 8.521306,8.520434 4.70556,0 8.52057,-3.814941 8.52057,-8.520434 -7.5e-4,-4.7054934 -3.81575,-8.5204344 -8.52132,-8.5204344 z m 0,15.2762154 c -3.730498,0 -6.756624,-3.025334 -6.756624,-6.756529 0,-3.7304474 3.026126,-6.7557814 6.756624,-6.7557814 3.73051,0 6.75589,3.025334 6.75589,6.7557814 0,3.731195 -3.02464,6.756529 -6.75589,6.756529 z"
   id="path3430-5-1-7" /><g
   id="g3"
   style="fill:#000000">
	<path
   style="fill-rule:evenodd;fill:#ffffff"
   d="m 45.47,12.473 c -3.115,7.161 -7.928,18.995 -8.547,18.976 0,0 -4.878,-7.194 -10.562,-0.979 0,0 -5.294,-5.937 -10.223,0.528 0,0 -9.057,-2.156 -10.963,6.144 0,0 -6.837,14.488 -4.796,26.887 L 0.226,69 24.715,76.817 c 0,0 -1.43,-2.426 3.091,-4.281 0,0 11.348,-6.575 17.701,-12.29 0,0 3.514,-3.026 0.48,-9.891 0,0 0.266,-8.285 0.006,-11.722 0,0 1.217,-5.579 6.985,-23.289 C 55.177987,8.3622263 50.21081,2.9913959 45.47,12.473 z"
   id="path5"
   inkscape:connector-curvature="0"
   sodipodi:nodetypes="cccccccccccccc" />
	<path
   style="fill-rule:evenodd;fill:#ffffff"
   d="m 131.403,63.118 c -2.07,-8.261 -11.082,-5.925 -11.082,-5.925 -5.058,-6.366 -10.231,-0.325 -10.231,-0.325 -5.806,-6.101 -10.541,1.188 -10.541,1.188 -0.598,0.031 -5.312,-10.885 -8.568,-18.028 -2.521214,-9.0075 -9.947,-5.947653 -7.339,3.579 5.724,16.545 6.984,21.813 6.984,21.813 -0.191,3.44 0.238,11.72 0.238,11.72 -2.896,6.923 0.675,9.879 0.675,9.879 6.466,5.588 17.941,11.936 17.941,11.936 4.558,1.766 3.177,4.22 3.177,4.22 l 24.328,-8.302 -0.253,-4.969 c 1.793,-12.436 -5.329,-26.786 -5.329,-26.786 z"
   id="path7"
   inkscape:connector-curvature="0"
   sodipodi:nodetypes="cccccccccccccc" />
	<path
   d="M 66.495583,47.655706 53.983766,41.92444 c 0,0 -1.516584,-0.666487 -0.316343,-1.190429 1.19559,-0.52908 4.092683,-1.800413 4.092683,-1.800413 0,0 -0.279126,-0.774356 -0.711771,-1.962218 -1.225827,-3.412049 -3.462323,-9.61846 -4.370646,-12.145715 0,0 -0.412873,-0.609983 0.532666,-1.019633 0.944375,-0.419926 8.602892,-3.780608 9.279773,-4.079821 0.674553,-0.294076 0.867616,0.288938 0.867616,0.288938 0.886224,2.455342 3.19599,8.865936 4.381112,12.168832 0.382636,1.05816 0.631523,1.763171 0.631523,1.763171 0,0 2.324886,-1.02734 3.782155,-1.664289 1.454944,-0.636951 0.79202,1.049169 0.79202,1.049169 0,0 -4.676521,12.534821 -5.19523,13.866509 -0.382636,0.963131 -1.253741,0.457165 -1.253741,0.457165 z"
   id="path9"
   style="fill:#d800d8;fill-opacity:1"
   inkscape:connector-curvature="0" />
	<path
   d="m 72.024536,3.4797399 12.830751,5.4589996 c 0,0 1.555061,0.6339883 0.330763,1.1476305 -1.21954,0.518605 -4.177371,1.766731 -4.177371,1.766731 0,0 0.29031,0.74565 0.740052,1.890798 1.271891,3.289047 3.594372,9.271615 4.536689,11.707073 0,0 0.425947,0.586842 -0.538977,0.988823 -0.964924,0.411907 -8.780687,3.707157 -9.471959,3.999959 -0.687701,0.286597 -0.888776,-0.27295 -0.888776,-0.27295 -0.919712,-2.367222 -3.318339,-8.547057 -4.547397,-11.728165 -0.398581,-1.021081 -0.656768,-1.699734 -0.656768,-1.699734 0,0 -2.372451,1.007433 -3.859694,1.631496 -1.484865,0.625304 -0.8162,-1.009915 -0.8162,-1.009915 0,0 4.716348,-12.1388292 5.238668,-13.4291382 0.386684,-0.9342331 1.280219,-0.4516079 1.280219,-0.4516079 z"
   id="path11"
   style="fill:#d800d8;fill-opacity:0.94117647"
   inkscape:connector-curvature="0" />
</g></svg>