{
    "accessors": {
        "accessor_21": {
            "bufferView": "bufferView_29",
            "byteOffset": 0,
            "byteStride": 0,
            "componentType": 5123,
            "count": 6108,
            "type": "SCALAR"
        },
        "accessor_23": {
            "bufferView": "bufferView_30",
            "byteOffset": 0,
            "byteStride": 12,
            "componentType": 5126,
            "count": 6108,
            "max": [
                2.1109299659729004,
                2.1108598709106445,
                7.648169994354248
            ],
            "min": [
                -2.1109299659729004,
                -2.111000061035,
                0
            ],
            "type": "VEC3"
        },
        "accessor_25": {
            "bufferView": "bufferView_30",
            "byteOffset": 73296,
            "byteStride": 12,
            "componentType": 5126,
            "count": 6108,
            "max": [
                1,
                1,
                1
            ],
            "min": [
                -1,
                -1,
                -1
            ],
            "type": "VEC3"
        },
        "accessor_27": {
            "bufferView": "bufferView_30",
            "byteOffset": 146592,
            "byteStride": 8,
            "componentType": 5126,
            "count": 6108,
            "max": [
                0.9960619807243347,
                0.9995881915092468
            ],
            "min": [
                0.00041182199493050575,
                0.0004119873046875
            ],
            "type": "VEC2"
        }
    },
    "animations": {},
    "asset": {
        "generator": "collada2gltf@",
        "premultipliedAlpha": true,
        "profile": {
            "api": "WebGL",
            "version": "1.0.2"
        },
        "version": "1.0"
    },
    "bufferViews": {
        "bufferView_29": {
            "buffer": "wood_tower",
            "byteLength": 12216,
            "byteOffset": 0,
            "target": 34963
        },
        "bufferView_30": {
            "buffer": "wood_tower",
            "byteLength": 195456,
            "byteOffset": 12216,
            "target": 34962
        }
    },
    "buffers": {
        "wood_tower": {
            "byteLength": 207672,
            "type": "arraybuffer",
            "uri": "data:application/octet-stream;base64,"
        }
    },
    "images": {
        "t_C_png": {
            "name": "t_C_png",
            "uri": "data:image/jpeg;base64,"
        }
    },
    "materials": {
        "watchtower-effect": {
            "name": "watchtower",
            "technique": "technique0",
            "values": {
                "ambient": [
                    0,
                    0,
                    0,
                    1
                ],
                "diffuse": "texture_t_C_png",
                "emission": [
                    0,
                    0,
                    0,
                    1
                ]
            }
        }
    },
    "meshes": {
        "watchtower-mesh": {
            "name": "watchtower",
            "primitives": [
                {
                    "attributes": {
                        "NORMAL": "accessor_25",
                        "POSITION": "accessor_23",
                        "TEXCOORD_0": "accessor_27"
                    },
                    "indices": "accessor_21",
                    "material": "watchtower-effect",
                    "mode": 4
                }
            ]
        }
    },
    "nodes": {
        "node_1": {
            "children": [
                "watchtowerHigh"
            ],
            "matrix": [
                1,
                0,
                0,
                0,
                0,
                0,
                -1,
                0,
                0,
                1,
                0,
                0,
                0,
                0,
                0,
                1
            ],
            "name": "Y_UP_Transform"
        },
        "watchtowerHigh": {
            "children": [],
            "matrix": [
                6.2869696617126465,
                0,
                0,
                0,
                0,
                6.2869696617126465,
                0,
                0,
                0,
                0,
                6.2869696617126465,
                0,
                0,
                0,
                0,
                1
            ],
            "meshes": [
                "watchtower-mesh"
            ],
            "name": "watchtowerHigh"
        }
    },
    "programs": {
        "program_0": {
            "attributes": [
                "a_normal",
                "a_position",
                "a_texcoord0"
            ],
            "fragmentShader": "wood_tower0FS",
            "vertexShader": "wood_tower0VS"
        }
    },
    "samplers": {
        "sampler_0": {
            "magFilter": 9729,
            "minFilter": 9729,
            "wrapS": 10497,
            "wrapT": 10497
        }
    },
    "scene": "defaultScene",
    "scenes": {
        "defaultScene": {
            "nodes": [
                "node_1"
            ]
        }
    },
    "shaders": {
        "wood_tower0FS": {
            "type": 35632,
            "uri": "data:text/plain;base64,"
        },
        "wood_tower0VS": {
            "type": 35633,
            "uri": "data:text/plain;base64,"
        }
    },
    "skins": {},
    "techniques": {
        "technique0": {
            "attributes": {
                "a_normal": "normal",
                "a_position": "position",
                "a_texcoord0": "texcoord0"
            },
            "parameters": {
                "ambient": {
                    "type": 35666
                },
                "diffuse": {
                    "type": 35678
                },
                "emission": {
                    "type": 35666
                },
                "modelViewMatrix": {
                    "semantic": "MODELVIEW",
                    "type": 35676
                },
                "normal": {
                    "semantic": "NORMAL",
                    "type": 35665
                },
                "normalMatrix": {
                    "semantic": "MODELVIEWINVERSETRANSPOSE",
                    "type": 35675
                },
                "position": {
                    "semantic": "POSITION",
                    "type": 35665
                },
                "projectionMatrix": {
                    "semantic": "PROJECTION",
                    "type": 35676
                },
                "texcoord0": {
                    "semantic": "TEXCOORD_0",
                    "type": 35664
                }
            },
            "program": "program_0",
            "states": {
                "enable": [
                    2929
                ]
            },
            "uniforms": {
                "u_ambient": "ambient",
                "u_diffuse": "diffuse",
                "u_emission": "emission",
                "u_modelViewMatrix": "modelViewMatrix",
                "u_normalMatrix": "normalMatrix",
                "u_projectionMatrix": "projectionMatrix"
            }
        }
    },
    "textures": {
        "texture_t_C_png": {
            "format": 6408,
            "internalFormat": 6408,
            "sampler": "sampler_0",
            "source": "t_C_png",
            "target": 3553,
            "type": 5121
        }
    }
}