{
  "accessors": {
    "accessor_21": {
      "bufferView": "bufferView_1",
      "byteOffset": 0,
      "byteStride": 0,
      "componentType": 5123,
      "count": 36,
      "type": "SCALAR",
      "min": [
        0
      ],
      "max": [
        23
      ]
    },
    "accessor_23": {
      "bufferView": "bufferView_0",
      "byteOffset": 0,
      "byteStride": 0,
      "componentType": 5126,
      "count": 24,
      "max": [
        0.5,
        0.5,
        0.5
      ],
      "min": [
        -0.5,
        -0.5,
        -0.5
      ],
      "type": "VEC3"
    },
    "accessor_25": {
      "bufferView": "bufferView_0",
      "byteOffset": 480,
      "byteStride": 0,
      "componentType": 5120,
      "count": 24,
      "max": [
        1,
        1,
        1
      ],
      "min": [
        -1,
        -1,
        -1
      ],
      "type": "VEC3"
    },
    "accessor_27": {
      "bufferView": "bufferView_0",
      "byteOffset": 288,
      "byteStride": 0,
      "componentType": 5126,
      "count": 24,
      "max": [
        6,
        1
      ],
      "min": [
        0,
        0
      ],
      "type": "VEC2"
    }
  },
  "animations": {},
  "asset": {
    "generator": "collada2gltf@",
    "premultipliedAlpha": true,
    "profile": {
      "api": "WebGL",
      "version": "1.0.2"
    },
    "version": "1.0"
  },
  "bufferViews": {
    "bufferView_0": {
      "buffer": "CesiumTexturedBoxTest",
      "byteLength": 552,
      "byteOffset": 0,
      "target": 34962
    },
    "bufferView_1": {
      "buffer": "CesiumTexturedBoxTest",
      "byteLength": 72,
      "byteOffset": 552,
      "target": 34963
    }
  },
  "buffers": {
    "CesiumTexturedBoxTest": {
      "byteLength": 624,
      "type": "arraybuffer",
      "uri": "data:application/octet-stream;base64,"
    }
  },
  "images": {
    "Image0001": {
      "name": "Image0001",
      "uri": "data:image/ktx;base64,"
    }
  },
  "materials": {
    "Effect-Texture": {
      "name": "Texture",
      "technique": "technique0",
      "values": {
        "diffuse": "texture_Image0001",
        "shininess": 256,
        "specular": [
          0.20000000298023224,
          0.20000000298023224,
          0.20000000298023224,
          1
        ]
      }
    }
  },
  "meshes": {
    "Geometry-mesh002": {
      "name": "Mesh",
      "primitives": [
        {
          "attributes": {
            "NORMAL": "accessor_25",
            "POSITION": "accessor_23",
            "TEXCOORD_0": "accessor_27"
          },
          "indices": "accessor_21",
          "material": "Effect-Texture",
          "mode": 4
        }
      ]
    }
  },
  "nodes": {
    "Geometry-mesh002Node": {
      "children": [],
      "matrix": [
        1,
        0,
        0,
        0,
        0,
        1,
        0,
        0,
        0,
        0,
        1,
        0,
        0,
        0,
        0,
        1
      ],
      "meshes": [
        "Geometry-mesh002"
      ],
      "name": "Mesh"
    },
    "groupLocator030Node": {
      "children": [
        "txtrLocator026Node"
      ],
      "matrix": [
        1,
        0,
        0,
        0,
        0,
        1,
        0,
        0,
        0,
        0,
        1,
        0,
        0,
        0,
        0,
        1
      ],
      "name": "Texture_Group"
    },
    "node_3": {
      "children": [
        "Geometry-mesh002Node",
        "groupLocator030Node"
      ],
      "matrix": [
        1,
        0,
        0,
        0,
        0,
        0,
        -1,
        0,
        0,
        1,
        0,
        0,
        0,
        0,
        0,
        1
      ],
      "name": "Y_UP_Transform"
    },
    "txtrLocator026Node": {
      "children": [],
      "matrix": [
        1,
        0,
        0,
        0,
        0,
        1,
        0,
        0,
        0,
        0,
        1,
        0,
        0,
        0,
        0,
        1
      ],
      "name": "Cesium_Logo_Flat__Image___Texture_"
    }
  },
  "programs": {
    "program_0": {
      "attributes": [
        "a_normal",
        "a_position",
        "a_texcoord0"
      ],
      "fragmentShader": "CesiumTexturedBoxTest0FS",
      "vertexShader": "CesiumTexturedBoxTest0VS"
    }
  },
  "samplers": {
    "sampler_0": {
      "magFilter": 9729,
      "minFilter": 9987,
      "wrapS": 10497,
      "wrapT": 10497
    }
  },
  "scene": "defaultScene",
  "scenes": {
    "defaultScene": {
      "nodes": [
        "node_3"
      ]
    }
  },
  "shaders": {
    "CesiumTexturedBoxTest0FS": {
      "type": 35632,
      "uri": "data:text/plain;base64,"
    },
    "CesiumTexturedBoxTest0VS": {
      "type": 35633,
      "uri": "data:text/plain;base64,"
    }
  },
  "skins": {},
  "techniques": {
    "technique0": {
      "attributes": {
        "a_normal": "normal",
        "a_position": "position",
        "a_texcoord0": "texcoord0"
      },
      "parameters": {
        "diffuse": {
          "type": 35678
        },
        "modelViewMatrix": {
          "semantic": "MODELVIEW",
          "type": 35676
        },
        "normal": {
          "semantic": "NORMAL",
          "type": 35665
        },
        "normalMatrix": {
          "semantic": "MODELVIEWINVERSETRANSPOSE",
          "type": 35675
        },
        "position": {
          "semantic": "POSITION",
          "type": 35665
        },
        "projectionMatrix": {
          "semantic": "PROJECTION",
          "type": 35676
        },
        "shininess": {
          "type": 5126
        },
        "specular": {
          "type": 35666
        },
        "texcoord0": {
          "semantic": "TEXCOORD_0",
          "type": 35664
        }
      },
      "program": "program_0",
      "states": {
        "enable": [
          2929,
          2884
        ],
        "disable": []
      },
      "uniforms": {
        "u_diffuse": "diffuse",
        "u_modelViewMatrix": "modelViewMatrix",
        "u_normalMatrix": "normalMatrix",
        "u_projectionMatrix": "projectionMatrix",
        "u_shininess": "shininess",
        "u_specular": "specular"
      }
    }
  },
  "textures": {
    "texture_Image0001": {
      "format": 6408,
      "internalFormat": 6408,
      "sampler": "sampler_0",
      "source": "Image0001",
      "target": 3553,
      "type": 5121
    }
  },
  "extensionsUsed": [],
  "cameras": {},
  "extensions": {
    "KHR_materials_common": {
      "lights": {}
    }
  }
}
