{
    "accessors": {
        "accessor_29": {
            "bufferView": "bufferView_84",
            "byteOffset": 864,
            "byteStride": 0,
            "componentType": 5123,
            "count": 17088,
            "type": "SCALAR"
        },
        "accessor_31": {
            "bufferView": "bufferView_85",
            "byteOffset": 3296,
            "byteStride": 12,
            "componentType": 5126,
            "count": 4180,
            "max": [
                8.0047,
                5.46406,
                12.8683
            ],
            "min": [
                -13.3969,
                -2.296,
                -12.8683
            ],
            "type": "VEC3"
        },
        "accessor_33": {
            "bufferView": "bufferView_85",
            "byteOffset": 53456,
            "byteStride": 12,
            "componentType": 5126,
            "count": 4180,
            "max": [
                0.999997,
                0.999993,
                1
            ],
            "min": [
                -0.999997,
                -0.999999,
                -1
            ],
            "type": "VEC3"
        },
        "accessor_35": {
            "bufferView": "bufferView_85",
            "byteOffset": 103616,
            "byteStride": 8,
            "componentType": 5126,
            "count": 4180,
            "max": [
                0.952677,
                0.975
            ],
            "min": [
                0.025,
                0.025
            ],
            "type": "VEC2"
        },
        "accessor_73": {
            "bufferView": "bufferView_84",
            "byteOffset": 0,
            "byteStride": 0,
            "componentType": 5123,
            "count": 360,
            "type": "SCALAR"
        },
        "accessor_76": {
            "bufferView": "bufferView_84",
            "byteOffset": 720,
            "byteStride": 0,
            "componentType": 5123,
            "count": 72,
            "type": "SCALAR"
        },
        "accessor_78": {
            "bufferView": "bufferView_85",
            "byteOffset": 0,
            "byteStride": 12,
            "componentType": 5126,
            "count": 103,
            "max": [
                0.589514,
                1.59626,
                1.59625
            ],
            "min": [
                -2.28882e-05,
                -1.59623,
                -1.59625
            ],
            "type": "VEC3"
        },
        "accessor_80": {
            "bufferView": "bufferView_85",
            "byteOffset": 1236,
            "byteStride": 12,
            "componentType": 5126,
            "count": 103,
            "max": [
                1,
                0.98638,
                0.989446
            ],
            "min": [
                0.136493,
                -0.984109,
                -0.989423
            ],
            "type": "VEC3"
        },
        "accessor_82": {
            "bufferView": "bufferView_85",
            "byteOffset": 2472,
            "byteStride": 8,
            "componentType": 5126,
            "count": 103,
            "max": [
                0.894426,
                0.894426
            ],
            "min": [
                0.105574,
                0.105574
            ],
            "type": "VEC2"
        },
        "animAccessor_0": {
            "bufferView": "bufferView_83",
            "byteOffset": 0,
            "componentType": 5126,
            "count": 8,
            "type": "SCALAR"
        },
        "animAccessor_1": {
            "bufferView": "bufferView_83",
            "byteOffset": 32,
            "componentType": 5126,
            "count": 8,
            "type": "VEC4"
        }
    },
    "animations": {
        "animation_0": {
            "channels": [
                {
                    "sampler": "animation_0_rotation_sampler",
                    "target": {
                        "id": "Geometry-mesh005Node",
                        "path": "rotation"
                    }
                }
            ],
            "count": 8,
            "parameters": {
                "TIME": "animAccessor_0",
                "rotation": "animAccessor_1"
            },
            "samplers": {
                "animation_0_rotation_sampler": {
                    "input": "TIME",
                    "interpolation": "LINEAR",
                    "output": "rotation"
                }
            }
        },
        "animation_1": {
            "channels": [
                {
                    "sampler": "animation_1_rotation_sampler",
                    "target": {
                        "id": "meshInst741Node",
                        "path": "rotation"
                    }
                }
            ],
            "count": 8,
            "parameters": {
                "TIME": "animAccessor_0",
                "rotation": "animAccessor_1"
            },
            "samplers": {
                "animation_1_rotation_sampler": {
                    "input": "TIME",
                    "interpolation": "LINEAR",
                    "output": "rotation"
                }
            }
        }
    },
    "asset": {
        "generator": "collada2gltf@df4892809111a8c6dbff4fab6c386a24745d344e",
        "premultipliedAlpha": true,
        "profile": "WebGL 1.0.2",
        "version": 0.8
    },
    "bufferViews": {
        "bufferView_83": {
            "buffer": "Cesium_Air",
            "byteLength": 160,
            "byteOffset": 0
        },
        "bufferView_84": {
            "buffer": "Cesium_Air",
            "byteLength": 35040,
            "byteOffset": 160,
            "target": 34963
        },
        "bufferView_85": {
            "buffer": "Cesium_Air",
            "byteLength": 137056,
            "byteOffset": 35200,
            "target": 34962
        }
    },
    "buffers": {
        "Cesium_Air": {
            "byteLength": 172256,
            "type": "arraybuffer",
            "uri": "data:application/octet-stream;base64,"
        }
    },
    "images": {
        "Image0001": {
            "uri": "data:image/png;base64,"
        },
        "Image0002": {
            "uri": "data:image/png;base64,"
        }
    },
    "lights": {
        "Light-polyRender085": {
            "ambient": {
                "color": [
                    0,
                    0,
                    0
                ]
            },
            "type": "ambient"
        }
    },
    "materials": {
        "Effect-cesium_air": {
            "instanceTechnique": {
                "technique": "technique1",
                "values": {
                    "diffuse": "texture_Image0001",
                    "shininess": 256,
                    "specular": [
                        0.2,
                        0.2,
                        0.2,
                        1
                    ]
                }
            },
            "name": "cesium_air"
        },
        "Effect-prop": {
            "instanceTechnique": {
                "technique": "technique2",
                "values": {
                    "diffuse": "texture_Image0002",
                    "shininess": 256,
                    "specular": [
                        0.2,
                        0.2,
                        0.2,
                        1
                    ]
                }
            },
            "name": "prop"
        }
    },
    "meshes": {
        "Geometry-mesh005": {
            "name": "Prop",
            "primitives": [
                {
                    "attributes": {
                        "NORMAL": "accessor_80",
                        "POSITION": "accessor_78",
                        "TEXCOORD_0": "accessor_82"
                    },
                    "indices": "accessor_73",
                    "material": "Effect-cesium_air",
                    "primitive": 4
                },
                {
                    "attributes": {
                        "NORMAL": "accessor_80",
                        "POSITION": "accessor_78",
                        "TEXCOORD_0": "accessor_82"
                    },
                    "indices": "accessor_76",
                    "material": "Effect-prop",
                    "primitive": 4
                }
            ]
        },
        "Geometry-mesh090": {
            "name": "Cesium_Air",
            "primitives": [
                {
                    "attributes": {
                        "NORMAL": "accessor_33",
                        "POSITION": "accessor_31",
                        "TEXCOORD_0": "accessor_35"
                    },
                    "indices": "accessor_29",
                    "material": "Effect-cesium_air",
                    "primitive": 4
                }
            ]
        }
    },
    "nodes": {
        "Geometry-mesh005Node": {
            "children": [],
            "meshes": [
                "Geometry-mesh005"
            ],
            "name": "Prop",
            "rotation": [
                1,
                0,
                0,
                0
            ],
            "scale": [
                1,
                1,
                1
            ],
            "translation": [
                1.91915,
                0.684061,
                3.40932
            ]
        },
        "Geometry-mesh090Node": {
            "children": [
                "Geometry-mesh005Node",
                "meshInst741Node"
            ],
            "matrix": [
                1,
                0,
                0,
                0,
                0,
                1,
                0,
                0,
                0,
                0,
                1,
                0,
                0,
                0,
                0,
                1
            ],
            "meshes": [
                "Geometry-mesh090"
            ],
            "name": "Cesium_Air"
        },
        "groupLocator008Node": {
            "children": [
                "txtrLocator017Node",
                "txtrLocator010Node"
            ],
            "matrix": [
                1,
                0,
                0,
                0,
                0,
                1,
                0,
                0,
                0,
                0,
                1,
                0,
                0,
                0,
                0,
                1
            ],
            "name": "Texture_Group"
        },
        "meshInst741Node": {
            "children": [],
            "meshes": [
                "Geometry-mesh005"
            ],
            "name": "Prop__2_",
            "rotation": [
                1,
                0,
                0,
                0
            ],
            "scale": [
                1,
                1,
                1
            ],
            "translation": [
                1.91915,
                0.684061,
                -3.40932
            ]
        },
        "polyRender085": {
            "children": [],
            "light": "Light-polyRender085",
            "matrix": [
                1,
                0,
                0,
                0,
                0,
                1,
                0,
                0,
                0,
                0,
                1,
                0,
                0,
                0,
                0,
                1
            ],
            "name": "Render"
        },
        "txtrLocator010Node": {
            "children": [],
            "matrix": [
                1,
                0,
                0,
                0,
                0,
                1,
                0,
                0,
                0,
                0,
                1,
                0,
                0,
                0,
                0,
                1
            ],
            "name": "Cesium_Air__Image___Texture_"
        },
        "txtrLocator017Node": {
            "children": [],
            "matrix": [
                1,
                0,
                0,
                0,
                0,
                1,
                0,
                0,
                0,
                0,
                1,
                0,
                0,
                0,
                0,
                1
            ],
            "name": "Cesium_Air_Prop__Image___Texture_"
        }
    },
    "programs": {
        "program_0": {
            "attributes": [
                "a_normal",
                "a_position",
                "a_texcoord0"
            ],
            "fragmentShader": "Cesium_Air0FS",
            "vertexShader": "Cesium_Air0VS"
        },
        "program_1": {
            "attributes": [
                "a_normal",
                "a_position",
                "a_texcoord0"
            ],
            "fragmentShader": "Cesium_Air1FS",
            "vertexShader": "Cesium_Air1VS"
        }
    },
    "samplers": {
        "sampler_0": {
            "magFilter": 9729,
            "minFilter": 9987,
            "wrapS": 10497,
            "wrapT": 10497
        }
    },
    "scene": "defaultScene",
    "scenes": {
        "defaultScene": {
            "nodes": [
                "polyRender085",
                "Geometry-mesh090Node",
                "groupLocator008Node"
            ]
        }
    },
    "shaders": {
        "Cesium_Air0FS": {
            "type": 35632,
            "uri": "data:text/plain;base64,"
        },
        "Cesium_Air0VS": {
            "type": 35633,
            "uri": "data:text/plain;base64,"
        },
        "Cesium_Air1FS": {
            "type": 35632,
            "uri": "data:text/plain;base64,"
        },
        "Cesium_Air1VS": {
            "type": 35633,
            "uri": "data:text/plain;base64,"
        }
    },
    "skins": {},
    "techniques": {
        "technique1": {
            "parameters": {
                "diffuse": {
                    "type": 35678
                },
                "modelViewMatrix": {
                    "semantic": "MODELVIEW",
                    "type": 35676
                },
                "normal": {
                    "semantic": "NORMAL",
                    "type": 35665
                },
                "normalMatrix": {
                    "semantic": "MODELVIEWINVERSETRANSPOSE",
                    "type": 35675
                },
                "position": {
                    "semantic": "POSITION",
                    "type": 35665
                },
                "projectionMatrix": {
                    "semantic": "PROJECTION",
                    "type": 35676
                },
                "shininess": {
                    "type": 5126
                },
                "specular": {
                    "type": 35666
                },
                "texcoord0": {
                    "semantic": "TEXCOORD_0",
                    "type": 35664
                }
            },
            "pass": "defaultPass",
            "passes": {
                "defaultPass": {
                    "details": {
                        "commonProfile": {
                            "extras": {
                                "doubleSided": false
                            },
                            "lightingModel": "Phong",
                            "parameters": [
                                "diffuse",
                                "modelViewMatrix",
                                "normalMatrix",
                                "projectionMatrix",
                                "shininess",
                                "specular"
                            ],
                            "texcoordBindings": {
                                "diffuse": "TEXCOORD_0"
                            }
                        },
                        "type": "COLLADA-1.4.1/commonProfile"
                    },
                    "instanceProgram": {
                        "attributes": {
                            "a_normal": "normal",
                            "a_position": "position",
                            "a_texcoord0": "texcoord0"
                        },
                        "program": "program_0",
                        "uniforms": {
                            "u_diffuse": "diffuse",
                            "u_modelViewMatrix": "modelViewMatrix",
                            "u_normalMatrix": "normalMatrix",
                            "u_projectionMatrix": "projectionMatrix",
                            "u_shininess": "shininess",
                            "u_specular": "specular"
                        }
                    },
                    "states": {
                        "enable": [
                            2884,
                            2929
                        ]
                    }
                }
            }
        },
        "technique2": {
            "parameters": {
                "diffuse": {
                    "type": 35678
                },
                "modelViewMatrix": {
                    "semantic": "MODELVIEW",
                    "type": 35676
                },
                "normal": {
                    "semantic": "NORMAL",
                    "type": 35665
                },
                "normalMatrix": {
                    "semantic": "MODELVIEWINVERSETRANSPOSE",
                    "type": 35675
                },
                "position": {
                    "semantic": "POSITION",
                    "type": 35665
                },
                "projectionMatrix": {
                    "semantic": "PROJECTION",
                    "type": 35676
                },
                "shininess": {
                    "type": 5126
                },
                "specular": {
                    "type": 35666
                },
                "texcoord0": {
                    "semantic": "TEXCOORD_0",
                    "type": 35664
                }
            },
            "pass": "defaultPass",
            "passes": {
                "defaultPass": {
                    "details": {
                        "commonProfile": {
                            "extras": {
                                "doubleSided": false
                            },
                            "lightingModel": "Phong",
                            "parameters": [
                                "diffuse",
                                "modelViewMatrix",
                                "normalMatrix",
                                "projectionMatrix",
                                "shininess",
                                "specular"
                            ],
                            "texcoordBindings": {
                                "diffuse": "TEXCOORD_0"
                            }
                        },
                        "type": "COLLADA-1.4.1/commonProfile"
                    },
                    "instanceProgram": {
                        "attributes": {
                            "a_normal": "normal",
                            "a_position": "position",
                            "a_texcoord0": "texcoord0"
                        },
                        "program": "program_1",
                        "uniforms": {
                            "u_diffuse": "diffuse",
                            "u_modelViewMatrix": "modelViewMatrix",
                            "u_normalMatrix": "normalMatrix",
                            "u_projectionMatrix": "projectionMatrix",
                            "u_shininess": "shininess",
                            "u_specular": "specular"
                        }
                    },
                    "states": {
                        "enable": [
                            2884,
                            2929,
                            3042
                        ],
                        "functions": {
                            "blendEquationSeparate": [
                                32774,
                                32774
                            ],
                            "blendFuncSeparate": [
                                1,
                                771,
                                1,
                                771
                            ]
                        }
                    }
                }
            }
        }
    },
    "textures": {
        "texture_Image0001": {
            "format": 6408,
            "internalFormat": 6408,
            "sampler": "sampler_0",
            "source": "Image0001",
            "target": 3553,
            "type": 5121
        },
        "texture_Image0002": {
            "format": 6408,
            "internalFormat": 6408,
            "sampler": "sampler_0",
            "source": "Image0002",
            "target": 3553,
            "type": 5121
        }
    }
}