{
    "accessors": {
        "accessor_29": {
            "bufferView": "bufferView_84",
            "byteOffset": 864,
            "byteStride": 0,
            "componentType": 5123,
            "count": 17088,
            "type": "SCALAR"
        },
        "accessor_31": {
            "bufferView": "bufferView_85",
            "byteOffset": 3296,
            "byteStride": 12,
            "componentType": 5126,
            "count": 4180,
            "max": [
                8.00469970703125,
                5.464059829711914,
                12.86829948425293
            ],
            "min": [
                -13.396899223327637,
                -2.2960000038146973,
                -12.86829948425293
            ],
            "type": "VEC3"
        },
        "accessor_33": {
            "bufferView": "bufferView_85",
            "byteOffset": 53456,
            "byteStride": 12,
            "componentType": 5126,
            "count": 4180,
            "max": [
                0.9999970197677612,
                0.9999930262565613,
                1
            ],
            "min": [
                -0.9999970197677612,
                -0.9999989867210388,
                -1
            ],
            "type": "VEC3"
        },
        "accessor_35": {
            "bufferView": "bufferView_85",
            "byteOffset": 103616,
            "byteStride": 8,
            "componentType": 5126,
            "count": 4180,
            "max": [
                0.9526770114898682,
                0.9750000238418579
            ],
            "min": [
                0.02500000037252903,
                0.02499997615814209
            ],
            "type": "VEC2"
        },
        "accessor_73": {
            "bufferView": "bufferView_84",
            "byteOffset": 0,
            "byteStride": 0,
            "componentType": 5123,
            "count": 360,
            "type": "SCALAR"
        },
        "accessor_76": {
            "bufferView": "bufferView_84",
            "byteOffset": 720,
            "byteStride": 0,
            "componentType": 5123,
            "count": 72,
            "type": "SCALAR"
        },
        "accessor_78": {
            "bufferView": "bufferView_85",
            "byteOffset": 0,
            "byteStride": 12,
            "componentType": 5126,
            "count": 103,
            "max": [
                0.5895140171051025,
                1.5962599515914917,
                1.5962499380111694
            ],
            "min": [
                -0.000022888199964654632,
                -1.596229910850525,
                -1.5962499380111694
            ],
            "type": "VEC3"
        },
        "accessor_80": {
            "bufferView": "bufferView_85",
            "byteOffset": 1236,
            "byteStride": 12,
            "componentType": 5126,
            "count": 103,
            "max": [
                1,
                0.9863799810409546,
                0.9894459843635559
            ],
            "min": [
                0.1364929974079132,
                -0.9841089844703674,
                -0.9894229769706726
            ],
            "type": "VEC3"
        },
        "accessor_82": {
            "bufferView": "bufferView_85",
            "byteOffset": 2472,
            "byteStride": 8,
            "componentType": 5126,
            "count": 103,
            "max": [
                0.8944259881973267,
                0.8944259881973267
            ],
            "min": [
                0.10557399690151215,
                0.10557401180267334
            ],
            "type": "VEC2"
        },
        "animAccessor_0": {
            "bufferView": "bufferView_83",
            "byteOffset": 0,
            "componentType": 5126,
            "count": 8,
            "type": "SCALAR"
        },
        "animAccessor_1": {
            "bufferView": "bufferView_83",
            "byteOffset": 32,
            "componentType": 5126,
            "count": 8,
            "type": "VEC4"
        }
    },
    "animations": {
        "animation_0": {
            "channels": [
                {
                    "sampler": "animation_0_rotation_sampler",
                    "target": {
                        "id": "Geometry-mesh005Node",
                        "path": "rotation"
                    }
                }
            ],
            "parameters": {
                "TIME": "animAccessor_0",
                "rotation": "animAccessor_1"
            },
            "samplers": {
                "animation_0_rotation_sampler": {
                    "input": "TIME",
                    "interpolation": "LINEAR",
                    "output": "rotation"
                }
            }
        },
        "animation_1": {
            "channels": [
                {
                    "sampler": "animation_1_rotation_sampler",
                    "target": {
                        "id": "meshInst741Node",
                        "path": "rotation"
                    }
                }
            ],
            "parameters": {
                "TIME": "animAccessor_0",
                "rotation": "animAccessor_1"
            },
            "samplers": {
                "animation_1_rotation_sampler": {
                    "input": "TIME",
                    "interpolation": "LINEAR",
                    "output": "rotation"
                }
            }
        }
    },
    "asset": {
        "generator": "collada2gltf@",
        "premultipliedAlpha": true,
        "profile": {
            "api": "WebGL",
            "version": "1.0.2"
        },
        "version": "1.0"
    },
    "bufferViews": {
        "bufferView_83": {
            "buffer": "Cesium_Air",
            "byteLength": 160,
            "byteOffset": 0
        },
        "bufferView_84": {
            "buffer": "Cesium_Air",
            "byteLength": 35040,
            "byteOffset": 160,
            "target": 34963
        },
        "bufferView_85": {
            "buffer": "Cesium_Air",
            "byteLength": 137056,
            "byteOffset": 35200,
            "target": 34962
        }
    },
    "buffers": {
        "Cesium_Air": {
            "byteLength": 172256,
            "type": "arraybuffer",
            "uri": "data:application/octet-stream;base64,"
        }
    },
    "images": {
        "Image0001": {
            "name": "Image0001",
            "uri": "data:image/jpeg;base64,"
        },
        "Image0002": {
            "name": "Image0002",
            "uri": "data:image/png;base64,"
        }
    },
    "materials": {
        "Effect-cesium_air": {
            "name": "cesium_air",
            "technique": "technique0",
            "values": {
                "diffuse": "texture_Image0001",
                "shininess": 256,
                "specular": [
                    0.20000000298023224,
                    0.20000000298023224,
                    0.20000000298023224,
                    1
                ]
            }
        },
        "Effect-prop": {
            "name": "prop",
            "technique": "technique1",
            "values": {
                "diffuse": "texture_Image0002",
                "shininess": 256,
                "specular": [
                    0.20000000298023224,
                    0.20000000298023224,
                    0.20000000298023224,
                    1
                ]
            }
        }
    },
    "meshes": {
        "Geometry-mesh005": {
            "name": "Prop",
            "primitives": [
                {
                    "attributes": {
                        "NORMAL": "accessor_80",
                        "POSITION": "accessor_78",
                        "TEXCOORD_0": "accessor_82"
                    },
                    "indices": "accessor_73",
                    "material": "Effect-cesium_air",
                    "mode": 4
                },
                {
                    "attributes": {
                        "NORMAL": "accessor_80",
                        "POSITION": "accessor_78",
                        "TEXCOORD_0": "accessor_82"
                    },
                    "indices": "accessor_76",
                    "material": "Effect-prop",
                    "mode": 4
                }
            ]
        },
        "Geometry-mesh090": {
            "name": "Cesium_Air",
            "primitives": [
                {
                    "attributes": {
                        "NORMAL": "accessor_33",
                        "POSITION": "accessor_31",
                        "TEXCOORD_0": "accessor_35"
                    },
                    "indices": "accessor_29",
                    "material": "Effect-cesium_air",
                    "mode": 4
                }
            ]
        }
    },
    "nodes": {
        "Geometry-mesh005Node": {
            "children": [],
            "meshes": [
                "Geometry-mesh005"
            ],
            "name": "Prop",
            "rotation": [
                0,
                0,
                0,
                1
            ],
            "scale": [
                1,
                1,
                1
            ],
            "translation": [
                1.9191499948501587,
                0.6840609908103943,
                3.4093198776245117
            ]
        },
        "Geometry-mesh090Node": {
            "children": [
                "Geometry-mesh005Node",
                "meshInst741Node"
            ],
            "matrix": [
                1,
                0,
                0,
                0,
                0,
                1,
                0,
                0,
                0,
                0,
                1,
                0,
                0,
                0,
                0,
                1
            ],
            "meshes": [
                "Geometry-mesh090"
            ],
            "name": "Cesium_Air"
        },
        "groupLocator008Node": {
            "children": [
                "txtrLocator017Node",
                "txtrLocator010Node"
            ],
            "matrix": [
                1,
                0,
                0,
                0,
                0,
                1,
                0,
                0,
                0,
                0,
                1,
                0,
                0,
                0,
                0,
                1
            ],
            "name": "Texture_Group"
        },
        "meshInst741Node": {
            "children": [],
            "meshes": [
                "Geometry-mesh005"
            ],
            "name": "Prop__2_",
            "rotation": [
                0,
                0,
                0,
                1
            ],
            "scale": [
                1,
                1,
                1
            ],
            "translation": [
                1.9191499948501587,
                0.6840609908103943,
                -3.4093198776245117
            ]
        },
        "polyRender085": {
            "children": [],
            "matrix": [
                1,
                0,
                0,
                0,
                0,
                1,
                0,
                0,
                0,
                0,
                1,
                0,
                0,
                0,
                0,
                1
            ],
            "name": "Render"
        },
        "txtrLocator010Node": {
            "children": [],
            "matrix": [
                1,
                0,
                0,
                0,
                0,
                1,
                0,
                0,
                0,
                0,
                1,
                0,
                0,
                0,
                0,
                1
            ],
            "name": "Cesium_Air__Image___Texture_"
        },
        "txtrLocator017Node": {
            "children": [],
            "matrix": [
                1,
                0,
                0,
                0,
                0,
                1,
                0,
                0,
                0,
                0,
                1,
                0,
                0,
                0,
                0,
                1
            ],
            "name": "Cesium_Air_Prop__Image___Texture_"
        }
    },
    "programs": {
        "program_0": {
            "attributes": [
                "a_normal",
                "a_position",
                "a_texcoord0"
            ],
            "fragmentShader": "Cesium_Air0FS",
            "vertexShader": "Cesium_Air0VS"
        },
        "program_1": {
            "attributes": [
                "a_normal",
                "a_position",
                "a_texcoord0"
            ],
            "fragmentShader": "Cesium_Air1FS",
            "vertexShader": "Cesium_Air1VS"
        }
    },
    "samplers": {
        "sampler_0": {
            "magFilter": 9729,
            "minFilter": 9987,
            "wrapS": 10497,
            "wrapT": 10497
        }
    },
    "scene": "defaultScene",
    "scenes": {
        "defaultScene": {
            "nodes": [
                "polyRender085",
                "Geometry-mesh090Node",
                "groupLocator008Node"
            ]
        }
    },
    "shaders": {
        "Cesium_Air0FS": {
            "type": 35632,
            "uri": "data:text/plain;base64,"
        },
        "Cesium_Air0VS": {
            "type": 35633,
            "uri": "data:text/plain;base64,"
        },
        "Cesium_Air1FS": {
            "type": 35632,
            "uri": "data:text/plain;base64,"
        },
        "Cesium_Air1VS": {
            "type": 35633,
            "uri": "data:text/plain;base64,"
        }
    },
    "skins": {},
    "techniques": {
        "technique0": {
            "attributes": {
                "a_normal": "normal",
                "a_position": "position",
                "a_texcoord0": "texcoord0"
            },
            "parameters": {
                "diffuse": {
                    "type": 35678
                },
                "modelViewMatrix": {
                    "semantic": "MODELVIEW",
                    "type": 35676
                },
                "normal": {
                    "semantic": "NORMAL",
                    "type": 35665
                },
                "normalMatrix": {
                    "semantic": "MODELVIEWINVERSETRANSPOSE",
                    "type": 35675
                },
                "position": {
                    "semantic": "POSITION",
                    "type": 35665
                },
                "projectionMatrix": {
                    "semantic": "PROJECTION",
                    "type": 35676
                },
                "shininess": {
                    "type": 5126
                },
                "specular": {
                    "type": 35666
                },
                "texcoord0": {
                    "semantic": "TEXCOORD_0",
                    "type": 35664
                }
            },
            "program": "program_0",
            "states": {
                "enable": [
                    2929,
                    2884
                ]
            },
            "uniforms": {
                "u_diffuse": "diffuse",
                "u_modelViewMatrix": "modelViewMatrix",
                "u_normalMatrix": "normalMatrix",
                "u_projectionMatrix": "projectionMatrix",
                "u_shininess": "shininess",
                "u_specular": "specular"
            }
        },
        "technique1": {
            "attributes": {
                "a_normal": "normal",
                "a_position": "position",
                "a_texcoord0": "texcoord0"
            },
            "parameters": {
                "diffuse": {
                    "type": 35678
                },
                "modelViewMatrix": {
                    "semantic": "MODELVIEW",
                    "type": 35676
                },
                "normal": {
                    "semantic": "NORMAL",
                    "type": 35665
                },
                "normalMatrix": {
                    "semantic": "MODELVIEWINVERSETRANSPOSE",
                    "type": 35675
                },
                "position": {
                    "semantic": "POSITION",
                    "type": 35665
                },
                "projectionMatrix": {
                    "semantic": "PROJECTION",
                    "type": 35676
                },
                "shininess": {
                    "type": 5126
                },
                "specular": {
                    "type": 35666
                },
                "texcoord0": {
                    "semantic": "TEXCOORD_0",
                    "type": 35664
                }
            },
            "program": "program_1",
            "states": {
                "enable": [
                    2929,
                    3042
                ],
                "functions": {
                    "blendEquationSeparate": [
                        32774,
                        32774
                    ],
                    "blendFuncSeparate": [
                        1,
                        771,
                        1,
                        771
                    ],
                    "depthMask": false
                }
            },
            "uniforms": {
                "u_diffuse": "diffuse",
                "u_modelViewMatrix": "modelViewMatrix",
                "u_normalMatrix": "normalMatrix",
                "u_projectionMatrix": "projectionMatrix",
                "u_shininess": "shininess",
                "u_specular": "specular"
            }
        }
    },
    "textures": {
        "texture_Image0001": {
            "format": 6408,
            "internalFormat": 6408,
            "sampler": "sampler_0",
            "source": "Image0001",
            "target": 3553,
            "type": 5121
        },
        "texture_Image0002": {
            "format": 6408,
            "internalFormat": 6408,
            "sampler": "sampler_0",
            "source": "Image0002",
            "target": 3553,
            "type": 5121
        }
    }
}
