{
  "extensions" : {
    "EXT_structural_metadata" : {
      "schemaUri" : "MetadataSchema.json",
      "propertyAttributes" : [ {
        "class" : "exampleMetadataClass",
        "properties" : {
          "intensity" : {
            "attribute" : "_INTENSITY"
          },
          "classification" : {
            "attribute" : "_CLASSIFICATION"
          }
        }
      } ]
    }
  },
  "extensionsUsed" : [ "EXT_structural_metadata" ],
  "accessors" : [ {
    "bufferView" : 0,
    "byteOffset" : 0,
    "componentType" : 5126,
    "count" : 22462,
    "type" : "VEC3",
    "max" : [ 9.587999, 7.956, 0.0 ],
    "min" : [ 0.0, 0.0, 0.0 ]
  }, {
    "bufferView" : 1,
    "byteOffset" : 0,
    "componentType" : 5126,
    "count" : 22462,
    "type" : "VEC3",
    "max" : [ 0.99607843, 0.9882353, 0.9882353 ],
    "min" : [ 0.70980394, 0.70980394, 0.70980394 ]
  }, {
    "bufferView" : 2,
    "byteOffset" : 0,
    "componentType" : 5126,
    "count" : 22462,
    "type" : "SCALAR",
    "max" : [ 0.6333334 ],
    "min" : [ 0.0 ]
  }, {
    "bufferView" : 3,
    "byteOffset" : 0,
    "componentType" : 5123,
    "count" : 22462,
    "type" : "SCALAR",
    "max" : [ 1 ],
    "min" : [ 1 ]
  } ],
  "asset" : {
    "generator" : "JglTF from https://github.com/javagl/JglTF",
    "version" : "2.0"
  },
  "buffers" : [ {
    "uri" : "PropertyAttributesPointCloudHouse.bin",
    "byteLength" : 718784
  } ],
  "bufferViews" : [ {
    "buffer" : 0,
    "byteOffset" : 0,
    "byteLength" : 269544,
    "target" : 34962
  }, {
    "buffer" : 0,
    "byteOffset" : 269544,
    "byteLength" : 269544,
    "target" : 34962
  }, {
    "buffer" : 0,
    "byteOffset" : 539088,
    "byteLength" : 89848,
    "target" : 34962
  }, {
    "buffer" : 0,
    "byteOffset" : 628936,
    "byteLength" : 89848,
    "byteStride" : 4,
    "target" : 34962
  } ],
  "materials" : [ {
    "pbrMetallicRoughness" : {
      "baseColorFactor" : [ 1.0, 1.0, 1.0, 1.0 ],
      "metallicFactor" : 0.0,
      "roughnessFactor" : 1.0
    },
    "alphaMode" : "OPAQUE",
    "doubleSided" : true
  } ],
  "meshes" : [ {
    "primitives" : [ {
      "extensions" : {
        "EXT_structural_metadata" : {
          "propertyAttributes" : [ 0 ]
        }
      },
      "attributes" : {
        "POSITION" : 0,
        "COLOR_0" : 1,
        "_INTENSITY" : 2,
        "_CLASSIFICATION" : 3
      },
      "material" : 0,
      "mode" : 0
    } ]
  } ],
  "nodes" : [ {
    "mesh" : 0
  } ],
  "scene" : 0,
  "scenes" : [ {
    "nodes" : [ 0 ]
  } ]
}