{
  "asset": {
    "version": "2.0"
  },
  "extensionsUsed": [
    "BENTLEY_materials_planar_fill"
  ],
  "accessors": [
    {
      "bufferView": 0,
      "byteOffset": 0,
      "componentType": 5126,
      "count": 3,
      "type": "VEC3",
      "max": [1.0, 1.0, 0.0],
      "min": [0.0, 0.0, 0.0]
    },
    {
      "bufferView": 1,
      "byteOffset": 0,
      "componentType": 5123,
      "count": 3,
      "type": "SCALAR",
      "max": [2],
      "min": [0]
    }
  ],
  "buffers": [
    {
      "byteLength": 44,
      "uri": "data:application/octet-stream;base64,"
    }
  ],
  "bufferViews": [
    {
      "buffer": 0,
      "byteOffset": 0,
      "byteLength": 36,
      "target": 34962
    },
    {
      "buffer": 0,
      "byteOffset": 36,
      "byteLength": 6,
      "target": 34963
    }
  ],
  "materials": [
    {
      "name": "PlanarFillMaterial",
      "pbrMetallicRoughness": {
        "baseColorFactor": [0.5, 0.5, 0.5, 1.0],
        "metallicFactor": 0.0
      },
      "extensions": {
        "BENTLEY_materials_planar_fill": {
          "wireframeFill": 1,
          "backgroundFill": true,
          "behind": true
        }
      }
    },
    {
      "name": "DefaultMaterial",
      "pbrMetallicRoughness": {
        "baseColorFactor": [1.0, 0.0, 0.0, 1.0],
        "metallicFactor": 0.0
      },
      "extensions": {
        "BENTLEY_materials_planar_fill": {
          "wireframeFill": 2
        }
      }
    }
  ],
  "meshes": [
    {
      "name": "TriangleMesh",
      "primitives": [
        {
          "mode": 4,
          "material": 0,
          "indices": 1,
          "attributes": {
            "POSITION": 0
          }
        },
        {
          "mode": 4,
          "material": 1,
          "indices": 1,
          "attributes": {
            "POSITION": 0
          }
        }
      ]
    }
  ],
  "nodes": [
    {
      "name": "TriangleNode",
      "mesh": 0
    }
  ],
  "scenes": [
    {
      "nodes": [0]
    }
  ],
  "scene": 0
}
